<svg width="533" height="558" viewBox="0 0 533 558" fill="none" xmlns="http://www.w3.org/2000/svg">
<path d="M89.425 177.713H75.8542V50.1477H89.425V105.002H111.138V117.145H89.425V177.713Z" fill="#D1D1D1"/>
<rect x="1.74" y="26.74" width="529.52" height="529.52" stroke="black" stroke-width="3.48"/>
<path d="M209.258 257.141L187.371 253.017L169.001 281.966" stroke="black" stroke-width="3.4"/>
<line x1="373.772" y1="339.43" x2="369.972" y2="272.93" stroke="black" stroke-width="3.4"/>
<line y1="-1.7" x2="101.967" y2="-1.7" transform="matrix(-4.50689e-08 -1 -1 4.50689e-08 371.5 446.833)" stroke="black" stroke-width="3.4"/>
<line x1="211.436" y1="442.133" x2="371.669" y2="442.133" stroke="black" stroke-width="3.4"/>
<line x1="214.401" y1="136.033" x2="214.401" y2="306.4" stroke="black" stroke-width="3.4"/>
<line x1="264.434" y1="138.566" x2="264.434" y2="272.833" stroke="black" stroke-width="3.4"/>
<line x1="304.966" y1="210.133" x2="304.966" y2="303.233" stroke="black" stroke-width="3.4"/>
<line x1="334.098" y1="238.633" x2="334.098" y2="303.233" stroke="black" stroke-width="3.4"/>
<line x1="172.493" y1="334.306" x2="214.293" y2="446.406" stroke="black" stroke-width="3.4"/>
<line x1="169.317" y1="328.286" x2="169.317" y2="284.719" stroke="black" stroke-width="3.16666"/>
<line x1="338.562" y1="255.022" x2="356.296" y2="255.022" stroke="black" stroke-width="3.4"/>
<line x1="303.266" y1="221.733" x2="320.999" y2="221.733" stroke="black" stroke-width="3.4"/>
<line x1="274.133" y1="197.033" x2="291.866" y2="197.033" stroke="black" stroke-width="3.4"/>
<line x1="358.919" y1="255.692" x2="369.052" y2="268.992" stroke="black" stroke-width="3.4"/>
<line x1="323.618" y1="222.403" x2="333.751" y2="235.703" stroke="black" stroke-width="3.4"/>
<line y1="-1.7" x2="14.0878" y2="-1.7" transform="matrix(0.719299 0.6947 -0.872265 0.489033 293.133 198.733)" stroke="black" stroke-width="3.4"/>
<line y1="-1.7" x2="21.9124" y2="-1.7" transform="matrix(-0.999366 -0.0356051 -0.0356051 0.999366 247.064 105.78)" stroke="black" stroke-width="3.4"/>
<line y1="-1.7" x2="26.0299" y2="-1.7" transform="matrix(-0.343974 -0.938979 -0.938979 0.343974 262.676 134.317)" stroke="black" stroke-width="3.4"/>
<line y1="-1.7" x2="28.3224" y2="-1.7" transform="matrix(0.195303 -0.980743 -0.980743 -0.195303 212.701 136.31)" stroke="black" stroke-width="3.4"/>
<line x1="229.37" y1="142.43" x2="228.103" y2="108.864" stroke="black" stroke-width="3.4"/>
<line x1="256.604" y1="146.864" x2="255.337" y2="113.297" stroke="black" stroke-width="3.4"/>
<line x1="253.867" y1="148.5" x2="231.067" y2="148.5" stroke="black" stroke-width="3.4"/>
</svg>
