<svg width="533" height="558" viewBox="0 0 533 558" fill="none" xmlns="http://www.w3.org/2000/svg">
<path d="M67.2827 168.428H54.1404V53.2904H67.2827V100.574H85.5676V50.1477H98.9955V177.713H85.5676V112.716H67.2827V168.428Z" fill="#D1D1D1"/>
<rect x="1.74" y="26.74" width="529.52" height="529.52" stroke="black" stroke-width="3.48"/>
<path d="M207.456 234.884L180.238 229.755L157.392 265.757" stroke="black" stroke-width="3.4"/>
<path d="M207.456 234.884L180.238 229.755L157.392 265.757" stroke="black" stroke-width="3.4"/>
<line x1="402.999" y1="445" x2="402.999" y2="270.938" stroke="black" stroke-width="3.4"/>
<line x1="206.097" y1="333.947" x2="206.097" y2="202.416" stroke="black" stroke-width="3.4"/>
<line x1="206.097" y1="333.952" x2="205.357" y2="103.97" stroke="black" stroke-width="3.4"/>
<line x1="254.14" y1="289.053" x2="254.14" y2="202.416" stroke="black" stroke-width="3.4"/>
<line x1="254.14" y1="289.053" x2="254.14" y2="114.204" stroke="black" stroke-width="3.4"/>
<line x1="303.761" y1="289.053" x2="303.761" y2="208.717" stroke="black" stroke-width="3.4"/>
<line x1="353.378" y1="289.053" x2="353.378" y2="143.345" stroke="black" stroke-width="3.4"/>
<line x1="403.001" y1="271.018" x2="396.7" y2="137.912" stroke="black" stroke-width="3.4"/>
<line x1="205.43" y1="439.362" x2="404.695" y2="439.362" stroke="black" stroke-width="3.4"/>
<line x1="205.43" y1="439.362" x2="404.695" y2="439.362" stroke="black" stroke-width="3.4"/>
<line x1="145.452" y1="339.363" x2="206.885" y2="440.177" stroke="black" stroke-width="3.4"/>
<line x1="145.452" y1="339.363" x2="206.885" y2="440.177" stroke="black" stroke-width="3.4"/>
<line y1="-1.7" x2="61.385" y2="-1.7" transform="matrix(0.125377 -0.992109 -0.992109 -0.125377 146.363 331.839)" stroke="black" stroke-width="3.4"/>
<line y1="-1.7" x2="61.385" y2="-1.7" transform="matrix(0.125377 -0.992109 -0.992109 -0.125377 146.363 331.839)" stroke="black" stroke-width="3.4"/>
<line x1="205.591" y1="322.34" x2="187.635" y2="297.103" stroke="black" stroke-width="3.4"/>
<line x1="205.591" y1="322.34" x2="187.635" y2="297.103" stroke="black" stroke-width="3.4"/>
<line x1="244.813" y1="90.7" x2="214.096" y2="90.7" stroke="black" stroke-width="3.4"/>
<line x1="293.648" y1="194.665" x2="262.932" y2="194.665" stroke="black" stroke-width="3.4"/>
<line x1="293.648" y1="194.665" x2="262.932" y2="194.665" stroke="black" stroke-width="3.4"/>
<line x1="342.477" y1="194.665" x2="311.76" y2="194.665" stroke="black" stroke-width="3.4"/>
<line x1="342.477" y1="194.665" x2="311.76" y2="194.665" stroke="black" stroke-width="3.4"/>
<line x1="385.266" y1="130.868" x2="354.293" y2="130.868" stroke="black" stroke-width="3.4"/>
</svg>
