<svg width="533" height="558" viewBox="0 0 533 558" fill="none" xmlns="http://www.w3.org/2000/svg">
<path d="M44.2842 146.715V79.7178H57.855V97.8598H106.996V79.7178H120.566V146.715H108.138L105.424 143.572H59.2835L56.5694 146.715H44.2842ZM57.855 131.573H106.996V109.859H57.855V131.573Z" fill="#D1D1D1"/>
<rect x="1.74" y="26.74" width="529.52" height="529.52" stroke="black" stroke-width="3.48"/>
<line x1="372.827" y1="341.126" x2="372.827" y2="173.936" stroke="black" stroke-width="3.33047"/>
<line y1="-1.66523" x2="107.241" y2="-1.66523" transform="matrix(-4.50689e-08 -1 -1 4.50689e-08 374.316 456.851)" stroke="black" stroke-width="3.33047"/>
<line x1="205.971" y1="452.031" x2="374.492" y2="452.031" stroke="black" stroke-width="3.33047"/>
<line x1="173.567" y1="358.546" x2="208.87" y2="456.462" stroke="black" stroke-width="3.33047"/>
<line x1="173.004" y1="349.675" x2="179.665" y2="249.095" stroke="black" stroke-width="3.33047"/>
<line x1="248.267" y1="125.978" x2="248.267" y2="263.859" stroke="black" stroke-width="3.33047"/>
<line x1="290.898" y1="125.978" x2="290.898" y2="263.859" stroke="black" stroke-width="3.33047"/>
<line x1="332.196" y1="136.635" x2="332.196" y2="274.517" stroke="black" stroke-width="3.33047"/>
<line x1="208.966" y1="145.973" x2="207.624" y2="329.814" stroke="black" stroke-width="3.33047"/>
<line y1="-1.66523" x2="19.3167" y2="-1.66523" transform="matrix(-1 0.000190505 0.000190505 1 319.873 108.659)" stroke="black" stroke-width="3.33047"/>
<line y1="-1.66523" x2="19.3167" y2="-1.66523" transform="matrix(-1 0.000190505 0.000190505 1 359.838 145.96)" stroke="black" stroke-width="3.33047"/>
<line x1="277.242" y1="101.665" x2="253.929" y2="101.665" stroke="black" stroke-width="3.33047"/>
<line x1="234.613" y1="120.316" x2="211.3" y2="120.316" stroke="black" stroke-width="3.33047"/>
<line x1="209.301" y1="230.887" x2="185.987" y2="230.887" stroke="black" stroke-width="3.33047"/>
<line y1="-1.66523" x2="22.9465" y2="-1.66523" transform="matrix(-0.377365 -0.926064 -0.926064 0.377365 334.527 133.307)" stroke="black" stroke-width="3.33047"/>
<line y1="-1.66523" x2="22.9465" y2="-1.66523" transform="matrix(-0.377365 -0.926064 -0.926064 0.377365 374.492 170.609)" stroke="black" stroke-width="3.33047"/>
<line y1="-1.66523" x2="22.9465" y2="-1.66523" transform="matrix(-0.377365 -0.926064 -0.926064 0.377365 289.232 124.58)" stroke="black" stroke-width="3.33047"/>
<line y1="-1.66523" x2="22.9465" y2="-1.66523" transform="matrix(-0.377365 -0.926064 -0.926064 0.377365 246.602 143.231)" stroke="black" stroke-width="3.33047"/>
<line y1="-1.66523" x2="24.9674" y2="-1.66523" transform="matrix(0.160071 -0.987105 -0.987105 -0.160071 290.566 136.64)" stroke="black" stroke-width="3.33047"/>
<line y1="-1.66523" x2="24.9674" y2="-1.66523" transform="matrix(0.160071 -0.987105 -0.987105 -0.160071 330.531 173.942)" stroke="black" stroke-width="3.33047"/>
<line y1="-1.66523" x2="24.9674" y2="-1.66523" transform="matrix(0.160071 -0.987105 -0.987105 -0.160071 249.934 124.646)" stroke="black" stroke-width="3.33047"/>
<line y1="-1.66523" x2="24.9674" y2="-1.66523" transform="matrix(0.160071 -0.987105 -0.987105 -0.160071 207.301 143.296)" stroke="black" stroke-width="3.33047"/>
</svg>
