<svg width="703" height="441" viewBox="0 0 703 441" fill="none" xmlns="http://www.w3.org/2000/svg">
<rect x="2.5" y="2.5" width="698" height="436" stroke="black" stroke-width="5"/>
<mask id="path-2-outside-1_425_11336" maskUnits="userSpaceOnUse" x="135" y="75" width="449" height="291" fill="black">
<rect fill="white" x="135" y="75" width="449" height="291"/>
<path d="M194.8 191.4H154V138.6H194.8V143.4H158.8V186.6H194.8V191.4ZM136 253.2V248.4H172V212.4H176.8V248.4H212.8V253.2H136ZM154 364.2V321.6H190V288.6H154V283.8H194.8V326.4H158.8V359.4H194.8V364.2H154ZM242.934 165C242.934 150.3 254.634 138.6 269.334 138.6C284.034 138.6 295.734 150.3 295.734 165C295.734 179.7 284.034 191.4 269.334 191.4C254.634 191.4 242.934 179.7 242.934 165ZM247.734 165C247.734 177 257.334 186.6 269.334 186.6C281.334 186.6 290.934 177 290.934 165C290.934 153 281.334 143.4 269.334 143.4C257.334 143.4 247.734 153 247.734 165ZM325.134 253.8V76.2H329.934V162.6H365.934V167.4H329.934V253.8H325.134ZM377.922 138.6H418.722V191.4H413.922V143.4H377.922V138.6ZM449.922 253.8V76.2H454.722V162.6H490.722V167.4H454.722V253.8H449.922ZM502.727 138.6H543.527V191.4H538.727V143.4H502.727V138.6ZM577.727 253.8V76.2H582.527V253.8H577.727Z"/>
</mask>
<path d="M194.8 191.4H154V138.6H194.8V143.4H158.8V186.6H194.8V191.4ZM136 253.2V248.4H172V212.4H176.8V248.4H212.8V253.2H136ZM154 364.2V321.6H190V288.6H154V283.8H194.8V326.4H158.8V359.4H194.8V364.2H154ZM242.934 165C242.934 150.3 254.634 138.6 269.334 138.6C284.034 138.6 295.734 150.3 295.734 165C295.734 179.7 284.034 191.4 269.334 191.4C254.634 191.4 242.934 179.7 242.934 165ZM247.734 165C247.734 177 257.334 186.6 269.334 186.6C281.334 186.6 290.934 177 290.934 165C290.934 153 281.334 143.4 269.334 143.4C257.334 143.4 247.734 153 247.734 165ZM325.134 253.8V76.2H329.934V162.6H365.934V167.4H329.934V253.8H325.134ZM377.922 138.6H418.722V191.4H413.922V143.4H377.922V138.6ZM449.922 253.8V76.2H454.722V162.6H490.722V167.4H454.722V253.8H449.922ZM502.727 138.6H543.527V191.4H538.727V143.4H502.727V138.6ZM577.727 253.8V76.2H582.527V253.8H577.727Z" fill="black"/>
<path d="M194.8 191.4V192.4H195.8V191.4H194.8ZM154 191.4H153V192.4H154V191.4ZM154 138.6V137.6H153V138.6H154ZM194.8 138.6H195.8V137.6H194.8V138.6ZM194.8 143.4V144.4H195.8V143.4H194.8ZM158.8 143.4V142.4H157.8V143.4H158.8ZM158.8 186.6H157.8V187.6H158.8V186.6ZM194.8 186.6H195.8V185.6H194.8V186.6ZM136 253.2H135V254.2H136V253.2ZM136 248.4V247.4H135V248.4H136ZM172 248.4V249.4H173V248.4H172ZM172 212.4V211.4H171V212.4H172ZM176.8 212.4H177.8V211.4H176.8V212.4ZM176.8 248.4H175.8V249.4H176.8V248.4ZM212.8 248.4H213.8V247.4H212.8V248.4ZM212.8 253.2V254.2H213.8V253.2H212.8ZM154 364.2H153V365.2H154V364.2ZM154 321.6V320.6H153V321.6H154ZM190 321.6V322.6H191V321.6H190ZM190 288.6H191V287.6H190V288.6ZM154 288.6H153V289.6H154V288.6ZM154 283.8V282.8H153V283.8H154ZM194.8 283.8H195.8V282.8H194.8V283.8ZM194.8 326.4V327.4H195.8V326.4H194.8ZM158.8 326.4V325.4H157.8V326.4H158.8ZM158.8 359.4H157.8V360.4H158.8V359.4ZM194.8 359.4H195.8V358.4H194.8V359.4ZM194.8 364.2V365.2H195.8V364.2H194.8ZM194.8 191.4V190.4H154V191.4V192.4H194.8V191.4ZM154 191.4H155V138.6H154H153V191.4H154ZM154 138.6V139.6H194.8V138.6V137.6H154V138.6ZM194.8 138.6H193.8V143.4H194.8H195.8V138.6H194.8ZM194.8 143.4V142.4H158.8V143.4V144.4H194.8V143.4ZM158.8 143.4H157.8V186.6H158.8H159.8V143.4H158.8ZM158.8 186.6V187.6H194.8V186.6V185.6H158.8V186.6ZM194.8 186.6H193.8V191.4H194.8H195.8V186.6H194.8ZM136 253.2H137V248.4H136H135V253.2H136ZM136 248.4V249.4H172V248.4V247.4H136V248.4ZM172 248.4H173V212.4H172H171V248.4H172ZM172 212.4V213.4H176.8V212.4V211.4H172V212.4ZM176.8 212.4H175.8V248.4H176.8H177.8V212.4H176.8ZM176.8 248.4V249.4H212.8V248.4V247.4H176.8V248.4ZM212.8 248.4H211.8V253.2H212.8H213.8V248.4H212.8ZM212.8 253.2V252.2H136V253.2V254.2H212.8V253.2ZM154 364.2H155V321.6H154H153V364.2H154ZM154 321.6V322.6H190V321.6V320.6H154V321.6ZM190 321.6H191V288.6H190H189V321.6H190ZM190 288.6V287.6H154V288.6V289.6H190V288.6ZM154 288.6H155V283.8H154H153V288.6H154ZM154 283.8V284.8H194.8V283.8V282.8H154V283.8ZM194.8 283.8H193.8V326.4H194.8H195.8V283.8H194.8ZM194.8 326.4V325.4H158.8V326.4V327.4H194.8V326.4ZM158.8 326.4H157.8V359.4H158.8H159.8V326.4H158.8ZM158.8 359.4V360.4H194.8V359.4V358.4H158.8V359.4ZM194.8 359.4H193.8V364.2H194.8H195.8V359.4H194.8ZM194.8 364.2V363.2H154V364.2V365.2H194.8V364.2ZM325.134 253.8H324.134V254.8H325.134V253.8ZM325.134 76.2V75.2H324.134V76.2H325.134ZM329.934 76.2H330.934V75.2H329.934V76.2ZM329.934 162.6H328.934V163.6H329.934V162.6ZM365.934 162.6H366.934V161.6H365.934V162.6ZM365.934 167.4V168.4H366.934V167.4H365.934ZM329.934 167.4V166.4H328.934V167.4H329.934ZM329.934 253.8V254.8H330.934V253.8H329.934ZM242.934 165H243.934C243.934 150.852 255.186 139.6 269.334 139.6V138.6V137.6C254.081 137.6 241.934 149.748 241.934 165H242.934ZM269.334 138.6V139.6C283.481 139.6 294.734 150.852 294.734 165H295.734H296.734C296.734 149.748 284.586 137.6 269.334 137.6V138.6ZM295.734 165H294.734C294.734 179.148 283.481 190.4 269.334 190.4V191.4V192.4C284.586 192.4 296.734 180.252 296.734 165H295.734ZM269.334 191.4V190.4C255.186 190.4 243.934 179.148 243.934 165H242.934H241.934C241.934 180.252 254.081 192.4 269.334 192.4V191.4ZM247.734 165H246.734C246.734 177.552 256.781 187.6 269.334 187.6V186.6V185.6C257.886 185.6 248.734 176.448 248.734 165H247.734ZM269.334 186.6V187.6C281.886 187.6 291.934 177.552 291.934 165H290.934H289.934C289.934 176.448 280.781 185.6 269.334 185.6V186.6ZM290.934 165H291.934C291.934 152.448 281.886 142.4 269.334 142.4V143.4V144.4C280.781 144.4 289.934 153.552 289.934 165H290.934ZM269.334 143.4V142.4C256.781 142.4 246.734 152.448 246.734 165H247.734H248.734C248.734 153.552 257.886 144.4 269.334 144.4V143.4ZM325.134 253.8H326.134V76.2H325.134H324.134V253.8H325.134ZM325.134 76.2V77.2H329.934V76.2V75.2H325.134V76.2ZM329.934 76.2H328.934V162.6H329.934H330.934V76.2H329.934ZM329.934 162.6V163.6H365.934V162.6V161.6H329.934V162.6ZM365.934 162.6H364.934V167.4H365.934H366.934V162.6H365.934ZM365.934 167.4V166.4H329.934V167.4V168.4H365.934V167.4ZM329.934 167.4H328.934V253.8H329.934H330.934V167.4H329.934ZM329.934 253.8V252.8H325.134V253.8V254.8H329.934V253.8ZM377.922 138.6V137.6H376.922V138.6H377.922ZM418.722 138.6H419.722V137.6H418.722V138.6ZM418.722 191.4V192.4H419.722V191.4H418.722ZM413.922 191.4H412.922V192.4H413.922V191.4ZM413.922 143.4H414.922V142.4H413.922V143.4ZM377.922 143.4H376.922V144.4H377.922V143.4ZM449.922 253.8H448.922V254.8H449.922V253.8ZM449.922 76.2V75.2H448.922V76.2H449.922ZM454.722 76.2H455.722V75.2H454.722V76.2ZM454.722 162.6H453.722V163.6H454.722V162.6ZM490.722 162.6H491.722V161.6H490.722V162.6ZM490.722 167.4V168.4H491.722V167.4H490.722ZM454.722 167.4V166.4H453.722V167.4H454.722ZM454.722 253.8V254.8H455.722V253.8H454.722ZM377.922 138.6V139.6H418.722V138.6V137.6H377.922V138.6ZM418.722 138.6H417.722V191.4H418.722H419.722V138.6H418.722ZM418.722 191.4V190.4H413.922V191.4V192.4H418.722V191.4ZM413.922 191.4H414.922V143.4H413.922H412.922V191.4H413.922ZM413.922 143.4V142.4H377.922V143.4V144.4H413.922V143.4ZM377.922 143.4H378.922V138.6H377.922H376.922V143.4H377.922ZM449.922 253.8H450.922V76.2H449.922H448.922V253.8H449.922ZM449.922 76.2V77.2H454.722V76.2V75.2H449.922V76.2ZM454.722 76.2H453.722V162.6H454.722H455.722V76.2H454.722ZM454.722 162.6V163.6H490.722V162.6V161.6H454.722V162.6ZM490.722 162.6H489.722V167.4H490.722H491.722V162.6H490.722ZM490.722 167.4V166.4H454.722V167.4V168.4H490.722V167.4ZM454.722 167.4H453.722V253.8H454.722H455.722V167.4H454.722ZM454.722 253.8V252.8H449.922V253.8V254.8H454.722V253.8ZM502.727 138.6V137.6H501.727V138.6H502.727ZM543.527 138.6H544.527V137.6H543.527V138.6ZM543.527 191.4V192.4H544.527V191.4H543.527ZM538.727 191.4H537.727V192.4H538.727V191.4ZM538.727 143.4H539.727V142.4H538.727V143.4ZM502.727 143.4H501.727V144.4H502.727V143.4ZM577.727 253.8H576.727V254.8H577.727V253.8ZM577.727 76.2V75.2H576.727V76.2H577.727ZM582.527 76.2H583.527V75.2H582.527V76.2ZM582.527 253.8V254.8H583.527V253.8H582.527ZM502.727 138.6V139.6H543.527V138.6V137.6H502.727V138.6ZM543.527 138.6H542.527V191.4H543.527H544.527V138.6H543.527ZM543.527 191.4V190.4H538.727V191.4V192.4H543.527V191.4ZM538.727 191.4H539.727V143.4H538.727H537.727V191.4H538.727ZM538.727 143.4V142.4H502.727V143.4V144.4H538.727V143.4ZM502.727 143.4H503.727V138.6H502.727H501.727V143.4H502.727ZM577.727 253.8H578.727V76.2H577.727H576.727V253.8H577.727ZM577.727 76.2V77.2H582.527V76.2V75.2H577.727V76.2ZM582.527 76.2H581.527V253.8H582.527H583.527V76.2H582.527ZM582.527 253.8V252.8H577.727V253.8V254.8H582.527V253.8Z" fill="black" mask="url(#path-2-outside-1_425_11336)"/>
</svg>
