<svg width="533" height="558" viewBox="0 0 533 558" fill="none" xmlns="http://www.w3.org/2000/svg">
<path d="M36.5703 139.144C61.712 136.287 75.7114 121.573 75.7114 109.002V106.574H40.4272V95.1457H124.566V106.574H89.2822V108.002C89.2822 121.144 102.853 134.858 128.28 138.287C125.995 141.429 122.995 145.715 120.709 149.286C103.567 144.858 90.7107 137.858 83.2824 126.716C74.9971 138.858 59.7121 147.286 45.2842 149.715C42.7129 146.429 39.4273 142.572 36.5703 139.144ZM56.1408 85.8604V74.718H108.853V85.8604H56.1408Z" fill="#D1D1D1"/>
<rect x="1.74" y="26.74" width="529.52" height="529.52" stroke="black" stroke-width="3.48"/>
<path d="M390.07 273.859L399.481 254.702L419.646 254.702" stroke="black" stroke-width="3.36083"/>
<line x1="423.677" y1="253.358" x2="423.676" y2="323.935" stroke="black" stroke-width="3.36083"/>
<line x1="423.677" y1="136.401" x2="423.676" y2="244.62" stroke="black" stroke-width="3.36083"/>
<line x1="321.848" y1="138.079" x2="422" y2="138.079" stroke="black" stroke-width="3.36083"/>
<line x1="322.493" y1="138.015" x2="255.87" y2="157.331" stroke="black" stroke-width="3.36083"/>
<line x1="234.587" y1="425.367" x2="253.817" y2="284.546" stroke="black" stroke-width="3.36083"/>
<line y1="-1.68041" x2="98.8905" y2="-1.68041" transform="matrix(0.152387 -0.988321 -0.988321 -0.152387 277.383 420.753)" stroke="black" stroke-width="3.36083"/>
<line x1="347.724" y1="435.521" x2="347.495" y2="323.266" stroke="black" stroke-width="3.36083"/>
<line x1="387.154" y1="418.144" x2="386.961" y2="323.416" stroke="black" stroke-width="3.36083"/>
<line y1="-1.68041" x2="19.4928" y2="-1.68041" transform="matrix(0.993735 0.111765 0.111765 -0.993735 248.463 449.291)" stroke="black" stroke-width="3.36083"/>
<line x1="321.846" y1="461.396" x2="345.371" y2="461.396" stroke="black" stroke-width="3.36083"/>
<line x1="365.307" y1="439.884" x2="385.472" y2="439.884" stroke="black" stroke-width="3.36083"/>
<line y1="-1.68041" x2="18.8206" y2="-1.68041" transform="matrix(1 8.74228e-08 8.74228e-08 -1 387.045 338.169)" stroke="black" stroke-width="3.36083"/>
<line y1="-1.68041" x2="17.7457" y2="-1.68041" transform="matrix(0.606043 -0.795432 -0.795432 -0.606043 407.211 338.169)" stroke="black" stroke-width="3.36083"/>
<line x1="387.154" y1="317.214" x2="387.154" y2="280.244" stroke="black" stroke-width="3.36083"/>
<line x1="302.869" y1="434.014" x2="301.524" y2="323.107" stroke="black" stroke-width="3.36083"/>
<line y1="-1.68041" x2="23.1557" y2="-1.68041" transform="matrix(0.271316 0.96249 0.96249 -0.271316 236.555 422.919)" stroke="black" stroke-width="3.36083"/>
<line y1="-1.68041" x2="23.1557" y2="-1.68041" transform="matrix(0.377365 0.926065 0.926065 -0.377365 309.746 438.271)" stroke="black" stroke-width="3.36083"/>
<line y1="-1.68041" x2="19.5405" y2="-1.68041" transform="matrix(0.377365 0.926065 0.926065 -0.377365 355.367 420.465)" stroke="black" stroke-width="3.36083"/>
<line y1="-1.68041" x2="25.195" y2="-1.68041" transform="matrix(-0.269576 0.962979 0.962979 0.269576 281.014 424.544)" stroke="black" stroke-width="3.36083"/>
<line y1="-1.68041" x2="25.195" y2="-1.68041" transform="matrix(-0.160071 0.987105 0.987105 0.160071 349.404 438.206)" stroke="black" stroke-width="3.36083"/>
<line y1="-1.68041" x2="21.2614" y2="-1.68041" transform="matrix(-0.160071 0.987105 0.987105 0.160071 388.834 420.41)" stroke="black" stroke-width="3.36083"/>
<path d="M331.293 174.046C333.186 190.661 326.617 229.154 285.195 250.204" stroke="black" stroke-width="3.36083"/>
<path d="M124 260.08L124 228.824L168.699 211.011" stroke="black" stroke-width="3.36083"/>
<path d="M253.056 278.9L248.351 237.226L203.652 244.62" stroke="black" stroke-width="3.36083"/>
<line x1="233.781" y1="172.107" x2="176.648" y2="207.801" stroke="black" stroke-width="3.36083"/>
<line x1="201.269" y1="245.5" x2="159.595" y2="262.726" stroke="black" stroke-width="3.36083"/>
<line y1="-1.68041" x2="34.9526" y2="-1.68041" transform="matrix(0.999968 0.00805469 0.00805469 -0.999968 125.346 260.079)" stroke="black" stroke-width="3.36083"/>
</svg>
