<svg width="533" height="558" viewBox="0 0 533 558" fill="none" xmlns="http://www.w3.org/2000/svg">
<path d="M44.1414 147V80.1463H119.138V92.2886H57.7122V134.572C67.426 134.43 112.138 133.572 121.566 133.144V145.429C111.71 145.858 58.855 146.858 44.1414 147Z" fill="#D1D1D1"/>
<rect x="1.74" y="26.74" width="529.52" height="529.52" stroke="black" stroke-width="3.48"/>
<path d="M317.543 387.588L289.161 371.423L296.105 321.621" stroke="black" stroke-width="3.88857"/>
<path d="M302.931 378.184L325.096 389.072L325.096 412.404" stroke="black" stroke-width="3.88857"/>
<line x1="326.65" y1="417.07" x2="244.99" y2="417.07" stroke="black" stroke-width="3.88857"/>
<line x1="461.973" y1="417.07" x2="336.761" y2="417.07" stroke="black" stroke-width="3.88857"/>
<line x1="460.024" y1="307.438" x2="460.024" y2="413.207" stroke="black" stroke-width="3.88857"/>
<line x1="456.18" y1="299.942" x2="442.178" y2="232.395" stroke="black" stroke-width="3.88857"/>
<path d="M382.643 291.469L359.541 282.936L344.392 318.244" stroke="black" stroke-width="3.88857"/>
<line x1="119.775" y1="230.419" x2="444.082" y2="230.419" stroke="black" stroke-width="3.88857"/>
<line y1="-1.94428" x2="114.419" y2="-1.94428" transform="matrix(0.999168 0.0407824 0.0407824 -0.999168 130.67 279.026)" stroke="black" stroke-width="3.88857"/>
<line x1="115.887" y1="329.188" x2="197.547" y2="329.188" stroke="black" stroke-width="3.88857"/>
<line x1="314.538" y1="242.933" x2="297.432" y2="313.273" stroke="black" stroke-width="3.88857"/>
<line y1="-1.94428" x2="22.5537" y2="-1.94428" transform="matrix(0.000190549 1 1 -0.000190549 94.1113 249.473)" stroke="black" stroke-width="3.88857"/>
<line y1="-1.94428" x2="22.5537" y2="-1.94428" transform="matrix(0.000190549 1 1 -0.000190549 84 297)" stroke="black" stroke-width="3.88857"/>
<line x1="342.575" y1="325.158" x2="338.541" y2="356.662" stroke="black" stroke-width="3.88857"/>
<line y1="-1.94428" x2="21.776" y2="-1.94428" transform="matrix(4.37114e-08 1 1 -4.37114e-08 228.521 374.684)" stroke="black" stroke-width="3.88857"/>
<line y1="-1.94428" x2="20.5322" y2="-1.94428" transform="matrix(0.795432 0.606043 0.606043 -0.795432 228.521 398.016)" stroke="black" stroke-width="3.88857"/>
<line x1="199.489" y1="335.799" x2="199.489" y2="352.131" stroke="black" stroke-width="3.88857"/>
<line y1="-1.94428" x2="21.9201" y2="-1.94428" transform="matrix(0.745076 0.666979 0.666979 -0.745076 197.412 358.352)" stroke="black" stroke-width="3.88857"/>
<line x1="216.211" y1="375.073" x2="295.538" y2="375.073" stroke="black" stroke-width="3.88857"/>
<line x1="197.545" y1="333.855" x2="290.093" y2="333.855" stroke="black" stroke-width="3.88857"/>
<line y1="-1.94428" x2="36.526" y2="-1.94428" transform="matrix(0.501901 -0.864925 -0.864925 -0.501901 318.236 386.368)" stroke="black" stroke-width="3.88857"/>
<line y1="-1.94428" x2="26.7917" y2="-1.94428" transform="matrix(-0.926064 0.377365 0.377365 0.926064 122.889 232.363)" stroke="black" stroke-width="3.88857"/>
<line x1="119.905" y1="280.721" x2="88.7932" y2="297.079" stroke="black" stroke-width="3.88857"/>
<line y1="-1.94428" x2="29.1513" y2="-1.94428" transform="matrix(-0.987105 -0.160071 -0.160071 0.987105 126.779 283.692)" stroke="black" stroke-width="3.88857"/>
<line y1="-1.94428" x2="29.1513" y2="-1.94428" transform="matrix(-0.987105 -0.160071 -0.160071 0.987105 112.775 331.133)" stroke="black" stroke-width="3.88857"/>
<path d="M443.149 374.92C424.192 371.048 384.199 350.026 375.887 296.913" stroke="black" stroke-width="3.88857"/>
</svg>
