<svg width="533" height="558" viewBox="0 0 533 558" fill="none" xmlns="http://www.w3.org/2000/svg">
<path d="M78.2825 168.142H65.1402V114.002H41.1413V101.86H65.1402V53.4333H78.2825V168.142ZM92.5676 177.713V50.1477H105.996V177.713H92.5676Z" fill="#D1D1D1"/>
<path d="M2 88.8818V294.496V500.111" stroke="black" stroke-width="3.48"/>
<path d="M487 556L266.5 555.526L46 555.051" stroke="black" stroke-width="3.48"/>
<path d="M531 88.8818V294.496V500.111" stroke="black" stroke-width="3.48"/>
<path d="M487 27L266.5 27.5L46 28" stroke="black" stroke-width="3.48"/>
<path d="M455.04 410.44L197.73 380.46" stroke="black" stroke-width="3.23"/>
<path d="M249.491 222.33L122.941 209.34" stroke="black" stroke-width="3.23"/>
<path d="M213.11 266.33L115.5 253.35" stroke="black" stroke-width="3.23"/>
<path d="M270.16 353.42L189.93 349.08" stroke="black" stroke-width="3.23"/>
<path d="M454.73 227.17V410.28" stroke="black" stroke-width="3.23"/>
<path d="M302.41 200L450.55 225.64" stroke="black" stroke-width="3.23"/>
<path d="M99 248.09V222.04" stroke="black" stroke-width="3.23"/>
<path d="M188.328 380.3V354.25" stroke="black" stroke-width="3.23"/>
<path d="M208.93 270.01V290.85" stroke="black" stroke-width="3.23"/>
<path d="M210.32 292.74L227.69 306.73" stroke="black" stroke-width="3.23"/>
<path d="M233.691 314.18H337.051" stroke="black" stroke-width="3.23"/>
<path d="M215.539 305.74V326.58" stroke="black" stroke-width="3.23"/>
<path d="M216.93 328.47L218.16 338.53" stroke="black" stroke-width="3.23"/>
<path d="M224.16 345.98L343.66 349.91" stroke="black" stroke-width="3.23"/>
<path d="M226.459 267.04L221.109 241.62L258.439 220.25" stroke="black" stroke-width="3.23"/>
<path d="M330.459 256.17L323.009 237.86L290.719 246.84" stroke="black" stroke-width="3.23"/>
<path d="M295.551 203.29L264.781 216.77" stroke="black" stroke-width="3.23"/>
<path d="M282.57 250.09L259.16 263.83" stroke="black" stroke-width="3.23"/>
<path d="M227.98 268.33L259.6 263.18" stroke="black" stroke-width="3.23"/>
<path d="M389.518 294.61C373.028 298.39 360.768 293.12 333.828 258.13" stroke="black" stroke-width="3.23"/>
<path d="M320.93 318.6L344.5 329.02V351.35" stroke="black" stroke-width="3.23"/>
<path d="M323.828 281.38L343.878 291.8V314.88" stroke="black" stroke-width="3.23"/>
<path d="M244.441 280.97H324.651" stroke="black" stroke-width="3.23"/>
</svg>
