<svg width="533" height="558" viewBox="0 0 533 558" fill="none" xmlns="http://www.w3.org/2000/svg">
<path d="M78.2825 168.142H65.1402V114.002H41.1413V101.86H65.1402V53.4333H78.2825V168.142ZM92.5676 177.713V50.1477H105.996V177.713H92.5676Z" fill="#D1D1D1"/>
<rect x="1.74" y="26.74" width="529.52" height="529.52" stroke="black" stroke-width="3.48"/>
<line x1="454.785" y1="417.646" x2="166.206" y2="417.646" stroke="black" stroke-width="3.4"/>
<line y1="-1.7" x2="143.049" y2="-1.7" transform="matrix(-1 0 0 1 254.684 232.38)" stroke="black" stroke-width="3.4"/>
<line x1="218.301" y1="279.558" x2="104.192" y2="279.558" stroke="black" stroke-width="3.4"/>
<line x1="275.352" y1="376.303" x2="157.109" y2="376.303" stroke="black" stroke-width="3.4"/>
<line x1="453.18" y1="207.574" x2="453.18" y2="410.985" stroke="black" stroke-width="3.4"/>
<line x1="307.602" y1="205.874" x2="448.997" y2="205.874" stroke="black" stroke-width="3.4"/>
<line y1="-1.7" x2="28.9406" y2="-1.7" transform="matrix(1.2413e-07 -1 -1 -1.42002e-07 86 273.724)" stroke="black" stroke-width="3.4"/>
<line y1="-1.7" x2="28.9406" y2="-1.7" transform="matrix(1.31134e-07 -1 -1 -1.31134e-07 153.805 410.985)" stroke="black" stroke-width="3.4"/>
<line y1="-1.7" x2="23.1525" y2="-1.7" transform="matrix(4.37114e-08 1 1 -4.37114e-08 215.82 283.646)" stroke="black" stroke-width="3.4"/>
<line y1="-1.7" x2="23.3057" y2="-1.7" transform="matrix(0.745076 0.666979 0.666979 -0.745076 216.648 307.626)" stroke="black" stroke-width="3.4"/>
<line y1="-1.7" x2="103.359" y2="-1.7" transform="matrix(1 0 0 -1 236.492 323.336)" stroke="black" stroke-width="3.4"/>
<line y1="-1.7" x2="23.1525" y2="-1.7" transform="matrix(4.37114e-08 1 1 -4.37114e-08 222.43 323.336)" stroke="black" stroke-width="3.4"/>
<line y1="-1.7" x2="23.3057" y2="-1.7" transform="matrix(0.745076 0.666979 0.666979 -0.745076 223.258 347.316)" stroke="black" stroke-width="3.4"/>
<line y1="-1.7" x2="103.359" y2="-1.7" transform="matrix(1 0 0 -1 243.102 363.026)" stroke="black" stroke-width="3.4"/>
<path d="M231.654 280.341L226.308 252.107L263.639 228.372" stroke="black" stroke-width="3.4"/>
<path d="M335.65 268.266L328.2 247.921L295.905 257.896" stroke="black" stroke-width="3.4"/>
<line x1="300.744" y1="209.529" x2="269.967" y2="224.506" stroke="black" stroke-width="3.4"/>
<line x1="287.756" y1="261.52" x2="264.345" y2="276.775" stroke="black" stroke-width="3.4"/>
<line y1="-1.7" x2="32.1338" y2="-1.7" transform="matrix(0.98401 -0.178112 -0.178112 -0.98401 232.867 280.111)" stroke="black" stroke-width="3.4"/>
<path d="M422.189 306.423C405.694 310.625 365.968 309.313 339.022 270.445" stroke="black" stroke-width="3.4"/>
<path d="M323.731 329.951L347.297 341.528L347.297 366.334" stroke="black" stroke-width="3.4"/>
<path d="M326.625 288.608L346.676 300.184L346.676 325.817" stroke="black" stroke-width="3.4"/>
<line x1="247.238" y1="288.148" x2="327.445" y2="288.148" stroke="black" stroke-width="3.4"/>
</svg>
