<svg width="533" height="558" viewBox="0 0 533 558" fill="none" xmlns="http://www.w3.org/2000/svg">
<path d="M2 88.8821V294.496V500.111" stroke="black" stroke-width="3.48"/>
<path d="M487 556L266.5 555.526L46 555.051" stroke="black" stroke-width="3.48"/>
<path d="M531 88.8821V294.496V500.111" stroke="black" stroke-width="3.48"/>
<path d="M487 27L266.5 27.5L46 28" stroke="black" stroke-width="3.48"/>
<path d="M50.9982 105.574H81.1397V50.1477H94.7105V177.713H81.1397V117.716H50.9982V105.574Z" fill="#D1D1D1"/>
<line x1="311.544" y1="310.288" x2="323.544" y2="336.288" stroke="black" stroke-width="3.4"/>
<path d="M293.512 379.19L315.862 389.91V412.88" stroke="black" stroke-width="3.36"/>
<path d="M296.262 340.91L315.272 351.63V375.36" stroke="black" stroke-width="3.36"/>
<path d="M317.432 417.21L235.422 406.82" stroke="black" stroke-width="3.36"/>
<path d="M459.881 431.66L327.621 417.21" stroke="black" stroke-width="3.36"/>
<path d="M463.031 251.61V430" stroke="black" stroke-width="3.36"/>
<path d="M123.91 214.97L264.98 233" stroke="black" stroke-width="3.36"/>
<path d="M270.391 233.98L463.031 249.95" stroke="black" stroke-width="3.36"/>
<path d="M134.828 264.22L235.028 287.83" stroke="black" stroke-width="3.36"/>
<path d="M217.121 365.34V386.78" stroke="black" stroke-width="3.36"/>
<path d="M217.789 389.63L234.249 401.88" stroke="black" stroke-width="3.36"/>
<path d="M184.969 327.06V348.5" stroke="black" stroke-width="3.36"/>
<path d="M186.32 350.5L202.79 364.9" stroke="black" stroke-width="3.36"/>
<path d="M206.41 365.98L309.58 376.38" stroke="black" stroke-width="3.36"/>
<path d="M190.59 289.55V310.99" stroke="black" stroke-width="3.36"/>
<path d="M191.949 312.99L208.409 327.38" stroke="black" stroke-width="3.36"/>
<path d="M211.898 327.96L297.588 333.16" stroke="black" stroke-width="3.36"/>
<path d="M197.699 286.1L251.009 289.9" stroke="black" stroke-width="3.36"/>
<path d="M123.01 213L98 222.95" stroke="black" stroke-width="3.36"/>
<path d="M123.011 259.32L98.3008 247.1" stroke="black" stroke-width="3.36"/>
<path d="M254.301 310.97L248.441 295.32L283.441 272.74" stroke="black" stroke-width="3.36"/>
<path d="M350.049 309.39L342.649 290.68L312.199 300.44" stroke="black" stroke-width="3.36"/>
<path d="M342.901 241.7L289.441 269.13" stroke="black" stroke-width="3.36"/>
<path d="M306.911 303.11L284.961 317.62" stroke="black" stroke-width="3.36"/>
<path d="M255.461 322.77L285.341 316.96" stroke="black" stroke-width="3.36"/>
<path d="M438.96 364.41C423.39 368.57 379.68 353.56 353.48 318.01" stroke="black" stroke-width="3.36"/>
</svg>
