<svg width="533" height="558" viewBox="0 0 533 558" fill="none" xmlns="http://www.w3.org/2000/svg">
<path d="M50.9982 105.574H81.1397V50.1477H94.7105V177.713H81.1397V117.716H50.9982V105.574Z" fill="#D1D1D1"/>
<rect x="1.74" y="26.74" width="529.52" height="529.52" stroke="black" stroke-width="3.48"/>
<path d="M304.525 380.014L326.871 390.991L326.871 414.513" stroke="black" stroke-width="3.4"/>
<path d="M307.273 340.81L326.285 351.787L326.285 376.093" stroke="black" stroke-width="3.4"/>
<line x1="328.441" y1="418.957" x2="246.114" y2="418.957" stroke="black" stroke-width="3.4"/>
<line x1="464.871" y1="418.957" x2="338.635" y2="418.957" stroke="black" stroke-width="3.4"/>
<line x1="462.645" y1="234.568" x2="462.645" y2="417.257" stroke="black" stroke-width="3.4"/>
<line x1="119.872" y1="231.3" x2="275.991" y2="230.3" stroke="black" stroke-width="3.4"/>
<line x1="281.409" y1="231.3" x2="468.015" y2="232.868" stroke="black" stroke-width="3.4"/>
<line y1="-1.7" x2="115.355" y2="-1.7" transform="matrix(0.999168 0.0407824 0.0407824 -0.999168 130.859 280.044)" stroke="black" stroke-width="3.4"/>
<line y1="-1.7" x2="22.7381" y2="-1.7" transform="matrix(0.000190549 1 1 -0.000190549 94 250.25)" stroke="black" stroke-width="3.4"/>
<line y1="-1.7" x2="21.9541" y2="-1.7" transform="matrix(4.37114e-08 1 1 -4.37114e-08 229.512 376.485)" stroke="black" stroke-width="3.4"/>
<line y1="-1.7" x2="20.7001" y2="-1.7" transform="matrix(0.795432 0.606043 0.606043 -0.795432 229.512 400.008)" stroke="black" stroke-width="3.4"/>
<line y1="-1.7" x2="21.9541" y2="-1.7" transform="matrix(4.37114e-08 1 1 -4.37114e-08 197.363 337.282)" stroke="black" stroke-width="3.4"/>
<line y1="-1.7" x2="22.0993" y2="-1.7" transform="matrix(0.745076 0.666979 0.666979 -0.745076 198.148 360.02)" stroke="black" stroke-width="3.4"/>
<line x1="217.102" y1="377.138" x2="320.599" y2="377.138" stroke="black" stroke-width="3.4"/>
<line y1="-1.7" x2="21.9541" y2="-1.7" transform="matrix(4.37114e-08 1 1 -4.37114e-08 202.992 298.862)" stroke="black" stroke-width="3.4"/>
<line y1="-1.7" x2="22.0993" y2="-1.7" transform="matrix(0.745076 0.666979 0.666979 -0.745076 203.777 321.6)" stroke="black" stroke-width="3.4"/>
<line y1="-1.7" x2="98.0092" y2="-1.7" transform="matrix(1 0 0 -1 222.594 336.498)" stroke="black" stroke-width="3.4"/>
<line x1="206.253" y1="290.138" x2="259.564" y2="294.03" stroke="black" stroke-width="3.4"/>
<line y1="-1.7" x2="27.0108" y2="-1.7" transform="matrix(-0.926064 0.377365 0.377365 0.926064 123.016 233)" stroke="black" stroke-width="3.4"/>
<line y1="-1.7" x2="29.3897" y2="-1.7" transform="matrix(-0.987105 -0.160071 -0.160071 0.987105 126.938 284.749)" stroke="black" stroke-width="3.4"/>
<path d="M264.997 320.805L259.46 294.125L294.459 271.003" stroke="black" stroke-width="3.4"/>
<path d="M361.062 308.534L353.661 289.369L323.207 299.362" stroke="black" stroke-width="3.4"/>
<line x1="353.912" y1="239.209" x2="300.454" y2="267.3" stroke="black" stroke-width="3.4"/>
<line x1="317.922" y1="302.103" x2="295.979" y2="316.955" stroke="black" stroke-width="3.4"/>
<line y1="-1.7" x2="30.4705" y2="-1.7" transform="matrix(0.980742 -0.195307 -0.195307 -0.980742 266.145 320.567)" stroke="black" stroke-width="3.4"/>
<path d="M443.952 350.088C428.383 354.346 390.697 353.761 364.505 317.358" stroke="black" stroke-width="3.4"/>
<line x1="311.544" y1="310.288" x2="323.544" y2="336.288" stroke="black" stroke-width="3.4"/>
</svg>
