<svg width="533" height="558" viewBox="0 0 533 558" fill="none" xmlns="http://www.w3.org/2000/svg">
<path d="M104.71 147.858L105.996 93.4314H41.4272V81.2891H119.852L118.281 147.858H104.71Z" fill="#D1D1D1"/>
<path d="M123.752 267.512V235.121L170.074 216.662" stroke="black" stroke-width="3.48283"/>
<path d="M388.096 292.24L397.848 272.388H418.745" stroke="black" stroke-width="3.48283"/>
<path d="M353.27 289.802L363.021 272.911H384.615" stroke="black" stroke-width="3.48283"/>
<path d="M349.438 273.433H328.541L312.172 307.216" stroke="black" stroke-width="3.48283"/>
<line x1="422.929" y1="275.174" x2="422.929" y2="344.134" stroke="black" stroke-width="3.48283"/>
<line x1="422.929" y1="149.792" x2="422.929" y2="261.939" stroke="black" stroke-width="3.48283"/>
<line x1="317.4" y1="151.53" x2="421.189" y2="151.53" stroke="black" stroke-width="3.48283"/>
<line y1="-1.74142" x2="85.212" y2="-1.74142" transform="matrix(-0.955221 0.295895 0.295895 0.955221 317.668 153.274)" stroke="black" stroke-width="3.48283"/>
<path d="M257.491 287.016L252.615 243.829L206.293 251.491" stroke="black" stroke-width="3.48283"/>
<line x1="255.749" y1="456.263" x2="257.142" y2="290.483" stroke="black" stroke-width="3.48283"/>
<line y1="-1.74142" x2="102.481" y2="-1.74142" transform="matrix(0.0407823 -0.999168 -0.999168 -0.0407823 299.285 446.526)" stroke="black" stroke-width="3.48283"/>
<line x1="237.52" y1="176.345" x2="178.313" y2="213.335" stroke="black" stroke-width="3.48283"/>
<line y1="-1.74142" x2="20.2004" y2="-1.74142" transform="matrix(1 -0.000190592 -0.000190592 -1 272.82 479.271)" stroke="black" stroke-width="3.48283"/>
<line x1="203.825" y1="252.403" x2="160.638" y2="270.254" stroke="black" stroke-width="3.48283"/>
<line y1="-1.74142" x2="19.5039" y2="-1.74142" transform="matrix(1 -8.74227e-08 -8.74227e-08 -1 384.963 358.884)" stroke="black" stroke-width="3.48283"/>
<line y1="-1.74142" x2="18.3899" y2="-1.74142" transform="matrix(0.606043 -0.795432 -0.795432 -0.606043 405.861 358.884)" stroke="black" stroke-width="3.48283"/>
<line y1="-1.74142" x2="19.5039" y2="-1.74142" transform="matrix(1 -8.74227e-08 -8.74227e-08 -1 350.137 387.443)" stroke="black" stroke-width="3.48283"/>
<line y1="-1.74142" x2="19.6329" y2="-1.74142" transform="matrix(0.666979 -0.745076 -0.745076 -0.666979 370.336 386.747)" stroke="black" stroke-width="3.48283"/>
<line x1="385.311" y1="369.907" x2="385.311" y2="277.96" stroke="black" stroke-width="3.48283"/>
<line y1="-1.74142" x2="19.5039" y2="-1.74142" transform="matrix(1 -8.74227e-08 -8.74227e-08 -1 316.002 382.442)" stroke="black" stroke-width="3.48283"/>
<line y1="-1.74142" x2="19.6329" y2="-1.74142" transform="matrix(0.666979 -0.745076 -0.745076 -0.666979 336.201 381.745)" stroke="black" stroke-width="3.48283"/>
<line y1="-1.74142" x2="87.0708" y2="-1.74142" transform="matrix(-4.37114e-08 -1 -1 4.37114e-08 349.438 365.028)" stroke="black" stroke-width="3.48283"/>
<line y1="-1.74142" x2="36.2215" y2="-1.74142" transform="matrix(0.999968 0.00805463 0.00805463 -0.999968 125.146 267.512)" stroke="black" stroke-width="3.48283"/>
<line y1="-1.74142" x2="68.2635" y2="-1.74142" transform="matrix(-4.37114e-08 -1 -1 4.37114e-08 309.76 379.656)" stroke="black" stroke-width="3.48283"/>
<line y1="-1.74142" x2="23.9963" y2="-1.74142" transform="matrix(0.377365 0.926064 0.926064 -0.377365 257.49 456.281)" stroke="black" stroke-width="3.48283"/>
<line y1="-1.74142" x2="26.1096" y2="-1.74142" transform="matrix(-0.160071 0.987105 0.987105 0.160071 301.373 452.798)" stroke="black" stroke-width="3.48283"/>
<path d="M343.519 174.868C344.564 192.166 335.648 231.639 291.625 251.142" stroke="black" stroke-width="3.48283"/>
<path d="M2 88.8821V294.496V500.111" stroke="black" stroke-width="3.48"/>
<path d="M487 556L266.5 555.526L46 555.051" stroke="black" stroke-width="3.48"/>
<path d="M531 88.8821V294.496V500.111" stroke="black" stroke-width="3.48"/>
<path d="M487 27L266.5 27.5L46 28" stroke="black" stroke-width="3.48"/>
</svg>
