<svg width="533" height="533" viewBox="0 0 533 533" fill="none" xmlns="http://www.w3.org/2000/svg">
<path d="M80.78 70H61.25V81.52C74.21 81.25 86.45 80.98 89.33 80.71V87.91C83.66 88.27 35.42 89.26 27.77 89.26L27.23 82.06C30.29 82.06 41 81.97 52.7 81.7V70H34.07V42.64H79.61V50.02H42.62V62.62H80.78V70ZM37.04 116.44V93.94H45.59V108.97H101.39V116.44H37.04ZM91.49 103.03V38.68H100.04V103.03H91.49ZM117.68 101.05H153.77V77.65H162.32V101.05H198.32V108.7H117.68V101.05ZM118.85 71.62C140.99 70.36 153.68 60.37 153.68 46.87V43.72H162.32V47.05C162.32 59.02 174.47 70.09 197.06 71.62C195.89 73.87 194.18 77.47 193.37 79.36C177.8 78.1 163.76 69.82 158.18 61.18C152.24 70.36 140.36 77.2 123.44 79.36C122.27 77.02 120.11 73.51 118.85 71.62ZM211.28 51.82V44.26H253.67V75.58H219.74V93.85C225.23 93.76 254.57 93.13 259.7 92.68V100.24C254.48 100.78 220.28 101.5 211.19 101.59V68.11H245.12V51.82H211.28ZM271.49 119.05V38.68H280.04V119.05H271.49Z" fill="#D1D1D1"/>
<path d="M193.001 338.896L213.364 338.896L229.314 307.122" stroke="black" stroke-width="3.78261"/>
<line x1="203.97" y1="434.217" x2="203.97" y2="338.896" stroke="black" stroke-width="3.78261"/>
<line y1="-1.8913" x2="191.4" y2="-1.8913" transform="matrix(-1 8.74228e-08 8.74228e-08 1 397.262 438)" stroke="black" stroke-width="3.78261"/>
<line x1="386.292" y1="275.348" x2="386.292" y2="434.217" stroke="black" stroke-width="3.78261"/>
<line y1="-1.8913" x2="21.1826" y2="-1.8913" transform="matrix(-1 0 0 1 229.314 220.878)" stroke="black" stroke-width="3.78261"/>
<line y1="-1.8913" x2="21.0707" y2="-1.8913" transform="matrix(0.950134 0.311843 -0.342185 0.939633 384.662 88.2891)" stroke="black" stroke-width="3.78261"/>
<line y1="-1.8913" x2="21.0724" y2="-1.8913" transform="matrix(0.999452 0.0330938 0.0143188 0.999897 303.045 88.155)" stroke="black" stroke-width="3.78261"/>
<line y1="-1.8913" x2="21.3228" y2="-1.8913" transform="matrix(-0.66698 0.745076 0.745076 0.66698 207.375 221.635)" stroke="black" stroke-width="3.78261"/>
<line y1="-1.8913" x2="20.408" y2="-1.8913" transform="matrix(0.404263 0.914643 -0.929005 0.370066 405.15 95.7729)" stroke="black" stroke-width="3.78261"/>
<line y1="-1.8913" x2="20.6725" y2="-1.8913" transform="matrix(0.693994 0.719981 -0.783488 0.621407 324.867 89.563)" stroke="black" stroke-width="3.78261"/>
<line y1="-1.8913" x2="20.5758" y2="-1.8913" transform="matrix(-0.570301 0.821436 -0.847724 -0.530437 380.799 87)" stroke="black" stroke-width="3.78261"/>
<line y1="-1.8913" x2="19.2278" y2="-1.8913" transform="matrix(-0.258705 0.965956 -0.966598 -0.256296 298.975 88)" stroke="black" stroke-width="3.78261"/>
<line y1="-1.8913" x2="94.5652" y2="-1.8913" transform="matrix(-4.37114e-08 1 1 4.37114e-08 193 239.791)" stroke="black" stroke-width="3.78261"/>
<line x1="286.852" y1="197.617" x2="299.2" y2="257.304" stroke="black" stroke-width="3.78261"/>
<line x1="341.878" y1="103.779" x2="351.878" y2="188.779" stroke="black" stroke-width="3.78261"/>
<line x1="295.89" y1="110.939" x2="300.652" y2="257.619" stroke="black" stroke-width="3.78261"/>
<line y1="-1.8913" x2="160.662" y2="-1.8913" transform="matrix(-0.178041 0.984023 0.986964 0.16094 415.6 114.292)" stroke="black" stroke-width="3.78261"/>
<line y1="-1.8913" x2="167.301" y2="-1.8913" transform="matrix(-0.226096 0.974105 0.974105 0.226096 372.479 107.11)" stroke="black" stroke-width="3.78261"/>
<line x1="278.941" y1="197.78" x2="250.95" y2="193.241" stroke="black" stroke-width="3.78261"/>
<line y1="-1.8913" x2="21.3228" y2="-1.8913" transform="matrix(-0.66698 0.745076 0.745076 0.66698 250.496 192.131)" stroke="black" stroke-width="3.78261"/>
<line x1="248.688" y1="291.788" x2="237.34" y2="254.719" stroke="black" stroke-width="3.78261"/>
<line x1="233.475" y1="210.287" x2="233.475" y2="254.165" stroke="black" stroke-width="3.78261"/>
<line x1="281.135" y1="245.844" x2="281.135" y2="289.722" stroke="black" stroke-width="3.78261"/>
<path d="M242.93 313.825L254.046 287.87L297.5 288.975" stroke="black" stroke-width="3.78261"/>
<path d="M319.082 353.27L323.42 335.779L296.238 327.686" stroke="black" stroke-width="3.78261"/>
<line x1="384.081" y1="302.934" x2="304.646" y2="289.316" stroke="black" stroke-width="3.78261"/>
<line y1="-1.8913" x2="23.4657" y2="-1.8913" transform="matrix(-0.9999 -0.0141032 0.0143932 -0.999896 291.029 325.514)" stroke="black" stroke-width="3.78261"/>
<line y1="-1.8913" x2="26.9412" y2="-1.8913" transform="matrix(0.917536 0.397653 0.404506 -0.914535 244.049 314.301)" stroke="black" stroke-width="3.78261"/>
<path d="M247.545 426.602C249.043 409.825 263.198 373.15 307.833 360.667" stroke="black" stroke-width="3.78261"/>
<path d="M2 63.8821V269.496V475.111" stroke="black" stroke-width="3.48"/>
<path d="M487 531L266.5 530.526L46 530.051" stroke="black" stroke-width="3.48"/>
<path d="M531 63.8821V269.496V475.111" stroke="black" stroke-width="3.48"/>
<path d="M487 2L266.5 2.5L46 3" stroke="black" stroke-width="3.48"/>
</svg>
