<svg width="533" height="533" viewBox="0 0 533 533" fill="none" xmlns="http://www.w3.org/2000/svg">
<path d="M80.78 71H61.25V82.52C74.21 82.25 86.45 81.98 89.33 81.71V88.91C83.66 89.27 35.42 90.26 27.77 90.26L27.23 83.06C30.29 83.06 41 82.97 52.7 82.7V71H34.07V43.64H79.61V51.02H42.62V63.62H80.78V71ZM37.04 117.44V94.94H45.59V109.97H101.39V117.44H37.04ZM91.49 104.03V39.68H100.04V104.03H91.49ZM117.68 102.05H153.77V78.65H162.32V102.05H198.32V109.7H117.68V102.05ZM118.85 72.62C140.99 71.36 153.68 61.37 153.68 47.87V44.72H162.32V48.05C162.32 60.02 174.47 71.09 197.06 72.62C195.89 74.87 194.18 78.47 193.37 80.36C177.8 79.1 163.76 70.82 158.18 62.18C152.24 71.36 140.36 78.2 123.44 80.36C122.27 78.02 120.11 74.51 118.85 72.62ZM211.28 52.82V45.26H253.67V76.58H219.74V94.85C225.23 94.76 254.57 94.13 259.7 93.68V101.24C254.48 101.78 220.28 102.5 211.19 102.59V69.11H245.12V52.82H211.28ZM271.49 120.05V39.68H280.04V120.05H271.49Z" fill="#D1D1D1"/>
<rect x="1.74" y="1.74" width="529.52" height="529.52" stroke="black" stroke-width="3.48"/>
<path d="M193.001 339.896L213.364 339.896L229.314 308.122" stroke="black" stroke-width="3.78261"/>
<line x1="203.97" y1="435.217" x2="203.97" y2="339.896" stroke="black" stroke-width="3.78261"/>
<line y1="-1.8913" x2="191.4" y2="-1.8913" transform="matrix(-1 8.74228e-08 8.74228e-08 1 397.262 439)" stroke="black" stroke-width="3.78261"/>
<line x1="386.292" y1="276.348" x2="386.292" y2="435.217" stroke="black" stroke-width="3.78261"/>
<line y1="-1.8913" x2="21.1826" y2="-1.8913" transform="matrix(-1 0 0 1 229.314 221.878)" stroke="black" stroke-width="3.78261"/>
<line y1="-1.8913" x2="21.0707" y2="-1.8913" transform="matrix(-0.950134 0.311843 0.342185 0.939633 328.338 92.2892)" stroke="black" stroke-width="3.78261"/>
<line y1="-1.8913" x2="21.0724" y2="-1.8913" transform="matrix(-0.976926 -0.213579 -0.259646 0.965704 400.012 95.5007)" stroke="black" stroke-width="3.78261"/>
<line y1="-1.8913" x2="21.3228" y2="-1.8913" transform="matrix(-0.66698 0.745076 0.745076 0.66698 207.375 222.635)" stroke="black" stroke-width="3.78261"/>
<line y1="-1.8913" x2="20.408" y2="-1.8913" transform="matrix(-0.404263 0.914643 0.929005 0.370066 307.85 99.7728)" stroke="black" stroke-width="3.78261"/>
<line y1="-1.8913" x2="20.6725" y2="-1.8913" transform="matrix(-0.84967 0.527315 0.606715 0.794919 378.514 91.502)" stroke="black" stroke-width="3.78261"/>
<line y1="-1.8913" x2="20.5758" y2="-1.8913" transform="matrix(0.570301 0.821436 0.847724 -0.530437 332.201 91)" stroke="black" stroke-width="3.78261"/>
<line y1="-1.8913" x2="19.2278" y2="-1.8913" transform="matrix(0.0133442 0.999911 0.999941 -0.0108509 403.996 96.3511)" stroke="black" stroke-width="3.78261"/>
<line y1="-1.8913" x2="94.5652" y2="-1.8913" transform="matrix(-4.37114e-08 1 1 4.37114e-08 193 240.791)" stroke="black" stroke-width="3.78261"/>
<line x1="287.898" y1="201.039" x2="299.246" y2="251.726" stroke="black" stroke-width="3.78261"/>
<line y1="-1.8913" x2="34.8345" y2="-1.8913" transform="matrix(-0.390917 0.920426 -0.945222 -0.326428 360.949 106.008)" stroke="black" stroke-width="3.78261"/>
<line x1="317.304" y1="212.011" x2="299.146" y2="255.815" stroke="black" stroke-width="3.78261"/>
<line y1="-1.8913" x2="98.2995" y2="-1.8913" transform="matrix(-0.384804 0.922998 -0.947062 -0.321052 398.775 118.287)" stroke="black" stroke-width="3.78261"/>
<line y1="-1.8913" x2="160.662" y2="-1.8913" transform="matrix(0.178041 0.984023 -0.986964 0.16094 297.4 118.292)" stroke="black" stroke-width="3.78261"/>
<line x1="342.364" y1="110.682" x2="380.19" y2="273.651" stroke="black" stroke-width="3.78261"/>
<line x1="278.941" y1="198.78" x2="250.95" y2="194.241" stroke="black" stroke-width="3.78261"/>
<line y1="-1.8913" x2="21.3228" y2="-1.8913" transform="matrix(-0.66698 0.745076 0.745076 0.66698 250.496 193.131)" stroke="black" stroke-width="3.78261"/>
<line x1="248.688" y1="292.788" x2="237.34" y2="255.719" stroke="black" stroke-width="3.78261"/>
<line x1="233.475" y1="211.287" x2="233.475" y2="255.165" stroke="black" stroke-width="3.78261"/>
<line x1="281.135" y1="246.843" x2="281.135" y2="290.722" stroke="black" stroke-width="3.78261"/>
<path d="M242.93 314.825L254.046 288.87L297.5 289.975" stroke="black" stroke-width="3.78261"/>
<path d="M319.082 354.27L323.42 336.779L296.238 328.686" stroke="black" stroke-width="3.78261"/>
<line x1="384.081" y1="303.934" x2="304.646" y2="290.316" stroke="black" stroke-width="3.78261"/>
<line y1="-1.8913" x2="23.4657" y2="-1.8913" transform="matrix(-0.9999 -0.0141032 0.0143932 -0.999896 291.029 326.514)" stroke="black" stroke-width="3.78261"/>
<line y1="-1.8913" x2="26.9412" y2="-1.8913" transform="matrix(0.917536 0.397653 0.404506 -0.914535 244.049 315.301)" stroke="black" stroke-width="3.78261"/>
<path d="M247.545 427.602C249.043 410.825 263.198 374.15 307.833 361.667" stroke="black" stroke-width="3.78261"/>
</svg>
