<svg width="533" height="558" viewBox="0 0 533 558" fill="none" xmlns="http://www.w3.org/2000/svg">
<path d="M82.4253 154.286C62.1405 154.286 47.8555 147.429 47.8555 133.144C47.8555 118.716 62.1405 111.002 82.4253 111.002C102.424 111.002 116.71 118.716 116.71 133.144C116.71 147.429 102.424 154.286 82.4253 154.286ZM40.8558 105.574V94.1457H123.995V105.574H40.8558ZM55.8551 85.8604V74.718H108.996V85.8604H55.8551ZM61.4263 133.144C61.4263 140.144 68.8545 143.143 82.4253 143.143C95.2819 143.143 103.139 140.144 103.139 133.144C103.139 125.859 95.2819 122.144 82.4253 122.144C68.8545 122.144 61.4263 125.859 61.4263 133.144Z" fill="#D1D1D1"/>
<rect x="1.74" y="26.74" width="529.52" height="529.52" stroke="black" stroke-width="3.48"/>
<path d="M259.226 108L294.945 108L315.301 159.082" stroke="black" stroke-width="3.84076"/>
<path d="M251.291 398.361L273.184 409.115L273.184 432.16" stroke="black" stroke-width="3.84076"/>
<path d="M253.981 359.954L272.607 370.708L272.607 394.521" stroke="black" stroke-width="3.84076"/>
<path d="M272.031 355.729L272.031 332.684L234.776 314.633" stroke="black" stroke-width="3.84076"/>
<path d="M264.213 311.533L264.213 288.489L226.958 270.437" stroke="black" stroke-width="3.84076"/>
<line x1="274.721" y1="436.769" x2="194.065" y2="436.769" stroke="black" stroke-width="3.84076"/>
<line x1="389.026" y1="437.921" x2="278.983" y2="436.92" stroke="black" stroke-width="3.84076"/>
<line x1="387.125" y1="321.549" x2="387.125" y2="436.004" stroke="black" stroke-width="3.84076"/>
<line y1="-1.92038" x2="93.9692" y2="-1.92038" transform="matrix(-0.295895 -0.955221 -0.955221 0.295895 385.203 321.843)" stroke="black" stroke-width="3.84076"/>
<path d="M237.716 255.485L285.342 250.108L276.892 199.026" stroke="black" stroke-width="3.84076"/>
<line x1="359.76" y1="233.458" x2="318.969" y2="168.167" stroke="black" stroke-width="3.84076"/>
<line x1="275.885" y1="196.303" x2="256.2" y2="148.678" stroke="black" stroke-width="3.84076"/>
<line y1="-1.92038" x2="21.5083" y2="-1.92038" transform="matrix(4.37114e-08 1 1 -4.37114e-08 177.799 394.905)" stroke="black" stroke-width="3.84076"/>
<line y1="-1.92038" x2="20.2798" y2="-1.92038" transform="matrix(0.795432 0.606043 0.606043 -0.795432 177.799 417.949)" stroke="black" stroke-width="3.84076"/>
<line y1="-1.92038" x2="21.5083" y2="-1.92038" transform="matrix(4.37114e-08 1 1 -4.37114e-08 146.305 356.497)" stroke="black" stroke-width="3.84076"/>
<line y1="-1.92038" x2="21.6506" y2="-1.92038" transform="matrix(0.745076 0.666979 0.666979 -0.745076 147.072 378.774)" stroke="black" stroke-width="3.84076"/>
<line x1="165.643" y1="395.289" x2="267.039" y2="395.289" stroke="black" stroke-width="3.84076"/>
<line y1="-1.92038" x2="21.5083" y2="-1.92038" transform="matrix(4.37114e-08 1 1 -4.37114e-08 151.82 318.858)" stroke="black" stroke-width="3.84076"/>
<line y1="-1.92038" x2="21.6506" y2="-1.92038" transform="matrix(0.745076 0.666979 0.666979 -0.745076 152.588 341.134)" stroke="black" stroke-width="3.84076"/>
<line y1="-1.92038" x2="96.019" y2="-1.92038" transform="matrix(1 0 0 -1 171.023 355.729)" stroke="black" stroke-width="3.84076"/>
<line y1="-1.92038" x2="21.5083" y2="-1.92038" transform="matrix(4.37114e-08 1 1 -4.37114e-08 143.998 274.662)" stroke="black" stroke-width="3.84076"/>
<line y1="-1.92038" x2="21.6506" y2="-1.92038" transform="matrix(0.745076 0.666979 0.666979 -0.745076 144.768 296.938)" stroke="black" stroke-width="3.84076"/>
<line y1="-1.92038" x2="96.019" y2="-1.92038" transform="matrix(1 0 0 -1 163.203 311.533)" stroke="black" stroke-width="3.84076"/>
<line y1="-1.92038" x2="39.9439" y2="-1.92038" transform="matrix(-0.00805468 0.999968 0.999968 0.00805468 259.225 109.536)" stroke="black" stroke-width="3.84076"/>
<line x1="145.978" y1="268.188" x2="230.475" y2="253.593" stroke="black" stroke-width="3.84076"/>
<path d="M336.32 408.054C314.671 393.315 275.716 346.172 293.085 275.509" stroke="black" stroke-width="3.84076"/>
</svg>
