<svg width="533" height="558" viewBox="0 0 533 558" fill="none" xmlns="http://www.w3.org/2000/svg">
<path d="M83.7105 177.713H70.1397V50.1477H83.7105V177.713Z" fill="#D1D1D1"/>
<rect x="1.74" y="26.74" width="529.52" height="529.52" stroke="black" stroke-width="3.48"/>
<path d="M218.83 234.671L192.309 229.496L170.049 265.823" stroke="black" stroke-width="3.4"/>
<path d="M218.83 234.671L192.309 229.496L170.049 265.823" stroke="black" stroke-width="3.4"/>
<line x1="409.323" y1="436.833" x2="409.323" y2="270.886" stroke="black" stroke-width="3.4"/>
<line x1="217.417" y1="334.74" x2="217.417" y2="202.167" stroke="black" stroke-width="3.4"/>
<line x1="217.417" y1="334.74" x2="217.417" y2="202.167" stroke="black" stroke-width="3.4"/>
<line x1="264.698" y1="289.312" x2="264.698" y2="202.167" stroke="black" stroke-width="3.4"/>
<line x1="264.698" y1="289.312" x2="264.698" y2="202.167" stroke="black" stroke-width="3.4"/>
<line x1="312.905" y1="289.312" x2="312.905" y2="208.656" stroke="black" stroke-width="3.4"/>
<line x1="361.112" y1="289.313" x2="361.112" y2="141.906" stroke="black" stroke-width="3.4"/>
<line y1="-1.7" x2="134.45" y2="-1.7" transform="matrix(-0.0456637 -0.998957 0.998801 -0.0489622 411.023 271.052)" stroke="black" stroke-width="3.4"/>
<line x1="217.262" y1="440.581" x2="411.022" y2="440.581" stroke="black" stroke-width="3.4"/>
<line x1="217.262" y1="440.581" x2="411.022" y2="440.581" stroke="black" stroke-width="3.4"/>
<line y1="-1.7" x2="118.031" y2="-1.7" transform="matrix(0.507155 0.861855 -0.845691 0.533673 157 340.988)" stroke="black" stroke-width="3.4"/>
<line y1="-1.7" x2="118.031" y2="-1.7" transform="matrix(0.507155 0.861855 -0.845691 0.533673 157 340.988)" stroke="black" stroke-width="3.4"/>
<line y1="-1.7" x2="61.9071" y2="-1.7" transform="matrix(0.121136 -0.992636 -0.991545 -0.129763 159.305 332.503)" stroke="black" stroke-width="3.4"/>
<line y1="-1.7" x2="61.9071" y2="-1.7" transform="matrix(0.121136 -0.992636 -0.991545 -0.129763 159.305 332.503)" stroke="black" stroke-width="3.4"/>
<line y1="-1.7" x2="30.8963" y2="-1.7" transform="matrix(-0.566293 -0.824204 0.805063 -0.59319 218.359 321.924)" stroke="black" stroke-width="3.4"/>
<line y1="-1.7" x2="30.8963" y2="-1.7" transform="matrix(-0.566293 -0.824204 0.805063 -0.59319 218.359 321.924)" stroke="black" stroke-width="3.4"/>
<line x1="252.492" y1="193.669" x2="222.826" y2="193.669" stroke="black" stroke-width="3.4"/>
<line x1="252.492" y1="193.669" x2="222.826" y2="193.669" stroke="black" stroke-width="3.4"/>
<line x1="302.555" y1="193.669" x2="272.888" y2="193.669" stroke="black" stroke-width="3.4"/>
<line x1="302.555" y1="193.669" x2="272.888" y2="193.669" stroke="black" stroke-width="3.4"/>
<line x1="350.762" y1="193.669" x2="320.168" y2="193.669" stroke="black" stroke-width="3.4"/>
<line x1="350.762" y1="193.669" x2="320.168" y2="193.669" stroke="black" stroke-width="3.4"/>
<line x1="392.48" y1="129.7" x2="361.887" y2="129.7" stroke="black" stroke-width="3.4"/>
</svg>
