<svg width="533" height="558" viewBox="0 0 533 558" fill="none" xmlns="http://www.w3.org/2000/svg">
<path d="M36.5703 137.572C65.2833 130.715 75.7114 116.716 75.7114 101.145V92.7172H41.8557V80.5749H123.138V92.7172H89.2822V100.145C89.2822 117.43 103.996 132.001 128.28 136.287C125.852 139.429 122.709 144.143 120.424 147.715C103.853 142.429 90.7107 134.287 82.9967 122.144C76.2828 133.572 63.7119 143.429 45.5699 148.143C42.9986 144.858 39.713 141.001 36.5703 137.572Z" fill="#D1D1D1"/>
<path d="M391.748 272.841L401.253 253.492L421.621 253.492" stroke="black" stroke-width="3.39466"/>
<path d="M351.121 277.594L360.626 258.245L380.994 258.245" stroke="black" stroke-width="3.39466"/>
<line x1="425.695" y1="252.134" x2="425.695" y2="323.422" stroke="black" stroke-width="3.39466"/>
<line x1="425.695" y1="134" x2="425.695" y2="243.308" stroke="black" stroke-width="3.39466"/>
<line x1="322.84" y1="135.695" x2="424.001" y2="135.695" stroke="black" stroke-width="3.39466"/>
<line x1="323.492" y1="135.63" x2="256.198" y2="155.141" stroke="black" stroke-width="3.39466"/>
<line x1="234.699" y1="425.874" x2="254.123" y2="283.636" stroke="black" stroke-width="3.39466"/>
<line y1="-1.69733" x2="99.886" y2="-1.69733" transform="matrix(0.152387 -0.988321 -0.988321 -0.152387 277.926 421.214)" stroke="black" stroke-width="3.39466"/>
<line x1="348.975" y1="436.127" x2="348.975" y2="364.839" stroke="black" stroke-width="3.39466"/>
<line y1="-1.69733" x2="19.689" y2="-1.69733" transform="matrix(0.993735 0.111765 0.111765 -0.993735 248.717 450.04)" stroke="black" stroke-width="3.39466"/>
<line x1="322.836" y1="462.266" x2="346.599" y2="462.266" stroke="black" stroke-width="3.39466"/>
<line y1="-1.69733" x2="19.0101" y2="-1.69733" transform="matrix(1 8.74228e-08 8.74228e-08 -1 388.693 337.799)" stroke="black" stroke-width="3.39466"/>
<line y1="-1.69733" x2="17.9243" y2="-1.69733" transform="matrix(0.606043 -0.795432 -0.795432 -0.606043 409.061 337.799)" stroke="black" stroke-width="3.39466"/>
<line x1="354.746" y1="363.142" x2="369.004" y2="363.142" stroke="black" stroke-width="3.39466"/>
<line y1="-1.69733" x2="19.1359" y2="-1.69733" transform="matrix(0.66698 -0.745076 -0.745076 -0.66698 374.436 364.956)" stroke="black" stroke-width="3.39466"/>
<line x1="389.033" y1="348.545" x2="389.033" y2="279.294" stroke="black" stroke-width="3.39466"/>
<line x1="353.049" y1="364.839" x2="353.049" y2="284.047" stroke="black" stroke-width="3.39466"/>
<line x1="303.67" y1="434.609" x2="302.312" y2="322.585" stroke="black" stroke-width="3.39466"/>
<line y1="-1.69733" x2="23.3888" y2="-1.69733" transform="matrix(0.271316 0.96249 0.96249 -0.271316 236.688 423.403)" stroke="black" stroke-width="3.39466"/>
<line y1="-1.69733" x2="23.3888" y2="-1.69733" transform="matrix(0.377365 0.926065 0.926065 -0.377365 310.615 438.909)" stroke="black" stroke-width="3.39466"/>
<line y1="-1.69733" x2="25.4486" y2="-1.69733" transform="matrix(-0.269576 0.962979 0.962979 0.269576 281.594 425.043)" stroke="black" stroke-width="3.39466"/>
<line y1="-1.69733" x2="25.4486" y2="-1.69733" transform="matrix(-0.160071 0.987105 0.987105 0.160071 350.672 438.843)" stroke="black" stroke-width="3.39466"/>
<path d="M332.378 172.024C334.29 188.807 327.655 227.686 285.817 248.948" stroke="black" stroke-width="3.39466"/>
<path d="M123 258.923L123 227.353L168.149 209.361" stroke="black" stroke-width="3.39466"/>
<path d="M253.355 277.934L248.602 235.84L203.453 243.308" stroke="black" stroke-width="3.39466"/>
<line x1="233.886" y1="170.065" x2="176.178" y2="206.118" stroke="black" stroke-width="3.39466"/>
<line x1="201.047" y1="244.198" x2="158.953" y2="261.597" stroke="black" stroke-width="3.39466"/>
<line y1="-1.69733" x2="35.3044" y2="-1.69733" transform="matrix(0.999968 0.00805469 0.00805469 -0.999968 124.357 258.923)" stroke="black" stroke-width="3.39466"/>
<path d="M2 88.8821V294.496V500.111" stroke="black" stroke-width="3.48"/>
<path d="M487 556L266.5 555.526L46 555.051" stroke="black" stroke-width="3.48"/>
<path d="M531 88.8821V294.496V500.111" stroke="black" stroke-width="3.48"/>
<path d="M487 27L266.5 27.5L46 28" stroke="black" stroke-width="3.48"/>
</svg>
