<svg width="533" height="558" viewBox="0 0 533 558" fill="none" xmlns="http://www.w3.org/2000/svg">
<path d="M38.713 113.002C49.5697 113.002 91.4249 112.288 105.424 111.859L105.996 93.4314H41.4272V81.2891H119.852L118.281 147.858H104.71L105.139 123.859C90.425 124.43 49.1411 125.001 39.1416 125.001L38.713 113.002Z" fill="#D1D1D1"/>
<rect x="1.74" y="26.74" width="529.52" height="529.52" stroke="black" stroke-width="3.48"/>
<path d="M121 255.132V222.353L167.877 203.672" stroke="black" stroke-width="3.5246"/>
<path d="M388.518 280.156L398.386 260.066H419.534" stroke="black" stroke-width="3.5246"/>
<path d="M353.271 277.689L363.14 260.596H384.993" stroke="black" stroke-width="3.5246"/>
<path d="M312.008 258.656H290.861L274.295 292.845" stroke="black" stroke-width="3.5246"/>
<line x1="423.764" y1="262.886" x2="423.764" y2="332.673" stroke="black" stroke-width="3.5246"/>
<line x1="423.764" y1="136" x2="423.764" y2="249.492" stroke="black" stroke-width="3.5246"/>
<line x1="316.971" y1="137.76" x2="422.004" y2="137.76" stroke="black" stroke-width="3.5246"/>
<line y1="-1.7623" x2="86.234" y2="-1.7623" transform="matrix(-0.955221 0.295895 0.295895 0.955221 317.24 139.525)" stroke="black" stroke-width="3.5246"/>
<path d="M256.345 274.869L251.41 231.164L204.533 238.918" stroke="black" stroke-width="3.5246"/>
<line x1="311.681" y1="453.214" x2="311.681" y2="373.558" stroke="black" stroke-width="3.5246"/>
<line x1="351.861" y1="445.46" x2="351.861" y2="365.804" stroke="black" stroke-width="3.5246"/>
<line x1="270.113" y1="366.078" x2="256.719" y2="280.782" stroke="black" stroke-width="3.5246"/>
<line x1="236.131" y1="162.872" x2="176.214" y2="200.305" stroke="black" stroke-width="3.5246"/>
<line x1="202.035" y1="239.842" x2="158.33" y2="257.908" stroke="black" stroke-width="3.5246"/>
<line y1="-1.7623" x2="19.7378" y2="-1.7623" transform="matrix(1 -8.74227e-08 -8.74227e-08 -1 385.346 347.6)" stroke="black" stroke-width="3.5246"/>
<line y1="-1.7623" x2="19.7378" y2="-1.7623" transform="matrix(1 -8.74227e-08 -8.74227e-08 -1 324.018 475.772)" stroke="black" stroke-width="3.5246"/>
<line y1="-1.7623" x2="18.6104" y2="-1.7623" transform="matrix(0.606043 -0.795432 -0.795432 -0.606043 406.492 347.6)" stroke="black" stroke-width="3.5246"/>
<line y1="-1.7623" x2="19.8684" y2="-1.7623" transform="matrix(0.666979 -0.745076 -0.745076 -0.666979 370.543 375.797)" stroke="black" stroke-width="3.5246"/>
<line x1="385.699" y1="358.755" x2="385.699" y2="265.705" stroke="black" stroke-width="3.5246"/>
<line x1="353.976" y1="351.001" x2="353.976" y2="280.509" stroke="black" stroke-width="3.5246"/>
<line y1="-1.7623" x2="19.7378" y2="-1.7623" transform="matrix(1 -8.74227e-08 -8.74227e-08 -1 278.172 368.974)" stroke="black" stroke-width="3.5246"/>
<line y1="-1.7623" x2="19.8684" y2="-1.7623" transform="matrix(0.666979 -0.745076 -0.745076 -0.666979 298.615 368.269)" stroke="black" stroke-width="3.5246"/>
<line y1="-1.7623" x2="88.1151" y2="-1.7623" transform="matrix(-4.37114e-08 -1 -1 4.37114e-08 312.008 351.35)" stroke="black" stroke-width="3.5246"/>
<line y1="-1.7623" x2="36.6559" y2="-1.7623" transform="matrix(0.999968 0.00805463 0.00805463 -0.999968 122.41 255.132)" stroke="black" stroke-width="3.5246"/>
<line x1="272.206" y1="332.673" x2="272.206" y2="300.951" stroke="black" stroke-width="3.5246"/>
<line y1="-1.7623" x2="24.2841" y2="-1.7623" transform="matrix(0.377365 0.926064 0.926064 -0.377365 313.443 453.214)" stroke="black" stroke-width="3.5246"/>
<line y1="-1.7623" x2="26.4228" y2="-1.7623" transform="matrix(-0.160071 0.987105 0.987105 0.160071 353.623 449.69)" stroke="black" stroke-width="3.5246"/>
<path d="M343.7 161.377C344.437 175.765 338.148 208.597 307.1 224.82" stroke="black" stroke-width="3.5246"/>
</svg>
