<?xml version="1.0" encoding="UTF-8"?>
<svg id="_레이어_2" data-name="레이어 2" xmlns="http://www.w3.org/2000/svg" viewBox="0 0 2139.69 1446.72">
  <defs>
    <style>
      .cls-1, .cls-2, .cls-3, .cls-4, .cls-5, .cls-6, .cls-7, .cls-8, .cls-9, .cls-10, .cls-11, .cls-12, .cls-13, .cls-14, .cls-15, .cls-16, .cls-17 {
        stroke: #000;
      }

      .cls-1, .cls-2, .cls-3, .cls-4, .cls-5, .cls-6, .cls-7, .cls-8, .cls-9, .cls-10, .cls-11, .cls-12, .cls-14, .cls-15, .cls-16, .cls-17 {
        fill: none;
      }

      .cls-1, .cls-2, .cls-13, .cls-17 {
        stroke-width: 8.5px;
      }

      .cls-2 {
        stroke-miterlimit: 4;
      }

      .cls-3 {
        stroke-width: 9.76px;
      }

      .cls-3, .cls-8 {
        stroke-miterlimit: 4;
      }

      .cls-4 {
        stroke-miterlimit: 4;
      }

      .cls-4, .cls-5, .cls-6, .cls-7, .cls-8, .cls-9, .cls-10, .cls-11, .cls-12, .cls-15 {
        stroke-width: 10.01px;
      }

      .cls-5 {
        stroke-miterlimit: 4;
      }

      .cls-6 {
        stroke-miterlimit: 4;
      }

      .cls-7 {
        stroke-miterlimit: 4;
      }

      .cls-9 {
        stroke-miterlimit: 4;
      }

      .cls-10 {
        stroke-miterlimit: 4;
      }

      .cls-11 {
        stroke-miterlimit: 4;
      }

      .cls-12 {
        stroke-miterlimit: 4;
      }

      .cls-13 {
        fill: #a1a1a1;
      }

      .cls-13, .cls-17 {
        stroke-miterlimit: 10;
      }

      .cls-14 {
        stroke-width: 8.19px;
      }

      .cls-16 {
        stroke-width: 9.82px;
      }
    </style>
  </defs>
  <g id="_레이어_1-2" data-name="레이어 1">
    <g>
      <g>
        <line class="cls-15" x1="1541.79" y1="1441.71" x2="1749.04" y2="1441.71"/>
        <line class="cls-15" x1="1178.89" y1="1441.71" x2="1549.4" y2="1441.71"/>
        <line class="cls-15" x1="1663.95" y1="773.09" x2="1563.81" y2="229.31"/>
        <line class="cls-15" x1="1334.4" y1="545.47" x2="1550.79" y2="239"/>
        <line class="cls-16" x1="1178.12" y1="484.6" x2="1378.44" y2="152.01"/>
        <line class="cls-15" x1="1378.96" y1="145.34" x2="1378.44" y2="13.28"/>
        <line class="cls-5" x1="1788.82" y1="594.48" x2="1751.56" y2="283.8"/>
        <line class="cls-11" x1="1178.12" y1="610.97" x2="1230.98" y2="640.94"/>
        <line class="cls-12" x1="1682.24" y1="772.98" x2="1772.24" y2="759.09"/>
        <line class="cls-15" x1="1319.28" y1="561.11" x2="1229.78" y2="629.51"/>
        <line class="cls-4" x1="1793.52" y1="625.95" x2="1794.43" y2="733.3"/>
        <path class="cls-15" d="M1935.46,9.72l-62.05,99.74-178-31.9"/>
        <line class="cls-15" x1="2055.96" y1="5.08" x2="2055.96" y2="170.61"/>
        <line class="cls-15" x1="1464.79" y1="11.51" x2="1662.82" y2="60.97"/>
        <line class="cls-15" x1="1919.68" y1="232.36" x2="1998.62" y2="232.36"/>
        <line class="cls-6" x1="2011.21" y1="230.26" x2="2055.96" y2="171.53"/>
        <line class="cls-15" x1="1771.98" y1="283.64" x2="1857.93" y2="283.64"/>
        <line class="cls-15" x1="1869.96" y1="277.41" x2="1922.54" y2="232.36"/>
        <line class="cls-15" x1="1919.68" y1="214.96" x2="1919.68" y2="36.24"/>
        <line class="cls-15" x1="1771.98" y1="268.44" x2="1771.98" y2="92.47"/>
        <path class="cls-15" d="M1532.37,595.64h-92.26l-52.58,130.71"/>
        <path class="cls-15" d="M1601.85,1344.56l-56.52,27.73v59.41"/>
        <path class="cls-15" d="M1594.78,1245.65l-47.1,27.84v61.66"/>
        <path class="cls-15" d="M1548.86,1235.05v-59.43l95.38-46.55"/>
        <line class="cls-8" x1="1178.89" y1="1140.3" x2="1178.89" y2="1446.67"/>
        <line class="cls-3" x1="1178.89" y1="479.65" x2="1178.89" y2="610.97"/>
        <line class="cls-8" x1="2055.96" y1="11" x2="1373.49" y2="11"/>
        <line class="cls-15" x1="1178.89" y1="1144.14" x2="1266.81" y2="927.39"/>
        <path class="cls-15" d="M1586.54,974.81l-121.29-13.79,21.51-131.05"/>
        <line class="cls-10" x1="2066.58" y1="971.59" x2="1596.91" y2="975.54"/>
        <line class="cls-15" x1="2028.97" y1="1096.3" x2="1738.88" y2="1108.13"/>
        <line class="cls-9" x1="1271.85" y1="916.89" x2="1376.64" y2="749.15"/>
        <line class="cls-15" x1="2134.68" y1="1003.75" x2="2134.67" y2="1084.24"/>
        <line class="cls-7" x1="1487.18" y1="821.73" x2="1537.75" y2="715.15"/>
        <line class="cls-15" x1="1793.2" y1="1335.14" x2="1793.2" y2="1390.49"/>
        <line class="cls-15" x1="1874.45" y1="1237.4" x2="1874.45" y2="1292.75"/>
        <line class="cls-15" x1="1871.58" y1="1296.42" x2="1830.14" y2="1333.53"/>
        <line class="cls-15" x1="1790.44" y1="1404.6" x2="1749.01" y2="1441.71"/>
        <line class="cls-15" x1="1822.05" y1="1338.08" x2="1561.81" y2="1338.08"/>
        <line class="cls-15" x1="1860.37" y1="1140.3" x2="1860.37" y2="1195.56"/>
        <line class="cls-15" x1="1857.41" y1="1199.72" x2="1815.97" y2="1236.83"/>
        <line class="cls-15" x1="1808.08" y1="1237.97" x2="1561.41" y2="1237.97"/>
        <line class="cls-15" x1="1542.24" y1="599.56" x2="1543.06" y2="702.17"/>
        <line class="cls-15" x1="1849.13" y1="1126.12" x2="1656.01" y2="1126.12"/>
        <line class="cls-15" x1="2069.23" y1="971.81" x2="2132.18" y2="997.47"/>
        <line class="cls-15" x1="2040.71" y1="1095.96" x2="2134.67" y2="1084.24"/>
        <line class="cls-15" x1="1547.68" y1="1185.7" x2="1633.17" y2="1185.7"/>
        <line class="cls-15" x1="1634.34" y1="1193.28" x2="1634.34" y2="1237.97"/>
        <line class="cls-15" x1="1634.34" y1="1293.39" x2="1634.34" y2="1338.08"/>
        <line class="cls-15" x1="1547.68" y1="1288.03" x2="1633.17" y2="1288.03"/>
        <line class="cls-15" x1="1634.34" y1="1395.85" x2="1634.34" y2="1440.54"/>
        <line class="cls-15" x1="1547.68" y1="1390.49" x2="1633.17" y2="1390.49"/>
      </g>
      <g>
        <line class="cls-1" x1="1000.28" y1="4.35" x2="1046.68" y2="364.68"/>
        <line class="cls-14" x1="851.72" y1="802.63" x2="851.72" y2="988.77"/>
        <line class="cls-1" x1="851.55" y1="86.63" x2="851.55" y2="321.63"/>
        <line class="cls-1" x1="891.72" y1="628.63" x2="891.72" y2="787.63"/>
        <line class="cls-1" x1="886.36" y1="4.25" x2="1001.36" y2="4.25"/>
        <line class="cls-1" x1="880.3" y1="4.25" x2="851.3" y2="83.68"/>
        <line class="cls-1" x1="7.63" y1="448.75" x2="281.19" y2="313.39"/>
        <line class="cls-1" x1="708.36" y1="626.79" x2="889.36" y2="626.79"/>
        <line class="cls-1" x1="491.75" y1="956.63" x2="707.7" y2="860.03"/>
        <line class="cls-1" x1="721.33" y1="854.56" x2="882.6" y2="783.5"/>
        <line class="cls-13" x1=".24" y1="711.14" x2="359.15" y2="731.33"/>
        <line class="cls-1" x1="7.63" y1="983.97" x2="203.6" y2="1003.1"/>
        <line class="cls-1" x1="583.01" y1="532.87" x2="542.01" y2="644.94"/>
        <line class="cls-1" x1="490.57" y1="393.5" x2="380.78" y2="392.59"/>
        <line class="cls-1" x1="292.67" y1="314.02" x2="366.47" y2="393.29"/>
        <line class="cls-1" x1="432.59" y1="555.32" x2="487.25" y2="675.59"/>
        <line class="cls-1" x1="719.78" y1="458.87" x2="670.56" y2="631.07"/>
        <line class="cls-1" x1="606.6" y1="157.32" x2="232.14" y2="4.25"/>
        <line class="cls-1" x1="610.27" y1="186.35" x2="725.07" y2="448.75"/>
        <line class="cls-1" x1="379.45" y1="731.66" x2="543.45" y2="644.19"/>
        <line class="cls-1" x1="555.43" y1="643.88" x2="700.3" y2="627.48"/>
        <line class="cls-1" x1="391.78" y1="68.85" x2="662.97" y2="127.32"/>
        <line class="cls-1" x1="698.39" y1="184.7" x2="785.85" y2="201.1"/>
        <line class="cls-1" x1="491.75" y1="956.63" x2="203.6" y2="1003.1"/>
        <line class="cls-1" x1="796.79" y1="458.75" x2="774.92" y2="628.22"/>
        <line class="cls-1" x1="881.48" y1="403.87" x2="851.19" y2="617.44"/>
        <line class="cls-1" x1="673.16" y1="137.16" x2="798.89" y2="426.9"/>
        <line class="cls-1" x1="493.22" y1="391.74" x2="435.37" y2="532.97"/>
        <line class="cls-1" x1="714.29" y1="846.8" x2="695.13" y2="762.12"/>
        <line class="cls-2" x1="878.63" y1="695.9" x2="697.07" y2="750.52"/>
        <line class="cls-1" x1="703.04" y1="510.01" x2="593.74" y2="522.54"/>
        <line class="cls-1" x1="886.7" y1="391.07" x2="793.93" y2="213.05"/>
        <line class="cls-17" x1="232.14" y1="4.25" x2="6.71" y2="68.85"/>
        <line class="cls-1" x1="6.71" y1="68.85" x2="6.71" y2="983.97"/>
        <line class="cls-1" x1="1046.68" y1="364.68" x2="1046.68" y2="983.97"/>
        <line class="cls-1" x1="1051.77" y1="984.77" x2="851.72" y2="984.77"/>
      </g>
    </g>
  </g>
</svg>