<?xml version="1.0" encoding="UTF-8"?>
<svg id="_레이어_2" data-name="레이어 2" xmlns="http://www.w3.org/2000/svg" viewBox="0 0 3081.73 1404.96">
  <defs>
    <style>
      .cls-1 {
        stroke-miterlimit: 10;
        stroke-width: 9.83px;
      }

      .cls-1, .cls-2, .cls-3, .cls-4, .cls-5, .cls-6, .cls-7, .cls-8, .cls-9, .cls-10, .cls-11, .cls-12, .cls-13, .cls-14, .cls-15, .cls-16, .cls-17 {
        fill: none;
        stroke: #000;
      }

      .cls-2 {
        stroke-width: 7.56px;
      }

      .cls-3 {
        stroke-miterlimit: 4;
      }

      .cls-3, .cls-4, .cls-5, .cls-6, .cls-7, .cls-8, .cls-9, .cls-10, .cls-11, .cls-12, .cls-13, .cls-17 {
        stroke-width: 9.92px;
      }

      .cls-4 {
        stroke-miterlimit: 4;
      }

      .cls-5 {
        stroke-miterlimit: 4;
      }

      .cls-6 {
        stroke-miterlimit: 4;
      }

      .cls-7 {
        stroke-miterlimit: 4;
      }

      .cls-8 {
        stroke-miterlimit: 4;
      }

      .cls-9 {
        stroke-miterlimit: 4;
      }

      .cls-10 {
        stroke-miterlimit: 4;
      }

      .cls-11 {
        stroke-miterlimit: 4;
      }

      .cls-12 {
        stroke-miterlimit: 4;
      }

      .cls-13 {
        stroke-miterlimit: 4;
      }

      .cls-14 {
        stroke-miterlimit: 4;
        stroke-width: 11.14px;
      }

      .cls-15 {
        stroke-width: 8.41px;
      }

      .cls-16 {
        stroke-width: 9.85px;
      }
    </style>
  </defs>
  <g id="_레이어_1-2" data-name="레이어 1">
    <path class="cls-17" d="M2577.81,765.88l-100.15-543.79s-.64-3.47-1.28-6.94c-5.87,8.32-11.74,16.63-11.74,16.63l-216.38,306.47"/>
    <line class="cls-17" x1="2102.72" y1="459.55" x2="2292.3" y2="144.79"/>
    <line class="cls-17" x1="2292.81" y1="138.13" x2="2292.3" y2="6.07"/>
    <line class="cls-14" x1="2715.45" y1="587.26" x2="2678.18" y2="195.46"/>
    <line class="cls-5" x1="2076.28" y1="588.77" x2="2129.15" y2="618.74"/>
    <line class="cls-6" x1="2596.1" y1="765.76" x2="2686.1" y2="751.88"/>
    <line class="cls-17" x1="2233.13" y1="553.89" x2="2143.64" y2="622.29"/>
    <line class="cls-12" x1="2710.64" y1="612.96" x2="2705.02" y2="720.16"/>
    <line class="cls-17" x1="2684.05" y1="179.75" x2="2684.05" y2="3.78"/>
    <line class="cls-17" x1="2089.67" y1="483.02" x2="2071.31" y2="575.8"/>
    <line class="cls-2" x1="2684.05" y1="3.78" x2="2287.35" y2="3.78"/>
    <path class="cls-17" d="M2457.3,1397.92h213.7s42.73-38.27,42.73-38.27"/>
    <path class="cls-15" d="M2197.51,1397.92h251.27c0-4.11,0-6.68,0-6.68v-61.27l41.92-28.6"/>
    <path class="cls-17" d="M2447.59,525.36h-95.15l-54.22,134.8"/>
    <path class="cls-17" d="M2483.41,1199.36l-48.58,28.71v63.59"/>
    <path class="cls-17" d="M2501.04,1079.77l-66.2,35.16v77.87"/>
    <line class="cls-17" x1="2083.04" y1="1101.44" x2="2200.59" y2="1394.72"/>
    <line class="cls-17" x1="2083.04" y1="1091.04" x2="2114.39" y2="1006.46"/>
    <path class="cls-17" d="M2501.04,918.36l-124.57-18.2s22.02-111.71,25.9-131.42c2.66-5.61,4.84-10.2,4.84-10.2l52.16-109.92"/>
    <line class="cls-11" x1="2998.52" y1="913.09" x2="2514.15" y2="917.16"/>
    <line class="cls-17" x1="2959.73" y1="1041.69" x2="2660.56" y2="1053.9"/>
    <line class="cls-10" x1="2212.74" y1="828.82" x2="2291.36" y2="674.94"/>
    <line class="cls-17" x1="3076.77" y1="947.08" x2="3076.76" y2="1022.78"/>
    <line class="cls-17" x1="2727.5" y1="1294.69" x2="2727.5" y2="1351.77"/>
    <line class="cls-17" x1="2800.38" y1="1187.22" x2="2800.38" y2="1244.29"/>
    <line class="cls-17" x1="2797.41" y1="1248.08" x2="2754.68" y2="1286.35"/>
    <line class="cls-17" x1="2717.8" y1="1294.69" x2="2449.41" y2="1294.69"/>
    <line class="cls-17" x1="2793.54" y1="1087.08" x2="2793.54" y2="1144.07"/>
    <line class="cls-17" x1="2782.8" y1="1148.36" x2="2740.07" y2="1186.62"/>
    <line class="cls-17" x1="2800.38" y1="1191.44" x2="2449" y2="1191.44"/>
    <line class="cls-17" x1="2462.2" y1="529.41" x2="2463.05" y2="635.23"/>
    <line class="cls-17" x1="2713.31" y1="1079.77" x2="2514.15" y2="1079.77"/>
    <line class="cls-17" x1="2793.54" y1="1079.77" x2="2730.38" y2="1050.85"/>
    <line class="cls-17" x1="3011.62" y1="915.12" x2="3071.59" y2="939.77"/>
    <line class="cls-17" x1="2971.83" y1="1041.34" x2="3068.74" y2="1029.26"/>
    <path class="cls-17" d="M980.66,375.84v-231.95c2.82-7.51,28.75-76.55,28.75-76.55"/>
    <path class="cls-17" d="M1015.47,58.47h113.91c0,.08.01.09.01.09l46.4,360.33"/>
    <path class="cls-17" d="M798.62,707.05h183.36c0,.92,0,1.84,0,1.84v150.85c-5.24,2.31-9.12,4.02-9.12,4.02l-161.27,71.06"/>
    <line class="cls-17" x1="479.32" y1="1017.98" x2="794.97" y2="938.99"/>
    <path class="cls-1" d="M434.6,753.03l-308.05-175.35-.37-.21c-9.18,18.59-113.71,230.97-119.81,243.38,3.35,2.08,5.83,3.63,5.83,3.63l164.6,102.98,275.08,84.82"/>
    <line class="cls-17" x1="712.12" y1="587.08" x2="671.12" y2="699.15"/>
    <line class="cls-17" x1="619.68" y1="447.72" x2="509.89" y2="446.81"/>
    <line class="cls-17" x1="421.78" y1="368.24" x2="495.58" y2="447.5"/>
    <line class="cls-17" x1="561.7" y1="609.53" x2="616.36" y2="729.8"/>
    <line class="cls-17" x1="848.89" y1="513.08" x2="799.67" y2="685.28"/>
    <line class="cls-17" x1="739.38" y1="240.57" x2="854.18" y2="502.96"/>
    <line class="cls-17" x1="445.74" y1="762.33" x2="627.72" y2="724.53"/>
    <line class="cls-17" x1="645.7" y1="724.14" x2="790.56" y2="707.74"/>
    <line class="cls-17" x1="520.89" y1="123.07" x2="792.08" y2="181.53"/>
    <line class="cls-17" x1="827.5" y1="238.91" x2="914.96" y2="255.31"/>
    <line class="cls-17" x1="925.9" y1="512.97" x2="904.03" y2="682.44"/>
    <line class="cls-17" x1="1010.59" y1="458.08" x2="980.3" y2="671.65"/>
    <line class="cls-17" x1="802.27" y1="191.37" x2="928" y2="481.11"/>
    <line class="cls-17" x1="622.33" y1="445.96" x2="564.48" y2="587.18"/>
    <line class="cls-17" x1="804.55" y1="927.06" x2="785.39" y2="842.38"/>
    <line class="cls-3" x1="968.89" y1="776.17" x2="787.33" y2="830.79"/>
    <line class="cls-17" x1="832.15" y1="564.22" x2="722.85" y2="576.75"/>
    <line class="cls-17" x1="1015.81" y1="445.29" x2="923.04" y2="267.27"/>
    <path class="cls-17" d="M410.3,367.61l-273.56,135.35s-.46.23-.92.46V123.07l225.43-64.6,374.47,153.07"/>
    <line class="cls-17" x1="1175.79" y1="418.89" x2="1175.79" y2="1375"/>
    <polyline class="cls-16" points="942.15 877.3 942.15 1393.7 1175.79 1393.7"/>
    <line class="cls-17" x1="1997.99" y1="1119.57" x2="1997.99" y2="1057.5"/>
    <g>
      <line class="cls-17" x1="1900.75" y1="668.62" x2="1790.44" y2="628.63"/>
      <line class="cls-17" x1="1892.02" y1="532.85" x2="1703.75" y2="582.27"/>
      <line class="cls-17" x1="1784.68" y1="627.64" x2="1621.51" y2="650.55"/>
      <path class="cls-17" d="M1614.71,657.59l-51.59-85.17s-2.85-4.7-5.69-9.4c.25.03.5.07.5.07l139.1,18.66"/>
      <line class="cls-17" x1="1299.8" y1="318.83" x2="1234.87" y2="230.29"/>
      <line class="cls-17" x1="1392.94" y1="194.11" x2="1344.95" y2="128.73"/>
      <line class="cls-17" x1="1269.67" y1="278.94" x2="1383.29" y2="196.51"/>
      <line class="cls-17" x1="1308.54" y1="319.45" x2="1423.19" y2="314.32"/>
      <line class="cls-17" x1="1430.39" y1="309.9" x2="1553.39" y2="219.56"/>
      <line class="cls-17" x1="1245.53" y1="227.1" x2="1442.7" y2="34.14"/>
      <path class="cls-17" d="M1657.86,1387.43v-66.5s70.31-31.04,70.31-31.04c0,0,8-3.53,18.42-8.13,95.59,0,256.67,0,256.67,0"/>
      <path class="cls-17" d="M1594.51,1278.81v-71.8s74.58-32.43,74.58-32.43c0,0,7.49-3.26,17.74-7.71,106.56,0,314.44,0,314.44,0,0,0,0,62.07,0,62.07"/>
      <path class="cls-17" d="M1629.82,1157.26v-68.72s59.82-31.04,59.82-31.04c0,0,6-3.11,12.78-6.63,36.69-1.25,215.6-7.36,215.6-7.36"/>
      <line class="cls-17" x1="1927.41" y1="1400" x2="1668.36" y2="1400"/>
      <path class="cls-17" d="M1678.26,1400s-337.11,0-390.21,0c0-2.91,0-4.81,0-4.81v-516.52"/>
      <line class="cls-17" x1="1764.73" y1="859.02" x2="2255.97" y2="861.85"/>
      <line class="cls-7" x1="1879.65" y1="1016" x2="2216.61" y2="1002.7"/>
      <path class="cls-9" d="M2341.15,907.19v69.01s-.01,5.57-.02,11.14c-4.39.64-8.79,1.28-8.79,1.28l-104.78,15.22"/>
      <line class="cls-17" x1="2000.47" y1="1358.13" x2="2000.47" y2="1279.92"/>
      <line class="cls-13" x1="1942.1" y1="1400" x2="1993.91" y2="1364.53"/>
      <line class="cls-4" x1="1946.16" y1="1278.62" x2="1997.98" y2="1236.94"/>
      <line class="cls-17" x1="2001.29" y1="1051.09" x2="1966.88" y2="1009.35"/>
      <line class="cls-4" x1="1943.15" y1="1166.86" x2="2000.99" y2="1128.32"/>
      <line class="cls-17" x1="1622.83" y1="884.48" x2="1848.51" y2="947.65"/>
      <line class="cls-17" x1="1854.77" y1="959.92" x2="1886.39" y2="1045.48"/>
      <line class="cls-8" x1="2341.13" y1="896.65" x2="2265.43" y2="860.69"/>
      <path class="cls-17" d="M1629.82,1118.04c-82.42,102.93-201,104.58-249.99,92.54"/>
      <line class="cls-17" x1="1456.97" y1="23.08" x2="1900.75" y2="23.08"/>
      <line class="cls-17" x1="1563.12" y1="216.15" x2="1689.12" y2="216.15"/>
      <line class="cls-17" x1="1900.75" y1="17.62" x2="1900.75" y2="522.58"/>
      <path class="cls-17" d="M1904.02,679.57v129c-1.99,0-3.27,0-3.27,0h-606.87v-435.51c32.58,0,344.68,0,394.39,0,.49-6.04.85-10.37.85-10.37l11.61-140.79"/>
      <line class="cls-17" x1="1291.13" y1="859.02" x2="1753.92" y2="859.02"/>
      <line class="cls-17" x1="1748.97" y1="742.05" x2="1747.89" y2="809.42"/>
      <line class="cls-17" x1="1900.75" y1="743.56" x2="1760.38" y2="744"/>
    </g>
  </g>
</svg>