<?xml version="1.0" encoding="UTF-8"?>
<svg id="_레이어_2" data-name="레이어 2" xmlns="http://www.w3.org/2000/svg" viewBox="0 0 2957.78 1407.09">
  <defs>
    <style>
      .cls-1 {
        stroke-miterlimit: 4;
      }

      .cls-1, .cls-2, .cls-3, .cls-4, .cls-5, .cls-6, .cls-7, .cls-8, .cls-9, .cls-10, .cls-11, .cls-12, .cls-13, .cls-14, .cls-15 {
        fill: none;
        stroke: #000;
        stroke-width: 9.92px;
      }

      .cls-2 {
        stroke-miterlimit: 4;
      }

      .cls-3 {
        stroke-miterlimit: 4;
      }

      .cls-4 {
        stroke-miterlimit: 4;
      }

      .cls-5 {
        stroke-miterlimit: 4;
      }

      .cls-6 {
        stroke-miterlimit: 4;
      }

      .cls-7 {
        stroke-miterlimit: 4;
      }

      .cls-8 {
        stroke-miterlimit: 4;
      }

      .cls-9 {
        stroke-miterlimit: 4;
      }

      .cls-10 {
        stroke-miterlimit: 4;
      }

      .cls-11 {
        stroke-miterlimit: 4;
      }

      .cls-12 {
        stroke-miterlimit: 4;
      }

      .cls-13 {
        stroke-miterlimit: 4;
      }

      .cls-14 {
        stroke-miterlimit: 10;
      }
    </style>
  </defs>
  <g id="_레이어_1-2" data-name="레이어 1">
    <g>
      <path class="cls-15" d="M2453.86,768.01l-100.15-543.79-1.28-6.94c-5.87,8.32-11.74,16.63-11.74,16.63l-216.38,306.47"/>
      <line class="cls-15" x1="1978.76" y1="461.68" x2="2168.35" y2="146.93"/>
      <line class="cls-15" x1="2168.86" y1="140.27" x2="2168.35" y2="8.2"/>
      <line class="cls-11" x1="2578.73" y1="589.4" x2="2541.46" y2="278.72"/>
      <line class="cls-3" x1="1952.33" y1="590.91" x2="2005.2" y2="620.88"/>
      <line class="cls-4" x1="2472.15" y1="767.9" x2="2562.15" y2="754.02"/>
      <line class="cls-15" x1="2109.18" y1="556.03" x2="2019.69" y2="624.43"/>
      <line class="cls-12" x1="2583.43" y1="620.88" x2="2584.33" y2="728.22"/>
      <path class="cls-15" d="M2725.37,4.64l-62.05,99.74-178-31.9"/>
      <path class="cls-15" d="M2845.87,0v166.45s-44.75,58.73-44.75,58.73l-1.6,2.1c-5.5,0-11,0-11,0h-76.1s-52.56,45.06-52.56,45.06c0,0-3.64,3.12-7.27,6.23h-90.71"/>
      <line class="cls-15" x1="2254.7" y1="6.43" x2="2452.73" y2="55.89"/>
      <line class="cls-15" x1="2709.58" y1="209.88" x2="2709.58" y2="31.16"/>
      <line class="cls-15" x1="2561.88" y1="263.36" x2="2561.88" y2="87.4"/>
      <line class="cls-8" x1="1965.72" y1="485.15" x2="1947.36" y2="577.93"/>
      <line class="cls-8" x1="2845.87" y1="5.92" x2="2163.4" y2="5.92"/>
      <path class="cls-15" d="M2333.35,1400.05h213.7s42.73-38.27,42.73-38.27"/>
      <path class="cls-15" d="M1959.09,1400.05h349.37c0-4.11,0-6.68,0-6.68v-61.27l58.29-28.6"/>
      <path class="cls-15" d="M2323.64,527.5h-95.15l-54.22,134.8"/>
      <path class="cls-15" d="M2359.46,1201.5l-48.58,28.71v63.59"/>
      <path class="cls-15" d="M2377.09,1081.91l-66.2,35.16v77.87"/>
      <line class="cls-8" x1="1959.09" y1="1089.21" x2="1959.09" y2="1405.17"/>
      <line class="cls-15" x1="1959.09" y1="1093.17" x2="1990.43" y2="1008.59"/>
      <path class="cls-15" d="M2377.09,920.49l-124.57-18.2s22.02-111.71,25.9-131.42c2.66-5.61,4.84-10.2,4.84-10.2l52.16-109.92"/>
      <line class="cls-10" x1="2874.57" y1="915.22" x2="2390.2" y2="919.29"/>
      <line class="cls-15" x1="2835.78" y1="1043.83" x2="2536.61" y2="1056.03"/>
      <line class="cls-9" x1="2088.79" y1="830.95" x2="2167.41" y2="677.08"/>
      <line class="cls-15" x1="2952.82" y1="949.22" x2="2952.81" y2="1024.91"/>
      <line class="cls-15" x1="2603.55" y1="1296.83" x2="2603.55" y2="1353.9"/>
      <line class="cls-15" x1="2676.42" y1="1189.35" x2="2676.42" y2="1246.43"/>
      <line class="cls-15" x1="2673.46" y1="1250.22" x2="2630.73" y2="1288.48"/>
      <line class="cls-15" x1="2593.84" y1="1296.83" x2="2325.46" y2="1296.83"/>
      <line class="cls-15" x1="2669.59" y1="1089.21" x2="2669.59" y2="1146.2"/>
      <line class="cls-15" x1="2658.85" y1="1150.49" x2="2616.12" y2="1188.76"/>
      <line class="cls-15" x1="2676.42" y1="1193.58" x2="2325.05" y2="1193.58"/>
      <line class="cls-15" x1="2338.25" y1="531.54" x2="2339.1" y2="637.37"/>
      <line class="cls-15" x1="2589.36" y1="1081.91" x2="2390.2" y2="1081.91"/>
      <line class="cls-15" x1="2669.59" y1="1081.91" x2="2606.43" y2="1052.98"/>
      <line class="cls-15" x1="2887.67" y1="917.26" x2="2947.64" y2="941.9"/>
      <line class="cls-15" x1="2847.88" y1="1043.48" x2="2944.79" y2="1031.39"/>
    </g>
    <g>
      <path class="cls-15" d="M856.71,377.98v-231.95c2.82-7.51,28.75-76.55,28.75-76.55"/>
      <path class="cls-15" d="M891.51,60.6h113.91c0,.08.01.09.01.09l46.4,360.33"/>
      <path class="cls-15" d="M713.51,683.14h183.36c0,.92,0,1.84,0,1.84v150.85c-5.24,2.31-9.12,4.02-9.12,4.02l-161.27,71.06"/>
      <line class="cls-15" x1="496.91" y1="1012.98" x2="712.86" y2="916.38"/>
      <path class="cls-14" d="M364.31,787.68L5.4,767.49l-.43-.02c.04,20.81.84,258.32.89,272.19,3.98.38,6.93.67,6.93.67l195.97,19.13,288.15-46.47"/>
      <line class="cls-15" x1="588.17" y1="589.22" x2="547.17" y2="701.29"/>
      <line class="cls-15" x1="495.73" y1="449.85" x2="385.94" y2="448.94"/>
      <line class="cls-15" x1="297.83" y1="370.37" x2="371.63" y2="449.64"/>
      <line class="cls-15" x1="437.74" y1="611.67" x2="492.41" y2="731.94"/>
      <line class="cls-15" x1="724.94" y1="515.22" x2="675.72" y2="687.42"/>
      <line class="cls-15" x1="615.43" y1="242.7" x2="730.23" y2="505.1"/>
      <line class="cls-15" x1="384.6" y1="788.01" x2="548.6" y2="700.54"/>
      <line class="cls-15" x1="560.59" y1="700.23" x2="705.46" y2="683.83"/>
      <line class="cls-15" x1="396.94" y1="125.2" x2="668.13" y2="183.67"/>
      <line class="cls-15" x1="703.54" y1="241.05" x2="791.01" y2="257.45"/>
      <line class="cls-15" x1="801.94" y1="515.1" x2="780.08" y2="684.57"/>
      <line class="cls-15" x1="886.64" y1="460.22" x2="856.35" y2="673.79"/>
      <line class="cls-15" x1="678.32" y1="193.51" x2="804.05" y2="483.25"/>
      <line class="cls-15" x1="498.38" y1="448.09" x2="440.53" y2="589.32"/>
      <line class="cls-15" x1="719.44" y1="903.15" x2="700.29" y2="818.47"/>
      <line class="cls-1" x1="883.79" y1="752.25" x2="702.23" y2="806.87"/>
      <line class="cls-15" x1="708.2" y1="566.36" x2="598.9" y2="578.89"/>
      <line class="cls-15" x1="891.86" y1="447.42" x2="799.09" y2="269.4"/>
      <path class="cls-15" d="M286.35,369.74L12.79,505.1s-.46.23-.92.46V125.2L237.29,60.6l374.47,153.07"/>
      <line class="cls-15" x1="1051.83" y1="421.03" x2="1051.83" y2="1377.14"/>
      <polyline class="cls-15" points="818.2 871.7 818.2 1395.84 1051.83 1395.84"/>
    </g>
    <line class="cls-8" x1="1870.04" y1="1121.71" x2="1870.04" y2="1059.64"/>
    <g>
      <line class="cls-15" x1="1776.8" y1="670.76" x2="1666.48" y2="630.77"/>
      <line class="cls-15" x1="1768.07" y1="534.98" x2="1579.8" y2="584.41"/>
      <line class="cls-15" x1="1660.73" y1="629.77" x2="1497.56" y2="652.69"/>
      <path class="cls-15" d="M1490.76,659.73l-51.59-85.17-5.69-9.4c.25.03.5.07.5.07l139.1,18.66"/>
      <line class="cls-15" x1="1175.85" y1="320.97" x2="1110.92" y2="232.43"/>
      <line class="cls-15" x1="1268.99" y1="196.24" x2="1221" y2="130.87"/>
      <line class="cls-15" x1="1145.72" y1="281.07" x2="1259.34" y2="198.65"/>
      <line class="cls-15" x1="1184.59" y1="321.58" x2="1299.24" y2="316.45"/>
      <line class="cls-15" x1="1306.44" y1="312.04" x2="1429.44" y2="221.7"/>
      <line class="cls-15" x1="1121.57" y1="229.24" x2="1318.75" y2="36.28"/>
      <path class="cls-15" d="M1486.13,1389.57v-66.5s70.31-31.04,70.31-31.04c0,0,8-3.53,18.42-8.13,95.59,0,256.67,0,256.67,0"/>
      <path class="cls-15" d="M1487.98,1280.94v-71.8s74.58-32.43,74.58-32.43l17.74-7.71c106.56,0,314.44,0,314.44,0,0,0,0,62.07,0,62.07"/>
      <path class="cls-15" d="M1505.87,1159.39v-68.72s59.82-31.04,59.82-31.04l12.78-6.63c36.69-1.25,215.6-7.36,215.6-7.36"/>
      <line class="cls-15" x1="1740.24" y1="1402.13" x2="1481.19" y2="1402.13"/>
      <path class="cls-15" d="M1554.31,1402.13s-337.11,0-390.21,0c0-2.91,0-4.81,0-4.81v-516.52"/>
      <line class="cls-15" x1="1640.77" y1="861.16" x2="2132.02" y2="863.99"/>
      <line class="cls-5" x1="1755.7" y1="1018.14" x2="2092.66" y2="1004.84"/>
      <path class="cls-7" d="M2217.2,909.33v69.01s-.01,5.57-.02,11.14c-4.39.64-8.79,1.28-8.79,1.28l-104.78,15.22"/>
      <line class="cls-8" x1="1806.33" y1="1360.26" x2="1806.33" y2="1282.05"/>
      <line class="cls-13" x1="1747.96" y1="1402.13" x2="1799.77" y2="1366.66"/>
      <line class="cls-2" x1="1842.93" y1="1280.75" x2="1894.74" y2="1239.08"/>
      <line class="cls-8" x1="1877.34" y1="1053.23" x2="1842.93" y2="1011.49"/>
      <line class="cls-2" x1="1819.2" y1="1168.99" x2="1877.04" y2="1130.46"/>
      <line class="cls-15" x1="1498.88" y1="886.61" x2="1724.56" y2="949.79"/>
      <line class="cls-15" x1="1730.82" y1="962.06" x2="1762.44" y2="1047.62"/>
      <line class="cls-6" x1="2217.18" y1="898.79" x2="2141.47" y2="862.82"/>
      <path class="cls-15" d="M1505.87,1120.18c-82.42,102.93-201,104.58-249.99,92.54"/>
      <line class="cls-15" x1="1333.02" y1="25.21" x2="1776.8" y2="25.21"/>
      <line class="cls-15" x1="1439.17" y1="218.28" x2="1565.16" y2="218.28"/>
      <line class="cls-15" x1="1776.8" y1="19.76" x2="1776.8" y2="524.72"/>
      <path class="cls-15" d="M1780.07,681.71v129c-1.99,0-3.27,0-3.27,0h-606.87v-435.51c32.58,0,344.68,0,394.39,0,.49-6.04.85-10.37.85-10.37l11.61-140.79"/>
      <line class="cls-15" x1="1167.18" y1="861.16" x2="1629.97" y2="861.16"/>
      <line class="cls-15" x1="1625.02" y1="744.19" x2="1623.94" y2="811.55"/>
      <line class="cls-15" x1="1776.8" y1="745.7" x2="1636.43" y2="746.13"/>
    </g>
  </g>
</svg>