<svg width="533" height="558" viewBox="0 0 533 558" fill="none" xmlns="http://www.w3.org/2000/svg">
<path d="M44.4271 147.286V79.8606H120.424V147.286H107.996L106.281 143.715H58.5693L56.8551 147.286H44.4271ZM57.9979 131.573H106.853V92.0029H57.9979V131.573Z" fill="#D1D1D1"/>
<rect x="1.74" y="26.74" width="529.52" height="529.52" stroke="black" stroke-width="3.48"/>
<line y1="-1.7468" x2="73.3656" y2="-1.7468" transform="matrix(-4.37114e-08 -1 -1 4.37114e-08 408.814 332.24)" stroke="black" stroke-width="3.4936"/>
<line y1="-1.7468" x2="112.494" y2="-1.7468" transform="matrix(-4.50689e-08 -1 -1 4.50689e-08 408.814 453.817)" stroke="black" stroke-width="3.4936"/>
<line x1="232.225" y1="448.761" x2="409.001" y2="448.761" stroke="black" stroke-width="3.4936"/>
<line x1="235.368" y1="173.115" x2="235.368" y2="298.885" stroke="black" stroke-width="3.4936"/>
<line x1="292.663" y1="165.43" x2="292.663" y2="259.058" stroke="black" stroke-width="3.4936"/>
<line x1="335.286" y1="157.045" x2="335.286" y2="251.372" stroke="black" stroke-width="3.4936"/>
<line x1="367.426" y1="224.122" x2="367.426" y2="295.392" stroke="black" stroke-width="3.4936"/>
<line x1="192.658" y1="324.887" x2="235.28" y2="453.451" stroke="black" stroke-width="3.4936"/>
<line x1="230.465" y1="136.471" x2="263.304" y2="129.484" stroke="black" stroke-width="3.4936"/>
<line x1="273.086" y1="136.471" x2="305.926" y2="129.484" stroke="black" stroke-width="3.4936"/>
<line x1="372.482" y1="242.332" x2="392.047" y2="242.332" stroke="black" stroke-width="3.4936"/>
<line x1="218.949" y1="189.535" x2="238.513" y2="189.535" stroke="black" stroke-width="3.4936"/>
<line x1="333.539" y1="205.606" x2="353.103" y2="205.606" stroke="black" stroke-width="3.4936"/>
<line x1="394.833" y1="243.02" x2="406.012" y2="257.693" stroke="black" stroke-width="3.4936"/>
<line x1="202.87" y1="175.55" x2="214.049" y2="190.224" stroke="black" stroke-width="3.4936"/>
<line x1="355.889" y1="206.294" x2="367.069" y2="220.967" stroke="black" stroke-width="3.4936"/>
<line x1="205.666" y1="169.282" x2="229.422" y2="137.141" stroke="black" stroke-width="3.4936"/>
<line x1="195.027" y1="326.751" x2="222.278" y2="272.251" stroke="black" stroke-width="3.4936"/>
<line x1="292.078" y1="157.839" x2="272" y2="127.975" stroke="black" stroke-width="3.4936"/>
<line x1="334.699" y1="157.839" x2="314.621" y2="127.975" stroke="black" stroke-width="3.4936"/>
</svg>
