<?xml version="1.0" encoding="UTF-8"?>
<svg id="_레이어_2" data-name="레이어 2" xmlns="http://www.w3.org/2000/svg" viewBox="0 0 13698.41 1994.98">
  <defs>
    <style>
      .cls-1 {
        fill: #000;
        stroke-width: 0px;
      }
    </style>
  </defs>
  <g id="_레이어_1-2" data-name="레이어 1">
    <g>
      <path class="cls-1" d="M0,797.99v-365.75h33.25v332.5h249.37v33.25H0ZM498.74,0h33.25v598.49h216.12V0h33.25v1230.23h-33.25v-598.49h-216.12v598.49h-33.25V0Z"/>
      <path class="cls-1" d="M1724.78,432.24c101.83,0,182.87,81.05,182.87,182.87s-81.05,182.87-182.87,182.87-182.87-81.05-182.87-182.87,81.05-182.87,182.87-182.87ZM1724.78,764.74c83.12,0,149.62-66.5,149.62-149.62s-66.5-149.62-149.62-149.62-149.62,66.5-149.62,149.62,66.5,149.62,149.62,149.62ZM2132.09,0h33.25v1230.23h-33.25V0Z"/>
      <path class="cls-1" d="M2373.13,1149.19h615.12v33.25h-615.12v-33.25ZM2822,336.65v295.09h-249.37v228.59h249.37v33.25h-282.62v-295.09h249.37v-228.59h-249.37v-33.25h282.62ZM2539.38,1533.64h282.62v365.75h-282.62v-365.75ZM2788.75,1866.13v-299.25h-216.12v299.25h216.12Z"/>
      <path class="cls-1" d="M3196.04,1149.19h615.12v33.25h-615.12v-33.25ZM3505.68,432.24c101.83,0,182.87,81.05,182.87,182.87s-81.05,182.87-182.87,182.87-182.87-81.05-182.87-182.87,81.05-182.87,182.87-182.87ZM3505.68,764.74c83.12,0,149.62-66.5,149.62-149.62s-66.5-149.62-149.62-149.62-149.62,66.5-149.62,149.62,66.5,149.62,149.62,149.62ZM3362.29,1699.89h249.37v-228.59h-249.37v-33.25h282.62v295.09h-249.37v228.59h249.37v33.25h-282.62v-295.09Z"/>
      <path class="cls-1" d="M4567.55,1105.55h531.99v33.25h-249.37v249.37h-33.25v-249.37h-249.37v-33.25ZM4816.92,621.35v-230.67h33.25v230.67l178.72,180.8-22.86,22.86-172.48-172.48-172.48,172.48-22.86-22.86,178.72-180.8Z"/>
      <path class="cls-1" d="M5897.5,631.74h-226.51c-8.31,93.52-85.2,166.25-180.8,166.25-101.83,0-182.87-81.05-182.87-182.87s81.05-182.87,182.87-182.87c95.59,0,172.48,72.73,180.8,166.25h226.51V0h33.25v1230.23h-33.25v-598.49ZM5490.19,764.74c83.12,0,149.62-66.5,149.62-149.62s-66.5-149.62-149.62-149.62-149.62,66.5-149.62,149.62,66.5,149.62,149.62,149.62Z"/>
      <path class="cls-1" d="M6138.54,1192.83h249.37v-249.37h33.25v249.37h249.37v33.25h-531.99v-33.25ZM6545.84,336.65v295.09h-249.37v228.59h249.37v33.25h-282.62v-295.09h249.37v-228.59h-249.37v-33.25h282.62Z"/>
      <path class="cls-1" d="M7406.12,1192.83h228.59v-249.37h33.25v249.37h216.12v-249.37h33.25v249.37h228.59v33.25h-739.8v-33.25ZM7447.68,731.49h187.03v-232.75h-187.03v-33.25h656.68v33.25h-187.03v232.75h187.03v33.25h-656.68v-33.25ZM7884.09,731.49v-232.75h-216.12v232.75h216.12Z"/>
      <path class="cls-1" d="M8312.14,450.95h249.37V172.48h33.25v278.47h249.37v33.25h-531.99v-33.25ZM8580.22,617.2c91.44,0,164.17,72.73,164.17,164.17s-72.73,164.17-164.17,164.17-164.17-72.73-164.17-164.17,72.73-164.17,164.17-164.17ZM8580.22,912.29c72.73,0,130.92-58.19,130.92-130.92s-58.19-130.92-130.92-130.92-130.92,58.19-130.92,130.92,58.19,130.92,130.92,130.92ZM8898.17,764.74h182.87v-299.25h-182.87v-33.25h182.87V0h33.25v1230.23h-33.25v-432.24h-182.87v-33.25ZM8956.35,1450.51h33.25v332.5h249.37v33.25h-282.62v-365.75Z"/>
      <path class="cls-1" d="M9342.84,450.95h249.37V172.48h33.25v278.47h249.37v33.25h-531.99v-33.25ZM9610.92,617.2c91.44,0,164.17,72.73,164.17,164.17s-72.73,164.17-164.17,164.17-164.17-72.73-164.17-164.17,72.73-164.17,164.17-164.17ZM9610.92,912.29c72.73,0,130.92-58.19,130.92-130.92s-58.19-130.92-130.92-130.92-130.92,58.19-130.92,130.92,58.19,130.92,130.92,130.92ZM10215.65,631.74h-216.12v598.49h-33.25V0h33.25v598.49h216.12V0h33.25v1230.23h-33.25v-598.49Z"/>
      <path class="cls-1" d="M11009.45,1192.83h249.37v-249.37h33.25v249.37h249.37v33.25h-531.99v-33.25ZM11167.38,598.49h216.12v-261.84h33.25v556.93h-282.62V336.65h33.25v261.84ZM11383.5,860.33v-228.59h-216.12v228.59h216.12Z"/>
      <path class="cls-1" d="M11932.09,432.24c101.83,0,182.87,81.05,182.87,182.87s-81.05,182.87-182.87,182.87-182.87-81.05-182.87-182.87,81.04-182.87,182.87-182.87ZM11932.09,764.74c83.12,0,149.62-66.5,149.62-149.62s-66.5-149.62-149.62-149.62-149.62,66.5-149.62,149.62,66.5,149.62,149.62,149.62ZM12318.61,0h33.25v598.49h249.37v33.25h-249.37v598.49h-33.25V0Z"/>
      <path class="cls-1" d="M12663.55,1192.83h228.59v-249.37h33.25v249.37h216.12v-249.37h33.25v249.37h228.59v33.25h-739.8v-33.25ZM13035.53,432.24c101.83,0,182.87,81.05,182.87,182.87s-81.04,182.87-182.87,182.87-182.87-81.05-182.87-182.87,81.05-182.87,182.87-182.87ZM13035.53,764.74c83.12,0,149.62-66.5,149.62-149.62s-66.5-149.62-149.62-149.62-149.62,66.5-149.62,149.62,66.5,149.62,149.62,149.62Z"/>
      <path class="cls-1" d="M13623.59,1059.83c41.56,0,74.81,33.25,74.81,74.81s-33.25,74.81-74.81,74.81-74.81-33.25-74.81-74.81,33.25-74.81,74.81-74.81ZM13665.16,1134.64c0-22.86-18.7-41.56-41.56-41.56s-41.56,18.7-41.56,41.56,18.7,41.56,41.56,41.56,41.56-18.7,41.56-41.56Z"/>
    </g>
  </g>
</svg>