<svg width="1713" height="289" viewBox="0 0 1713 289" fill="none" xmlns="http://www.w3.org/2000/svg">
<path d="M41.4 115.4H0.6V62.6H5.4V110.6H41.4V115.4ZM72.6 177.8V0.199981H77.4V86.6H108.6V0.199981H113.4V177.8H108.6V91.4H77.4V177.8H72.6ZM223.242 89C223.242 74.3 234.942 62.6 249.642 62.6C264.342 62.6 276.042 74.3 276.042 89C276.042 103.7 264.342 115.4 249.642 115.4C234.942 115.4 223.242 103.7 223.242 89ZM228.042 89C228.042 101 237.642 110.6 249.642 110.6C261.642 110.6 271.242 101 271.242 89C271.242 77 261.642 67.4 249.642 67.4C237.642 67.4 228.042 77 228.042 89ZM308.442 177.8V0.199981H313.242V177.8H308.442ZM367.359 48.8H408.159V91.4H372.159V124.4H408.159V129.2H367.359V86.6H403.359V53.6H367.359V48.8ZM343.359 170.9V166.1H432.159V170.9H343.359ZM367.359 274.4V221.6H408.159V274.4H367.359ZM372.159 269.6H403.359V226.4H372.159V269.6ZM480.605 89C480.605 74.3 492.305 62.6 507.005 62.6C521.705 62.6 533.405 74.3 533.405 89C533.405 103.7 521.705 115.4 507.005 115.4C492.305 115.4 480.605 103.7 480.605 89ZM462.305 170.9V166.1H551.105V170.9H462.305ZM485.405 89C485.405 101 495.005 110.6 507.005 110.6C519.005 110.6 528.605 101 528.605 89C528.605 77 519.005 67.4 507.005 67.4C495.005 67.4 485.405 77 485.405 89ZM486.305 288.2V245.6H522.305V212.6H486.305V207.8H527.105V250.4H491.105V283.4H527.105V288.2H486.305ZM670.552 116L696.352 89.9V56.6H701.152V89.9L726.952 116L723.652 119.3L698.752 94.4L673.852 119.3L670.552 116ZM660.352 164.6V159.8H737.152V164.6H701.152V200.6H696.352V164.6H660.352ZM852.485 177.8V91.4H819.785C818.585 104.9 807.485 115.4 793.685 115.4C778.985 115.4 767.285 103.7 767.285 89C767.285 74.3 778.985 62.6 793.685 62.6C807.485 62.6 818.585 73.1 819.785 86.6H852.485V0.199981H857.285V177.8H852.485ZM772.085 89C772.085 101 781.685 110.6 793.685 110.6C805.685 110.6 815.285 101 815.285 89C815.285 77 805.685 67.4 793.685 67.4C781.685 67.4 772.085 77 772.085 89ZM905.402 48.8H946.202V91.4H910.202V124.4H946.202V129.2H905.402V86.6H941.402V53.6H905.402V48.8ZM887.402 177.2V172.4H923.402V136.4H928.202V172.4H964.202V177.2H887.402ZM1096.24 48.8V86.6H1127.44V48.8H1132.24V129.2H1091.44V48.8H1096.24ZM1073.44 177.2V172.4H1109.44V136.4H1114.24V172.4H1150.24V177.2H1073.44ZM1096.24 124.4H1127.44V91.4H1096.24V124.4ZM1221.77 115.4H1180.97V62.6H1185.77V110.6H1221.77V115.4ZM1252.97 177.8V0.199981H1257.77V86.6H1288.97V0.199981H1293.77V177.8H1288.97V91.4H1257.77V177.8H1252.97ZM1347.31 48.8V86.6H1378.51V48.8H1383.31V129.2H1342.51V48.8H1347.31ZM1324.51 177.2V172.4H1360.51V136.4H1365.31V172.4H1401.31V177.2H1324.51ZM1347.31 124.4H1378.51V91.4H1347.31V124.4ZM1431.45 89C1431.45 74.3 1443.15 62.6 1457.85 62.6C1472.55 62.6 1484.25 74.3 1484.25 89C1484.25 103.7 1472.55 115.4 1457.85 115.4C1443.15 115.4 1431.45 103.7 1431.45 89ZM1436.25 89C1436.25 101 1445.85 110.6 1457.85 110.6C1469.85 110.6 1479.45 101 1479.45 89C1479.45 77 1469.85 67.4 1457.85 67.4C1445.85 67.4 1436.25 77 1436.25 89ZM1513.65 177.8V0.199981H1518.45V86.6H1554.45V91.4H1518.45V177.8H1513.65ZM1590.73 89C1590.73 74.3 1602.43 62.6 1617.13 62.6C1631.83 62.6 1643.53 74.3 1643.53 89C1643.53 103.7 1631.83 115.4 1617.13 115.4C1602.43 115.4 1590.73 103.7 1590.73 89ZM1563.43 177.2V172.4H1596.43V136.4H1601.23V172.4H1632.43V136.4H1637.23V172.4H1670.23V177.2H1563.43ZM1595.53 89C1595.53 101 1605.13 110.6 1617.13 110.6C1629.13 110.6 1638.73 101 1638.73 89C1638.73 77 1629.13 67.4 1617.13 67.4C1605.13 67.4 1595.53 77 1595.53 89ZM1702.04 170C1705.34 170 1708.04 167.3 1708.04 164C1708.04 160.7 1705.34 158 1702.04 158C1698.74 158 1696.04 160.7 1696.04 164C1696.04 167.3 1698.74 170 1702.04 170ZM1691.24 164C1691.24 158 1696.04 153.2 1702.04 153.2C1708.04 153.2 1712.84 158 1712.84 164C1712.84 170 1708.04 174.8 1702.04 174.8C1696.04 174.8 1691.24 170 1691.24 164Z" fill="black"/>
</svg>
