<?xml version="1.0" encoding="UTF-8"?>
<svg id="_레이어_2" data-name="레이어 2" xmlns="http://www.w3.org/2000/svg" viewBox="0 0 3955.12 576.01">
  <defs>
    <style>
      .cls-1 {
        fill: #000;
        stroke-width: 0px;
      }
    </style>
  </defs>
  <g id="_레이어_1-2" data-name="레이어 1">
    <g>
      <path class="cls-1" d="M0,230.4v-105.6h9.6v96h72v9.6H0ZM144,0h9.6v172.8h62.4V0h9.6v355.2h-9.6v-172.8h-62.4v172.8h-9.6V0Z"/>
      <path class="cls-1" d="M497.99,124.8c29.4,0,52.8,23.4,52.8,52.8s-23.4,52.8-52.8,52.8-52.8-23.4-52.8-52.8,23.4-52.8,52.8-52.8ZM497.99,220.8c24,0,43.2-19.2,43.2-43.2s-19.2-43.2-43.2-43.2-43.2,19.2-43.2,43.2,19.2,43.2,43.2,43.2ZM615.59,0h9.6v355.2h-9.6V0Z"/>
      <path class="cls-1" d="M685.19,331.8h177.6v9.6h-177.6v-9.6ZM814.79,97.2v85.2h-72v66h72v9.6h-81.6v-85.2h72v-66h-72v-9.6h81.6ZM733.19,442.8h81.6v105.6h-81.6v-105.6ZM805.19,538.81v-86.4h-62.4v86.4h62.4Z"/>
      <path class="cls-1" d="M922.79,331.8h177.6v9.6h-177.6v-9.6ZM1012.19,124.8c29.4,0,52.8,23.4,52.8,52.8s-23.4,52.8-52.8,52.8-52.8-23.4-52.8-52.8,23.4-52.8,52.8-52.8ZM1012.19,220.8c24,0,43.2-19.2,43.2-43.2s-19.2-43.2-43.2-43.2-43.2,19.2-43.2,43.2,19.2,43.2,43.2,43.2ZM970.79,490.81h72v-66h-72v-9.6h81.6v85.2h-72v66h72v9.6h-81.6v-85.2Z"/>
      <path class="cls-1" d="M1318.78,319.2h153.6v9.6h-72v72h-9.6v-72h-72v-9.6ZM1390.78,179.4v-66.6h9.6v66.6l51.6,52.2-6.6,6.6-49.8-49.8-49.8,49.8-6.6-6.6,51.6-52.2Z"/>
      <path class="cls-1" d="M1702.77,182.4h-65.4c-2.4,27-24.6,48-52.2,48-29.4,0-52.8-23.4-52.8-52.8s23.4-52.8,52.8-52.8c27.6,0,49.8,21,52.2,48h65.4V0h9.6v355.2h-9.6v-172.8ZM1585.17,220.8c24,0,43.2-19.2,43.2-43.2s-19.2-43.2-43.2-43.2-43.2,19.2-43.2,43.2,19.2,43.2,43.2,43.2Z"/>
      <path class="cls-1" d="M1772.37,344.4h72v-72h9.6v72h72v9.6h-153.6v-9.6ZM1889.97,97.2v85.2h-72v66h72v9.6h-81.6v-85.2h72v-66h-72v-9.6h81.6Z"/>
      <path class="cls-1" d="M2138.36,344.4h66v-72h9.6v72h62.4v-72h9.6v72h66v9.6h-213.6v-9.6ZM2150.36,211.2h54v-67.2h-54v-9.6h189.6v9.6h-54v67.2h54v9.6h-189.6v-9.6ZM2276.36,211.2v-67.2h-62.4v67.2h62.4Z"/>
      <path class="cls-1" d="M2399.95,130.2h72V49.8h9.6v80.4h72v9.6h-153.6v-9.6ZM2477.35,178.2c26.4,0,47.4,21,47.4,47.4s-21,47.4-47.4,47.4-47.4-21-47.4-47.4,21-47.4,47.4-47.4ZM2477.35,263.4c21,0,37.8-16.8,37.8-37.8s-16.8-37.8-37.8-37.8-37.8,16.8-37.8,37.8,16.8,37.8,37.8,37.8ZM2569.15,220.8h52.8v-86.4h-52.8v-9.6h52.8V0h9.6v355.2h-9.6v-124.8h-52.8v-9.6ZM2585.95,418.8h9.6v96h72v9.6h-81.6v-105.6Z"/>
      <path class="cls-1" d="M2697.54,130.2h72V49.8h9.6v80.4h72v9.6h-153.6v-9.6ZM2774.94,178.2c26.4,0,47.4,21,47.4,47.4s-21,47.4-47.4,47.4-47.4-21-47.4-47.4,21-47.4,47.4-47.4ZM2774.94,263.4c21,0,37.8-16.8,37.8-37.8s-16.8-37.8-37.8-37.8-37.8,16.8-37.8,37.8,16.8,37.8,37.8,37.8ZM2949.55,182.4h-62.4v172.8h-9.6V0h9.6v172.8h62.4V0h9.6v355.2h-9.6v-172.8Z"/>
      <path class="cls-1" d="M3178.74,344.4h72v-72h9.6v72h72v9.6h-153.6v-9.6ZM3224.34,172.8h62.4v-75.6h9.6v160.8h-81.6V97.2h9.6v75.6ZM3286.74,248.4v-66h-62.4v66h62.4Z"/>
      <path class="cls-1" d="M3445.13,124.8c29.4,0,52.8,23.4,52.8,52.8s-23.4,52.8-52.8,52.8-52.8-23.4-52.8-52.8,23.4-52.8,52.8-52.8ZM3445.13,220.8c24,0,43.2-19.2,43.2-43.2s-19.2-43.2-43.2-43.2-43.2,19.2-43.2,43.2,19.2,43.2,43.2,43.2ZM3556.73,0h9.6v172.8h72v9.6h-72v172.8h-9.6V0Z"/>
      <path class="cls-1" d="M3656.33,344.4h66v-72h9.6v72h62.4v-72h9.6v72h66v9.6h-213.6v-9.6ZM3763.73,124.8c29.4,0,52.8,23.4,52.8,52.8s-23.4,52.8-52.8,52.8-52.8-23.4-52.8-52.8,23.4-52.8,52.8-52.8ZM3763.73,220.8c24,0,43.2-19.2,43.2-43.2s-19.2-43.2-43.2-43.2-43.2,19.2-43.2,43.2,19.2,43.2,43.2,43.2Z"/>
      <path class="cls-1" d="M3933.52,306c12,0,21.6,9.6,21.6,21.6s-9.6,21.6-21.6,21.6-21.6-9.6-21.6-21.6,9.6-21.6,21.6-21.6ZM3945.52,327.6c0-6.6-5.4-12-12-12s-12,5.4-12,12,5.4,12,12,12,12-5.4,12-12Z"/>
    </g>
  </g>
</svg>