<svg width="533" height="558" viewBox="0 0 533 558" fill="none" xmlns="http://www.w3.org/2000/svg">
<path d="M44.1414 146.715V79.8606H57.7122V134.144C67.426 134.001 112.138 132.715 121.566 132.001V144.143C111.71 144.858 58.855 146.572 44.1414 146.715Z" fill="#D1D1D1"/>
<rect x="1.74" y="26.74" width="529.52" height="529.52" stroke="black" stroke-width="3.48"/>
<path d="M320.3 137L354.045 137L373.275 185.258" stroke="black" stroke-width="3.62842"/>
<path d="M294.541 412.396L315.223 422.556L315.223 444.327" stroke="black" stroke-width="3.62842"/>
<path d="M297.081 376.113L314.678 386.273L314.678 408.769" stroke="black" stroke-width="3.62842"/>
<path d="M314.133 372.123L314.133 350.352L278.937 333.299" stroke="black" stroke-width="3.62842"/>
<line x1="316.674" y1="448.681" x2="240.477" y2="448.681" stroke="black" stroke-width="3.62842"/>
<line x1="442.941" y1="448.681" x2="326.106" y2="448.681" stroke="black" stroke-width="3.62842"/>
<line x1="441.131" y1="338.744" x2="441.131" y2="446.871" stroke="black" stroke-width="3.62842"/>
<line y1="-1.81421" x2="88.7741" y2="-1.81421" transform="matrix(-0.295895 -0.955221 -0.955221 0.295895 439.314 339.021)" stroke="black" stroke-width="3.62842"/>
<path d="M299.984 276.334L344.977 271.254L336.994 222.996" stroke="black" stroke-width="3.62842"/>
<line x1="123.66" y1="274.518" x2="296.37" y2="275.969" stroke="black" stroke-width="3.62842"/>
<line y1="-1.81421" x2="106.764" y2="-1.81421" transform="matrix(0.999168 0.0407824 0.0407824 -0.999168 133.803 319.873)" stroke="black" stroke-width="3.62842"/>
<line x1="415.28" y1="255.522" x2="376.744" y2="193.84" stroke="black" stroke-width="3.62842"/>
<line y1="-1.81421" x2="21.0449" y2="-1.81421" transform="matrix(0.000190549 1 1 -0.000190549 99.6914 292.297)" stroke="black" stroke-width="3.62842"/>
<line x1="336.042" y1="220.422" x2="317.445" y2="175.429" stroke="black" stroke-width="3.62842"/>
<line y1="-1.81421" x2="20.3192" y2="-1.81421" transform="matrix(4.37114e-08 1 1 -4.37114e-08 225.109 409.133)" stroke="black" stroke-width="3.62842"/>
<line y1="-1.81421" x2="19.1586" y2="-1.81421" transform="matrix(0.795432 0.606043 0.606043 -0.795432 225.109 430.902)" stroke="black" stroke-width="3.62842"/>
<line y1="-1.81421" x2="20.3192" y2="-1.81421" transform="matrix(4.37114e-08 1 1 -4.37114e-08 195.355 372.848)" stroke="black" stroke-width="3.62842"/>
<line y1="-1.81421" x2="20.4536" y2="-1.81421" transform="matrix(0.745076 0.666979 0.666979 -0.745076 196.082 393.894)" stroke="black" stroke-width="3.62842"/>
<line x1="213.625" y1="409.496" x2="309.415" y2="409.496" stroke="black" stroke-width="3.62842"/>
<line y1="-1.81421" x2="20.3192" y2="-1.81421" transform="matrix(4.37114e-08 1 1 -4.37114e-08 200.566 337.289)" stroke="black" stroke-width="3.62842"/>
<line y1="-1.81421" x2="20.4536" y2="-1.81421" transform="matrix(0.745076 0.666979 0.666979 -0.745076 201.291 358.334)" stroke="black" stroke-width="3.62842"/>
<line y1="-1.81421" x2="90.7106" y2="-1.81421" transform="matrix(1 0 0 -1 218.709 372.121)" stroke="black" stroke-width="3.62842"/>
<line y1="-1.81421" x2="37.7356" y2="-1.81421" transform="matrix(-0.00805468 0.999968 0.999968 0.00805468 320.303 138.451)" stroke="black" stroke-width="3.62842"/>
<line y1="-1.81421" x2="71.1171" y2="-1.81421" transform="matrix(1 0 0 -1 203.469 330.785)" stroke="black" stroke-width="3.62842"/>
<line y1="-1.81421" x2="24.9994" y2="-1.81421" transform="matrix(-0.926064 0.377365 0.377365 0.926064 126.543 276.332)" stroke="black" stroke-width="3.62842"/>
<line y1="-1.81421" x2="27.2011" y2="-1.81421" transform="matrix(-0.987105 -0.160071 -0.160071 0.987105 130.176 324.228)" stroke="black" stroke-width="3.62842"/>
</svg>
