<svg width="533" height="570" viewBox="0 0 533 570" fill="none" xmlns="http://www.w3.org/2000/svg">
<path d="M32.4282 139.287H89.7114V98.4312H103.282V139.287H160.422V151.429H32.4282V139.287Z" fill="#D1D1D1"/>
<rect x="1.74" y="38.74" width="529.52" height="529.52" stroke="black" stroke-width="3.48"/>
<path d="M342.458 330.797L326.99 303.64L279.339 310.284" stroke="black" stroke-width="3.4"/>
<path d="M340.648 331.458L348.841 338.233L366.395 338.233" stroke="black" stroke-width="3.4"/>
<line y1="-1.7" x2="78.5947" y2="-1.7" transform="matrix(-4.37114e-08 -1 -1 4.37114e-08 368.805 339.586)" stroke="black" stroke-width="3.4"/>
<line x1="367.105" y1="461.071" x2="367.105" y2="349.071" stroke="black" stroke-width="3.4"/>
<line x1="194.297" y1="463.911" x2="367.07" y2="463.911" stroke="black" stroke-width="3.4"/>
<path d="M250.489 393.087L242.325 370.983L276.108 356.488" stroke="black" stroke-width="3.4"/>
<line y1="-1.7" x2="310.314" y2="-1.7" transform="matrix(4.37114e-08 1 1 -4.37114e-08 194 141.744)" stroke="black" stroke-width="3.4"/>
<line x1="240.277" y1="151.925" x2="244.742" y2="261.312" stroke="black" stroke-width="3.4"/>
<line y1="-1.7" x2="69.2648" y2="-1.7" transform="matrix(0.971682 -0.23629 -0.23629 -0.971682 203.609 326.115)" stroke="black" stroke-width="3.4"/>
<line y1="-1.7" x2="30.3904" y2="-1.7" transform="matrix(0.991901 -0.127013 -0.127013 -0.991901 282.488 352.904)" stroke="black" stroke-width="3.4"/>
<line x1="330.187" y1="243.708" x2="351.191" y2="243.708" stroke="black" stroke-width="3.4"/>
<line x1="353.79" y1="244.59" x2="365.696" y2="260.217" stroke="black" stroke-width="3.4"/>
<line y1="-1.7" x2="15.5834" y2="-1.7" transform="matrix(1 0 0 -1 293.07 237.277)" stroke="black" stroke-width="3.4"/>
<line x1="203.785" y1="114.3" x2="232.919" y2="114.3" stroke="black" stroke-width="3.4"/>
<line y1="-1.7" x2="15.5834" y2="-1.7" transform="matrix(1 0 0 -1 249.711 233.889)" stroke="black" stroke-width="3.4"/>
<line y1="-1.7" x2="18.4226" y2="-1.7" transform="matrix(0.759333 0.650702 -0.824346 0.566087 314.336 237.725)" stroke="black" stroke-width="3.4"/>
<line y1="-1.7" x2="18.4226" y2="-1.7" transform="matrix(0.759333 0.650702 -0.824346 0.566087 271.273 234.089)" stroke="black" stroke-width="3.4"/>
<line y1="-1.7" x2="58.2685" y2="-1.7" transform="matrix(5.69814e-08 1 1 -3.35318e-08 332.367 251.505)" stroke="black" stroke-width="3.4"/>
<line y1="-1.7" x2="69.1092" y2="-1.7" transform="matrix(5.69814e-08 1 1 -3.35318e-08 293.07 237.277)" stroke="black" stroke-width="3.4"/>
<line x1="251.553" y1="237.423" x2="244.778" y2="317.373" stroke="black" stroke-width="3.4"/>
<line x1="342.142" y1="332.931" x2="311.914" y2="350.472" stroke="black" stroke-width="3.4"/>
<line x1="239.095" y1="143.805" x2="234.631" y2="116.272" stroke="black" stroke-width="3.4"/>
<line x1="192.452" y1="137.297" x2="202.452" y2="115.296" stroke="black" stroke-width="3.4"/>
<path d="M330.338 450.98C326.633 432.842 306.519 394.576 255.7 386.623" stroke="black" stroke-width="3.4"/>
</svg>
