<svg width="533" height="558" viewBox="0 0 533 558" fill="none" xmlns="http://www.w3.org/2000/svg">
<path d="M140.137 177.713H126.566V50.1477H140.137V177.713ZM24.571 135.144C30.7136 135.144 48.1414 135.001 66.7119 134.715V98.1455H80.2828V134.572C100.139 134.144 118.567 133.858 122.995 133.572V145.429C113.996 146 40.1417 147 25.4281 147L24.571 135.144Z" fill="#D1D1D1"/>
<rect x="1.74" y="26.74" width="529.52" height="529.52" stroke="black" stroke-width="3.48"/>
<line x1="187.3" y1="446" x2="187.3" y2="169.789" stroke="black" stroke-width="3.4"/>
<line y1="-1.7" x2="136.959" y2="-1.7" transform="matrix(4.37114e-08 -1 -1 -4.37114e-08 364.93 254.601)" stroke="black" stroke-width="3.4"/>
<line x1="319.675" y1="219.644" x2="319.675" y2="110.191" stroke="black" stroke-width="3.4"/>
<line x1="226.841" y1="274.084" x2="226.841" y2="161.193" stroke="black" stroke-width="3.4"/>
<line x1="388.422" y1="444.262" x2="193.584" y2="444.262" stroke="black" stroke-width="3.4"/>
<line x1="390.122" y1="307.321" x2="390.122" y2="442.562" stroke="black" stroke-width="3.4"/>
<line y1="-1.7" x2="27.5065" y2="-1.7" transform="matrix(1 1.67841e-07 1.85713e-07 -1 325.387 93)" stroke="black" stroke-width="3.4"/>
<line x1="356.091" y1="95.6049" x2="366.406" y2="113.943" stroke="black" stroke-width="3.4"/>
<line y1="-1.7" x2="28.0795" y2="-1.7" transform="matrix(1 1.74846e-07 1.74846e-07 -1 193.586 157.755)" stroke="black" stroke-width="3.4"/>
<line y1="-1.7" x2="22.158" y2="-1.7" transform="matrix(-1 0 0 1 315.617 217.27)" stroke="black" stroke-width="3.4"/>
<line y1="-1.7" x2="22.3046" y2="-1.7" transform="matrix(-0.66698 0.745076 0.745076 0.66698 292.668 218.062)" stroke="black" stroke-width="3.4"/>
<line y1="-1.7" x2="98.9197" y2="-1.7" transform="matrix(-4.37114e-08 1 1 4.37114e-08 277.633 237.054)" stroke="black" stroke-width="3.4"/>
<line y1="-1.7" x2="22.158" y2="-1.7" transform="matrix(-1 0 0 1 277.633 223.601)" stroke="black" stroke-width="3.4"/>
<line y1="-1.7" x2="22.3046" y2="-1.7" transform="matrix(-0.66698 0.745076 0.745076 0.66698 254.684 224.392)" stroke="black" stroke-width="3.4"/>
<line y1="-1.7" x2="98.9197" y2="-1.7" transform="matrix(-4.37114e-08 1 1 4.37114e-08 239.648 243.385)" stroke="black" stroke-width="3.4"/>
<path d="M318.784 232.424L345.804 227.308L368.52 263.035" stroke="black" stroke-width="3.4"/>
<path d="M330.337 331.954L349.808 324.824L340.262 293.916" stroke="black" stroke-width="3.4"/>
<line x1="385.262" y1="301.788" x2="372.104" y2="269.015" stroke="black" stroke-width="3.4"/>
<line x1="336.732" y1="286.156" x2="322.132" y2="263.751" stroke="black" stroke-width="3.4"/>
<line y1="-1.7" x2="30.7535" y2="-1.7" transform="matrix(0.178112 0.98401 0.98401 -0.178112 319 233.586)" stroke="black" stroke-width="3.4"/>
<path d="M293.821 414.776C289.799 398.989 291.055 360.97 328.254 335.182" stroke="black" stroke-width="3.4"/>
<path d="M271.52 320.502L260.397 342.851L236.563 342.851" stroke="black" stroke-width="3.4"/>
<path d="M311.063 323.367L300.009 342.278L275.533 342.278" stroke="black" stroke-width="3.4"/>
<line x1="311.614" y1="247.151" x2="311.614" y2="323.94" stroke="black" stroke-width="3.4"/>
</svg>
