<svg width="533" height="559" viewBox="0 0 533 559" fill="none" xmlns="http://www.w3.org/2000/svg">
<path d="M308.094 263.154L319.353 286.074L343.479 286.074" stroke="black" stroke-width="4.02106"/>
<path d="M267.881 265.97L279.14 285.471L304.07 285.471" stroke="black" stroke-width="4.02106"/>
<path d="M263.459 271.856L239.333 271.856L220.434 232.852" stroke="black" stroke-width="4.02106"/>
<path d="M217.187 276.681L193.061 276.681L174.162 237.677" stroke="black" stroke-width="4.02106"/>
<line y1="-2.01053" x2="84.4423" y2="-2.01053" transform="matrix(-4.37114e-08 -1 -1 4.37114e-08 346.293 287.683)" stroke="black" stroke-width="4.02106"/>
<line x1="150.868" y1="430.691" x2="150.868" y2="256.981" stroke="black" stroke-width="4.02106"/>
<line y1="-2.01053" x2="203.466" y2="-2.01053" transform="matrix(-1 8.74228e-08 8.74228e-08 1 356.346 430.691)" stroke="black" stroke-width="4.02106"/>
<line x1="381.678" y1="297.996" x2="381.678" y2="430.691" stroke="black" stroke-width="4.02106"/>
<line x1="304.473" y1="184.2" x2="326.991" y2="184.2" stroke="black" stroke-width="4.02106"/>
<line x1="330.201" y1="184.992" x2="343.068" y2="201.881" stroke="black" stroke-width="4.02106"/>
<line x1="289.082" y1="152.701" x2="304.2" y2="169.59" stroke="black" stroke-width="4.02106"/>
<line y1="-2.01053" x2="106.156" y2="-2.01053" transform="matrix(4.37114e-08 1 1 -4.37114e-08 306.889 173.485)" stroke="black" stroke-width="4.02106"/>
<line x1="224.857" y1="143.989" x2="247.375" y2="143.989" stroke="black" stroke-width="4.02106"/>
<line x1="249.676" y1="145.463" x2="264.794" y2="162.352" stroke="black" stroke-width="4.02106"/>
<line x1="265.47" y1="166.105" x2="265.47" y2="266.632" stroke="black" stroke-width="4.02106"/>
<line x1="178.584" y1="148.815" x2="201.102" y2="148.815" stroke="black" stroke-width="4.02106"/>
<line x1="265.469" y1="152.032" x2="287.987" y2="152.032" stroke="black" stroke-width="4.02106"/>
<line x1="203.404" y1="150.288" x2="218.523" y2="167.177" stroke="black" stroke-width="4.02106"/>
<line x1="219.196" y1="170.93" x2="219.196" y2="271.457" stroke="black" stroke-width="4.02106"/>
<line y1="-2.01053" x2="89.7733" y2="-2.01053" transform="matrix(-0.170207 0.985408 0.985408 0.170207 173.789 153.238)" stroke="black" stroke-width="4.02106"/>
<path d="M250.188 317.99L262.004 290.398L308.197 291.573" stroke="black" stroke-width="4.02106"/>
<path d="M331.141 359.92L335.752 341.327L306.857 332.723" stroke="black" stroke-width="4.02106"/>
<line x1="381.934" y1="300.465" x2="315.933" y2="292.143" stroke="black" stroke-width="4.02106"/>
<line y1="-2.01053" x2="24.945" y2="-2.01053" transform="matrix(-0.9999 -0.0141032 0.0143932 -0.999896 301.32 330.415)" stroke="black" stroke-width="4.02106"/>
<line y1="-2.01053" x2="28.6395" y2="-2.01053" transform="matrix(0.917536 0.397653 0.404506 -0.914535 251.375 318.496)" stroke="black" stroke-width="4.02106"/>
<path d="M261.529 430.638C263.121 412.803 278.169 373.816 325.617 360.546" stroke="black" stroke-width="4.02106"/>
<path d="M41.57 92.7172V80.5749H123.423V92.7172H41.57ZM39.4273 146.429V134.287H56.7122L56.5694 97.0027H70.1402V134.287H94.8533V97.0027H108.424L108.138 134.287H125.566V146.429H39.4273Z" fill="#D1D1D1"/>
<path d="M2 89.8821V295.496V501.111" stroke="black" stroke-width="3.48"/>
<path d="M487 557L266.5 556.526L46 556.051" stroke="black" stroke-width="3.48"/>
<path d="M531 89.8821V295.496V501.111" stroke="black" stroke-width="3.48"/>
<path d="M487 28L266.5 28.5L46 29" stroke="black" stroke-width="3.48"/>
</svg>
