<svg width="533" height="558" viewBox="0 0 533 558" fill="none" xmlns="http://www.w3.org/2000/svg">
<path d="M41.57 92.7172V80.5749H123.423V92.7172H41.57ZM39.4273 146.429V134.287H56.7122L56.5694 97.0027H70.1402V134.287H94.8533V97.0027H108.424L108.138 134.287H125.566V146.429H39.4273Z" fill="#D1D1D1"/>
<rect x="1.74" y="26.74" width="529.52" height="529.52" stroke="black" stroke-width="3.48"/>
<path d="M204.136 239.181L178.77 234.402L157.479 267.954" stroke="black" stroke-width="3.67008"/>
<path d="M204.136 239.181L178.77 234.402L157.479 267.954" stroke="black" stroke-width="3.67008"/>
<line x1="386.165" y1="431" x2="386.124" y2="272.783" stroke="black" stroke-width="3.67008"/>
<line x1="202.62" y1="331.504" x2="202.62" y2="160.478" stroke="black" stroke-width="3.67008"/>
<line x1="202.62" y1="331.504" x2="202.62" y2="160.478" stroke="black" stroke-width="3.67008"/>
<line x1="247.395" y1="272.783" x2="247.395" y2="160.478" stroke="black" stroke-width="3.67008"/>
<line x1="247.395" y1="272.783" x2="247.395" y2="160.478" stroke="black" stroke-width="3.67008"/>
<line x1="293.638" y1="272.783" x2="293.638" y2="168.552" stroke="black" stroke-width="3.67008"/>
<line x1="293.638" y1="272.783" x2="293.638" y2="168.552" stroke="black" stroke-width="3.67008"/>
<line x1="339.882" y1="272.783" x2="339.882" y2="168.552" stroke="black" stroke-width="3.67008"/>
<line x1="339.882" y1="272.783" x2="339.882" y2="168.552" stroke="black" stroke-width="3.67008"/>
<line x1="386.153" y1="273.109" x2="373.675" y2="204.112" stroke="black" stroke-width="3.67008"/>
<line x1="386.153" y1="273.109" x2="373.675" y2="204.112" stroke="black" stroke-width="3.67008"/>
<line x1="202.254" y1="429.495" x2="387.96" y2="429.495" stroke="black" stroke-width="3.67008"/>
<line x1="202.254" y1="429.495" x2="387.96" y2="429.495" stroke="black" stroke-width="3.67008"/>
<line x1="146.567" y1="336.421" x2="203.82" y2="430.375" stroke="black" stroke-width="3.67008"/>
<line x1="146.567" y1="336.421" x2="203.82" y2="430.375" stroke="black" stroke-width="3.67008"/>
<line y1="-1.83504" x2="57.2079" y2="-1.83504" transform="matrix(0.125377 -0.992109 -0.992109 -0.125377 147.201 329.539)" stroke="black" stroke-width="3.67008"/>
<line y1="-1.83504" x2="57.2079" y2="-1.83504" transform="matrix(0.125377 -0.992109 -0.992109 -0.125377 147.201 329.539)" stroke="black" stroke-width="3.67008"/>
<line x1="202.194" y1="320.832" x2="185.46" y2="297.313" stroke="black" stroke-width="3.67008"/>
<line x1="202.194" y1="320.832" x2="185.46" y2="297.313" stroke="black" stroke-width="3.67008"/>
<line x1="236.99" y1="149.835" x2="208.125" y2="149.835" stroke="black" stroke-width="3.67008"/>
<line x1="236.99" y1="149.835" x2="208.125" y2="149.835" stroke="black" stroke-width="3.67008"/>
<line x1="284.701" y1="149.835" x2="255.836" y2="149.835" stroke="black" stroke-width="3.67008"/>
<line x1="284.701" y1="149.835" x2="255.836" y2="149.835" stroke="black" stroke-width="3.67008"/>
<line x1="330.209" y1="149.835" x2="301.344" y2="149.835" stroke="black" stroke-width="3.67008"/>
<line x1="330.209" y1="149.835" x2="301.344" y2="149.835" stroke="black" stroke-width="3.67008"/>
<line x1="370.58" y1="201.95" x2="341.715" y2="201.95" stroke="black" stroke-width="3.67008"/>
<line x1="370.58" y1="201.95" x2="341.715" y2="201.95" stroke="black" stroke-width="3.67008"/>
</svg>
