<svg width="533" height="558" viewBox="0 0 533 558" fill="none" xmlns="http://www.w3.org/2000/svg">
<line x1="457.073" y1="307.82" x2="457.079" y2="414.178" stroke="black" stroke-width="3.86838"/>
<path d="M44.5699 92.1458V80.432H116.995V119.002H57.5693V135.144C65.2833 135.144 113.138 134.858 120.852 134.572V146.286C112.853 146.572 56.2837 147 43.9985 147V107.574H103.424V92.1458H44.5699Z" fill="#D1D1D1"/>
<path d="M315.327 386.781L287.093 370.699L294 321.156" stroke="black" stroke-width="3.86838"/>
<path d="M315.876 386.735L320.518 394.613L320.518 411.493" stroke="black" stroke-width="3.86838"/>
<line x1="322.075" y1="415.748" x2="243.163" y2="416.109" stroke="black" stroke-width="3.86838"/>
<line x1="288.799" y1="371.649" x2="248.568" y2="371.649" stroke="black" stroke-width="3.86838"/>
<line x1="459.01" y1="416.109" x2="334.448" y2="416.109" stroke="black" stroke-width="3.86838"/>
<line x1="453.247" y1="299.589" x2="439.318" y2="232.393" stroke="black" stroke-width="3.86838"/>
<path d="M380.093 291.16L357.111 282.672L342.041 317.796" stroke="black" stroke-width="3.86838"/>
<line x1="118.588" y1="230.427" x2="441.211" y2="230.427" stroke="black" stroke-width="3.86838"/>
<line y1="-1.93419" x2="113.825" y2="-1.93419" transform="matrix(0.999168 0.0407824 0.0407824 -0.999168 129.426 278.782)" stroke="black" stroke-width="3.86838"/>
<line x1="114.721" y1="328.684" x2="195.957" y2="328.684" stroke="black" stroke-width="3.86838"/>
<line x1="143.348" y1="371.648" x2="224.584" y2="371.648" stroke="black" stroke-width="3.86838"/>
<line x1="312.34" y1="242.876" x2="295.324" y2="312.852" stroke="black" stroke-width="3.86838"/>
<line y1="-1.93419" x2="22.4366" y2="-1.93419" transform="matrix(0.000190549 1 1 -0.000190549 93.0586 249.382)" stroke="black" stroke-width="3.86838"/>
<line x1="84.9342" y1="298.897" x2="84.9342" y2="325.976" stroke="black" stroke-width="3.86838"/>
<line x1="113.559" y1="341.862" x2="113.559" y2="368.941" stroke="black" stroke-width="3.86838"/>
<line x1="340.378" y1="320.445" x2="336.364" y2="351.786" stroke="black" stroke-width="3.86838"/>
<line y1="-1.93419" x2="21.6629" y2="-1.93419" transform="matrix(4.37114e-08 1 1 -4.37114e-08 226.904 369.714)" stroke="black" stroke-width="3.86838"/>
<line x1="224.694" y1="395.795" x2="235.658" y2="414.002" stroke="black" stroke-width="3.86838"/>
<line x1="314.174" y1="387.366" x2="332.553" y2="353.221" stroke="black" stroke-width="3.86838"/>
<line y1="-1.93419" x2="26.6526" y2="-1.93419" transform="matrix(-0.926064 0.377365 0.377365 0.926064 120.062 232)" stroke="black" stroke-width="3.86838"/>
<line y1="-1.93419" x2="26.6526" y2="-1.93419" transform="matrix(-0.926064 0.377365 0.377365 0.926064 109.23 292.347)" stroke="black" stroke-width="3.86838"/>
<line y1="-1.93419" x2="26.6526" y2="-1.93419" transform="matrix(-0.926064 0.377365 0.377365 0.926064 137.855 334.899)" stroke="black" stroke-width="3.86838"/>
<line y1="-1.93419" x2="28.9999" y2="-1.93419" transform="matrix(-0.987105 -0.160071 -0.160071 0.987105 125.559 283.424)" stroke="black" stroke-width="3.86838"/>
<line y1="-1.93419" x2="28.9999" y2="-1.93419" transform="matrix(-0.987105 -0.160071 -0.160071 0.987105 111.625 330.618)" stroke="black" stroke-width="3.86838"/>
<line y1="-1.93419" x2="28.9999" y2="-1.93419" transform="matrix(-0.987105 -0.160071 -0.160071 0.987105 140.252 373.583)" stroke="black" stroke-width="3.86838"/>
<path d="M430.927 386.868C412.96 379.964 377.16 352.787 377.702 299.31" stroke="black" stroke-width="3.86838"/>
<path d="M2 88.8821V294.496V500.111" stroke="black" stroke-width="3.48"/>
<path d="M487 556L266.5 555.526L46 555.051" stroke="black" stroke-width="3.48"/>
<path d="M531 88.8821V294.496V500.111" stroke="black" stroke-width="3.48"/>
<path d="M487 27L266.5 27.5L46 28" stroke="black" stroke-width="3.48"/>
</svg>
