<svg width="533" height="558" viewBox="0 0 533 558" fill="none" xmlns="http://www.w3.org/2000/svg">
<path d="M36.5703 136.858C62.2834 130.144 75.7114 112.145 75.7114 91.5744V79.2892H89.2822V91.2887C89.2822 113.002 108.424 129.858 128.28 135.572C125.709 138.715 122.424 143.572 120.138 147.143C105.281 141.286 90.9964 130.858 83.1396 116.716C75.9971 130.715 62.9976 142.001 45.8556 147.572C43.2843 144.286 39.9987 140.429 36.5703 136.858Z" fill="#D1D1D1"/>
<path d="M362.498 269.735L347.53 296.015L301.417 289.585" stroke="black" stroke-width="3.60059"/>
<path d="M353.791 283.264L363.873 262.741L385.476 262.741" stroke="black" stroke-width="3.60059"/>
<line x1="389.798" y1="261.301" x2="389.798" y2="336.913" stroke="black" stroke-width="3.60059"/>
<line x1="389.798" y1="136" x2="389.798" y2="251.939" stroke="black" stroke-width="3.60059"/>
<line x1="207.802" y1="160.295" x2="207.802" y2="294.957" stroke="black" stroke-width="3.60059"/>
<line x1="280.703" y1="137.797" x2="388.001" y2="137.797" stroke="black" stroke-width="3.60059"/>
<line x1="281.394" y1="137.729" x2="210.018" y2="158.423" stroke="black" stroke-width="3.60059"/>
<path d="M273.498 209.455L265.597 230.846L298.29 244.873" stroke="black" stroke-width="3.60059"/>
<line x1="187.216" y1="445.581" x2="207.818" y2="294.713" stroke="black" stroke-width="3.60059"/>
<line y1="-1.8003" x2="105.946" y2="-1.8003" transform="matrix(0.152387 -0.988321 -0.988321 -0.152387 233.064 440.637)" stroke="black" stroke-width="3.60059"/>
<line x1="308.424" y1="456.456" x2="308.424" y2="380.843" stroke="black" stroke-width="3.60059"/>
<line x1="228.556" y1="272.516" x2="293.688" y2="288.355" stroke="black" stroke-width="3.60059"/>
<line y1="-1.8003" x2="20.8834" y2="-1.8003" transform="matrix(0.993735 0.111765 0.111765 -0.993735 202.084 471.212)" stroke="black" stroke-width="3.60059"/>
<line x1="280.697" y1="484.18" x2="305.901" y2="484.18" stroke="black" stroke-width="3.60059"/>
<line x1="304.692" y1="246.556" x2="333.863" y2="250.291" stroke="black" stroke-width="3.60059"/>
<line y1="-1.8003" x2="20.1633" y2="-1.8003" transform="matrix(1 8.74228e-08 8.74228e-08 -1 350.549 352.162)" stroke="black" stroke-width="3.60059"/>
<line y1="-1.8003" x2="19.0117" y2="-1.8003" transform="matrix(0.606043 -0.795432 -0.795432 -0.606043 372.156 352.162)" stroke="black" stroke-width="3.60059"/>
<line x1="314.545" y1="379.043" x2="329.667" y2="379.043" stroke="black" stroke-width="3.60059"/>
<line y1="-1.8003" x2="20.2967" y2="-1.8003" transform="matrix(0.66698 -0.745076 -0.745076 -0.66698 335.428 380.967)" stroke="black" stroke-width="3.60059"/>
<line x1="350.913" y1="363.56" x2="350.913" y2="290.108" stroke="black" stroke-width="3.60059"/>
<line x1="312.745" y1="380.843" x2="312.745" y2="295.149" stroke="black" stroke-width="3.60059"/>
<line x1="260.37" y1="454.845" x2="258.93" y2="336.026" stroke="black" stroke-width="3.60059"/>
<line y1="-1.8003" x2="33.821" y2="-1.8003" transform="matrix(-0.864925 -0.501901 -0.501901 0.864925 361.367 269.093)" stroke="black" stroke-width="3.60059"/>
<line y1="-1.8003" x2="24.8076" y2="-1.8003" transform="matrix(0.271316 0.96249 0.96249 -0.271316 189.324 442.959)" stroke="black" stroke-width="3.60059"/>
<line y1="-1.8003" x2="24.8076" y2="-1.8003" transform="matrix(0.377365 0.926065 0.926065 -0.377365 267.738 459.406)" stroke="black" stroke-width="3.60059"/>
<line y1="-1.8003" x2="26.9924" y2="-1.8003" transform="matrix(-0.269576 0.962979 0.962979 0.269576 236.955 444.699)" stroke="black" stroke-width="3.60059"/>
<line y1="-1.8003" x2="26.9924" y2="-1.8003" transform="matrix(-0.160071 0.987105 0.987105 0.160071 310.225 459.336)" stroke="black" stroke-width="3.60059"/>
<path d="M350.768 153.43C347.183 170.983 327.718 208.013 278.539 215.71" stroke="black" stroke-width="3.60059"/>
<path d="M2 87.8821V293.496V499.111" stroke="black" stroke-width="3.48"/>
<path d="M487 555L266.5 554.526L46 554.051" stroke="black" stroke-width="3.48"/>
<path d="M531 87.8821V293.496V499.111" stroke="black" stroke-width="3.48"/>
<path d="M487 26L266.5 26.5L46 27" stroke="black" stroke-width="3.48"/>
</svg>
