<svg width="533" height="386" viewBox="0 0 533 386" fill="none" xmlns="http://www.w3.org/2000/svg">
<rect x="2.5" y="2.5" width="528" height="381" fill="#DBDFF9" stroke="black" stroke-width="5"/>
<mask id="path-2-outside-1_426_11337" maskUnits="userSpaceOnUse" x="135" y="54" width="269" height="265" fill="black">
<rect fill="white" x="135" y="54" width="269" height="265"/>
<path d="M206.8 117.6H173.8V144.9L199.6 171L196.3 174.3L171.4 149.4L146.5 174.3L143.2 171L169 144.9V117.6H136V112.8H206.8V117.6ZM199.6 146.4V141.6H235V55.2H239.8V232.8H235V146.4H199.6ZM342.787 117.6H309.787V144.9L335.587 171L332.287 174.3L307.387 149.4L282.487 174.3L279.187 171L304.987 144.9V117.6H271.987V112.8H342.787V117.6ZM337.987 291C337.987 276.3 349.687 264.6 364.387 264.6C379.087 264.6 390.787 276.3 390.787 291C390.787 305.7 379.087 317.4 364.387 317.4C349.687 317.4 337.987 305.7 337.987 291ZM342.787 291C342.787 303 352.387 312.6 364.387 312.6C376.387 312.6 385.987 303 385.987 291C385.987 279 376.387 269.4 364.387 269.4C352.387 269.4 342.787 279 342.787 291ZM361.987 232.8V55.2H366.787V141.6H402.787V146.4H366.787V232.8H361.987Z"/>
</mask>
<path d="M206.8 117.6H173.8V144.9L199.6 171L196.3 174.3L171.4 149.4L146.5 174.3L143.2 171L169 144.9V117.6H136V112.8H206.8V117.6ZM199.6 146.4V141.6H235V55.2H239.8V232.8H235V146.4H199.6ZM342.787 117.6H309.787V144.9L335.587 171L332.287 174.3L307.387 149.4L282.487 174.3L279.187 171L304.987 144.9V117.6H271.987V112.8H342.787V117.6ZM337.987 291C337.987 276.3 349.687 264.6 364.387 264.6C379.087 264.6 390.787 276.3 390.787 291C390.787 305.7 379.087 317.4 364.387 317.4C349.687 317.4 337.987 305.7 337.987 291ZM342.787 291C342.787 303 352.387 312.6 364.387 312.6C376.387 312.6 385.987 303 385.987 291C385.987 279 376.387 269.4 364.387 269.4C352.387 269.4 342.787 279 342.787 291ZM361.987 232.8V55.2H366.787V141.6H402.787V146.4H366.787V232.8H361.987Z" fill="black"/>
<path d="M206.8 117.6V118.6H207.8V117.6H206.8ZM173.8 117.6V116.6H172.8V117.6H173.8ZM173.8 144.9H172.8V145.311L173.089 145.603L173.8 144.9ZM199.6 171L200.307 171.707L201.01 171.004L200.311 170.297L199.6 171ZM196.3 174.3L195.593 175.007L196.3 175.714L197.007 175.007L196.3 174.3ZM171.4 149.4L172.107 148.693L171.4 147.986L170.693 148.693L171.4 149.4ZM146.5 174.3L145.793 175.007L146.5 175.714L147.207 175.007L146.5 174.3ZM143.2 171L142.489 170.297L141.79 171.004L142.493 171.707L143.2 171ZM169 144.9L169.711 145.603L170 145.311V144.9H169ZM169 117.6H170V116.6H169V117.6ZM136 117.6H135V118.6H136V117.6ZM136 112.8V111.8H135V112.8H136ZM206.8 112.8H207.8V111.8H206.8V112.8ZM199.6 146.4H198.6V147.4H199.6V146.4ZM199.6 141.6V140.6H198.6V141.6H199.6ZM235 141.6V142.6H236V141.6H235ZM235 55.2V54.2H234V55.2H235ZM239.8 55.2H240.8V54.2H239.8V55.2ZM239.8 232.8V233.8H240.8V232.8H239.8ZM235 232.8H234V233.8H235V232.8ZM235 146.4H236V145.4H235V146.4ZM206.8 117.6V116.6H173.8V117.6V118.6H206.8V117.6ZM173.8 117.6H172.8V144.9H173.8H174.8V117.6H173.8ZM173.8 144.9L173.089 145.603L198.889 171.703L199.6 171L200.311 170.297L174.511 144.197L173.8 144.9ZM199.6 171L198.893 170.293L195.593 173.593L196.3 174.3L197.007 175.007L200.307 171.707L199.6 171ZM196.3 174.3L197.007 173.593L172.107 148.693L171.4 149.4L170.693 150.107L195.593 175.007L196.3 174.3ZM171.4 149.4L170.693 148.693L145.793 173.593L146.5 174.3L147.207 175.007L172.107 150.107L171.4 149.4ZM146.5 174.3L147.207 173.593L143.907 170.293L143.2 171L142.493 171.707L145.793 175.007L146.5 174.3ZM143.2 171L143.911 171.703L169.711 145.603L169 144.9L168.289 144.197L142.489 170.297L143.2 171ZM169 144.9H170V117.6H169H168V144.9H169ZM169 117.6V116.6H136V117.6V118.6H169V117.6ZM136 117.6H137V112.8H136H135V117.6H136ZM136 112.8V113.8H206.8V112.8V111.8H136V112.8ZM206.8 112.8H205.8V117.6H206.8H207.8V112.8H206.8ZM199.6 146.4H200.6V141.6H199.6H198.6V146.4H199.6ZM199.6 141.6V142.6H235V141.6V140.6H199.6V141.6ZM235 141.6H236V55.2H235H234V141.6H235ZM235 55.2V56.2H239.8V55.2V54.2H235V55.2ZM239.8 55.2H238.8V232.8H239.8H240.8V55.2H239.8ZM239.8 232.8V231.8H235V232.8V233.8H239.8V232.8ZM235 232.8H236V146.4H235H234V232.8H235ZM235 146.4V145.4H199.6V146.4V147.4H235V146.4ZM342.787 117.6V118.6H343.787V117.6H342.787ZM309.787 117.6V116.6H308.787V117.6H309.787ZM309.787 144.9H308.787V145.311L309.076 145.603L309.787 144.9ZM335.587 171L336.294 171.707L336.997 171.004L336.298 170.297L335.587 171ZM332.287 174.3L331.58 175.007L332.287 175.714L332.994 175.007L332.287 174.3ZM307.387 149.4L308.094 148.693L307.387 147.986L306.68 148.693L307.387 149.4ZM282.487 174.3L281.78 175.007L282.487 175.714L283.194 175.007L282.487 174.3ZM279.187 171L278.476 170.297L277.777 171.004L278.48 171.707L279.187 171ZM304.987 144.9L305.698 145.603L305.987 145.311V144.9H304.987ZM304.987 117.6H305.987V116.6H304.987V117.6ZM271.987 117.6H270.987V118.6H271.987V117.6ZM271.987 112.8V111.8H270.987V112.8H271.987ZM342.787 112.8H343.787V111.8H342.787V112.8ZM361.987 232.8H360.987V233.8H361.987V232.8ZM361.987 55.2V54.2H360.987V55.2H361.987ZM366.787 55.2H367.787V54.2H366.787V55.2ZM366.787 141.6H365.787V142.6H366.787V141.6ZM402.787 141.6H403.787V140.6H402.787V141.6ZM402.787 146.4V147.4H403.787V146.4H402.787ZM366.787 146.4V145.4H365.787V146.4H366.787ZM366.787 232.8V233.8H367.787V232.8H366.787ZM342.787 117.6V116.6H309.787V117.6V118.6H342.787V117.6ZM309.787 117.6H308.787V144.9H309.787H310.787V117.6H309.787ZM309.787 144.9L309.076 145.603L334.876 171.703L335.587 171L336.298 170.297L310.498 144.197L309.787 144.9ZM335.587 171L334.88 170.293L331.58 173.593L332.287 174.3L332.994 175.007L336.294 171.707L335.587 171ZM332.287 174.3L332.994 173.593L308.094 148.693L307.387 149.4L306.68 150.107L331.58 175.007L332.287 174.3ZM307.387 149.4L306.68 148.693L281.78 173.593L282.487 174.3L283.194 175.007L308.094 150.107L307.387 149.4ZM282.487 174.3L283.194 173.593L279.894 170.293L279.187 171L278.48 171.707L281.78 175.007L282.487 174.3ZM279.187 171L279.898 171.703L305.698 145.603L304.987 144.9L304.276 144.197L278.476 170.297L279.187 171ZM304.987 144.9H305.987V117.6H304.987H303.987V144.9H304.987ZM304.987 117.6V116.6H271.987V117.6V118.6H304.987V117.6ZM271.987 117.6H272.987V112.8H271.987H270.987V117.6H271.987ZM271.987 112.8V113.8H342.787V112.8V111.8H271.987V112.8ZM342.787 112.8H341.787V117.6H342.787H343.787V112.8H342.787ZM337.987 291H338.987C338.987 276.852 350.239 265.6 364.387 265.6V264.6V263.6C349.134 263.6 336.987 275.748 336.987 291H337.987ZM364.387 264.6V265.6C378.534 265.6 389.787 276.852 389.787 291H390.787H391.787C391.787 275.748 379.639 263.6 364.387 263.6V264.6ZM390.787 291H389.787C389.787 305.148 378.534 316.4 364.387 316.4V317.4V318.4C379.639 318.4 391.787 306.252 391.787 291H390.787ZM364.387 317.4V316.4C350.239 316.4 338.987 305.148 338.987 291H337.987H336.987C336.987 306.252 349.134 318.4 364.387 318.4V317.4ZM342.787 291H341.787C341.787 303.552 351.834 313.6 364.387 313.6V312.6V311.6C352.939 311.6 343.787 302.448 343.787 291H342.787ZM364.387 312.6V313.6C376.939 313.6 386.987 303.552 386.987 291H385.987H384.987C384.987 302.448 375.834 311.6 364.387 311.6V312.6ZM385.987 291H386.987C386.987 278.448 376.939 268.4 364.387 268.4V269.4V270.4C375.834 270.4 384.987 279.552 384.987 291H385.987ZM364.387 269.4V268.4C351.834 268.4 341.787 278.448 341.787 291H342.787H343.787C343.787 279.552 352.939 270.4 364.387 270.4V269.4ZM361.987 232.8H362.987V55.2H361.987H360.987V232.8H361.987ZM361.987 55.2V56.2H366.787V55.2V54.2H361.987V55.2ZM366.787 55.2H365.787V141.6H366.787H367.787V55.2H366.787ZM366.787 141.6V142.6H402.787V141.6V140.6H366.787V141.6ZM402.787 141.6H401.787V146.4H402.787H403.787V141.6H402.787ZM402.787 146.4V145.4H366.787V146.4V147.4H402.787V146.4ZM366.787 146.4H365.787V232.8H366.787H367.787V146.4H366.787ZM366.787 232.8V231.8H361.987V232.8V233.8H366.787V232.8Z" fill="black" mask="url(#path-2-outside-1_426_11337)"/>
</svg>
