<svg width="533" height="558" viewBox="0 0 533 558" fill="none" xmlns="http://www.w3.org/2000/svg">
<path d="M44.1414 147.429V80.5749H119.138V92.5743H57.7122V107.288H118.852V119.145H57.7122V135.144C67.426 135.001 112.281 134.001 121.566 133.572V145.715C111.853 146.143 58.855 147.286 44.1414 147.429Z" fill="#D1D1D1"/>
<rect x="1.74" y="26.74" width="529.52" height="529.52" stroke="black" stroke-width="3.48"/>
<path d="M326.881 391.965L301.627 377.581L307.805 333.267" stroke="black" stroke-width="3.46008"/>
<path d="M313.879 383.597L333.602 393.285L333.602 414.046" stroke="black" stroke-width="3.46008"/>
<line x1="334.984" y1="418.198" x2="262.323" y2="418.198" stroke="black" stroke-width="3.46008"/>
<line x1="307.303" y1="378.43" x2="263.014" y2="378.43" stroke="black" stroke-width="3.46008"/>
<line x1="455.396" y1="418.198" x2="343.982" y2="418.198" stroke="black" stroke-width="3.46008"/>
<line x1="453.669" y1="313.36" x2="453.669" y2="416.471" stroke="black" stroke-width="3.46008"/>
<line y1="-1.73004" x2="84.6555" y2="-1.73004" transform="matrix(-0.295895 -0.955221 -0.955221 0.295895 451.936 313.625)" stroke="black" stroke-width="3.46008"/>
<path d="M384.806 306.437L364.25 298.845L350.771 330.262" stroke="black" stroke-width="3.46008"/>
<line x1="145.067" y1="210.29" x2="279.194" y2="231.051" stroke="black" stroke-width="3.46008"/>
<line x1="291.385" y1="231.03" x2="427.109" y2="231.03" stroke="black" stroke-width="3.46008"/>
<line y1="-1.73004" x2="101.811" y2="-1.73004" transform="matrix(0.999547 -0.0300964 -0.0300964 -0.999547 146.072 282.882)" stroke="black" stroke-width="3.46008"/>
<line x1="151.939" y1="256.669" x2="269.582" y2="280.197" stroke="black" stroke-width="3.46008"/>
<line x1="136.166" y1="328.333" x2="251.178" y2="323.762" stroke="black" stroke-width="3.46008"/>
<line x1="165.988" y1="369.05" x2="262.87" y2="361.135" stroke="black" stroke-width="3.46008"/>
<line x1="324.206" y1="263.249" x2="308.986" y2="325.839" stroke="black" stroke-width="3.46008"/>
<line y1="-1.73004" x2="20.0685" y2="-1.73004" transform="matrix(-0.0842197 0.996447 0.996447 0.0842197 120.764 225.242)" stroke="black" stroke-width="3.46008"/>
<line x1="107.65" y1="303.648" x2="109.365" y2="327.808" stroke="black" stroke-width="3.46008"/>
<line x1="131.179" y1="341.977" x2="132.895" y2="366.136" stroke="black" stroke-width="3.46008"/>
<line x1="349.154" y1="336.414" x2="345.564" y2="364.447" stroke="black" stroke-width="3.46008"/>
<line x1="249.519" y1="362.86" x2="249.519" y2="399.536" stroke="black" stroke-width="3.46008"/>
<line y1="-1.73004" x2="18.2698" y2="-1.73004" transform="matrix(0.795432 0.606043 0.606043 -0.795432 247.67 401.244)" stroke="black" stroke-width="3.46008"/>
<line y1="-1.73004" x2="32.5012" y2="-1.73004" transform="matrix(0.501901 -0.864925 -0.864925 -0.501901 327.496 390.879)" stroke="black" stroke-width="3.46008"/>
<line y1="-1.73004" x2="23.8395" y2="-1.73004" transform="matrix(-0.954613 0.29785 0.29785 0.954613 147.566 212.234)" stroke="black" stroke-width="3.46008"/>
<line y1="-1.73004" x2="23.8395" y2="-1.73004" transform="matrix(-0.897007 0.442015 0.442015 0.897007 130.516 289.537)" stroke="black" stroke-width="3.46008"/>
<line y1="-1.73004" x2="23.8395" y2="-1.73004" transform="matrix(-0.897007 0.442015 0.442015 0.897007 158.557 328.951)" stroke="black" stroke-width="3.46008"/>
<line y1="-1.73004" x2="25.9391" y2="-1.73004" transform="matrix(-0.970071 -0.242821 -0.242821 0.970071 147.16 258.036)" stroke="black" stroke-width="3.46008"/>
<line y1="-1.73004" x2="25.9391" y2="-1.73004" transform="matrix(-0.995965 -0.0897472 -0.0897472 0.995965 133.477 330.258)" stroke="black" stroke-width="3.46008"/>
<line y1="-1.73004" x2="25.9391" y2="-1.73004" transform="matrix(-0.995965 -0.0897472 -0.0897472 0.995965 161.516 369.672)" stroke="black" stroke-width="3.46008"/>
<path d="M438.647 380.692C421.779 377.247 386.193 358.542 378.796 311.282" stroke="black" stroke-width="3.46008"/>
</svg>
