<svg width="533" height="558" viewBox="0 0 533 558" fill="none" xmlns="http://www.w3.org/2000/svg">
<path d="M22.4282 104.431H150.422V116.43H93.2822V164.857H79.7114V116.43H22.4282V104.431Z" fill="#D1D1D1"/>
<path d="M357.345 269.407L340.847 298.372L290.021 291.286" stroke="black" stroke-width="3.4"/>
<path d="M355.418 268.701L364.156 261.475L382.88 261.475" stroke="black" stroke-width="3.4"/>
<line x1="387.153" y1="260.032" x2="387.153" y2="343.864" stroke="black" stroke-width="3.4"/>
<line x1="387.153" y1="122" x2="387.153" y2="249.915" stroke="black" stroke-width="3.4"/>
<line y1="-1.7" x2="184.285" y2="-1.7" transform="matrix(1 -1.74846e-07 -1.74846e-07 -1 199.312 125.61)" stroke="black" stroke-width="3.4"/>
<path d="M259.25 202.967L250.542 226.544L286.576 242.004" stroke="black" stroke-width="3.4"/>
<line x1="197.3" y1="471.056" x2="197.3" y2="140.066" stroke="black" stroke-width="3.4"/>
<line y1="-1.7" x2="116.773" y2="-1.7" transform="matrix(0.0407823 -0.999168 -0.999168 -0.0407823 246.551 460.123)" stroke="black" stroke-width="3.4"/>
<line x1="209.65" y1="272.749" x2="281.438" y2="290.206" stroke="black" stroke-width="3.4"/>
<line x1="293.599" y1="244.141" x2="325.752" y2="248.258" stroke="black" stroke-width="3.4"/>
<line y1="-1.7" x2="22.4032" y2="-1.7" transform="matrix(1 -8.74227e-08 -8.74227e-08 -1 344.258 360.485)" stroke="black" stroke-width="3.4"/>
<line y1="-1.7" x2="20.9546" y2="-1.7" transform="matrix(0.606043 -0.795432 -0.795432 -0.606043 367.996 360.258)" stroke="black" stroke-width="3.4"/>
<line x1="304.672" y1="367.458" x2="321.294" y2="367.458" stroke="black" stroke-width="3.4"/>
<line y1="-1.7" x2="31.0755" y2="-1.7" transform="matrix(1 -8.74228e-08 -8.74228e-08 -1 209.432 498.516)" stroke="black" stroke-width="3.4"/>
<line x1="258.42" y1="371.071" x2="275.042" y2="371.071" stroke="black" stroke-width="3.4"/>
<line y1="-1.7" x2="19.6501" y2="-1.7" transform="matrix(0.759333 -0.650702 -0.824346 -0.566087 327.355 368.68)" stroke="black" stroke-width="3.4"/>
<line y1="-1.7" x2="19.6501" y2="-1.7" transform="matrix(0.759333 -0.650702 -0.824346 -0.566087 281.422 372.558)" stroke="black" stroke-width="3.4"/>
<line x1="344.886" y1="353.981" x2="344.886" y2="291.831" stroke="black" stroke-width="3.4"/>
<line x1="302.972" y1="369.158" x2="302.972" y2="295.444" stroke="black" stroke-width="3.4"/>
<line y1="-1.7" x2="85.5825" y2="-1.7" transform="matrix(-0.0844432 -0.996428 -0.996428 0.0844432 258.574 369.155)" stroke="black" stroke-width="3.4"/>
<line y1="-1.7" x2="37.2775" y2="-1.7" transform="matrix(-0.864925 -0.501901 -0.501901 0.864925 356.102 268.699)" stroke="black" stroke-width="3.4"/>
<line y1="-1.7" x2="29.751" y2="-1.7" transform="matrix(-0.160071 0.987105 0.987105 0.160071 248.887 469.148)" stroke="black" stroke-width="3.4"/>
<line x1="197.625" y1="472.5" x2="205.625" y2="498.5" stroke="black" stroke-width="3.4"/>
<path d="M344.421 141.216C340.47 160.563 319.016 201.378 264.81 209.861" stroke="black" stroke-width="3.4"/>
<path d="M2 87.8818V293.496V499.111" stroke="black" stroke-width="3.48"/>
<path d="M487 555L266.5 554.526L46 554.051" stroke="black" stroke-width="3.48"/>
<path d="M531 87.8818V293.496V499.111" stroke="black" stroke-width="3.48"/>
<path d="M487 26L266.5 26.5L46 27" stroke="black" stroke-width="3.48"/>
</svg>
