<svg width="533" height="558" viewBox="0 0 533 558" fill="none" xmlns="http://www.w3.org/2000/svg">
<path d="M139.137 177.713H125.566V50.1477H139.137V177.713ZM23.571 128.001C37.8561 128.001 112.71 126.859 121.995 126.43V138.287C112.996 138.858 39.1417 139.858 24.4281 139.858L23.571 128.001Z" fill="#D1D1D1"/>
<line x1="442.285" y1="423.129" x2="166.636" y2="423.129" stroke="black" stroke-width="3.4"/>
<line x1="229.543" y1="293.882" x2="109.447" y2="293.882" stroke="black" stroke-width="3.4"/>
<line x1="254.133" y1="305.892" x2="196.372" y2="305.892" stroke="black" stroke-width="3.4"/>
<line x1="270.719" y1="383.669" x2="158.057" y2="383.669" stroke="black" stroke-width="3.4"/>
<line x1="440.552" y1="244.144" x2="440.552" y2="416.853" stroke="black" stroke-width="3.4"/>
<line x1="112.879" y1="242.444" x2="438.854" y2="242.444" stroke="black" stroke-width="3.4"/>
<line y1="-1.7" x2="27.4505" y2="-1.7" transform="matrix(1.2413e-07 -1 -1 -1.42002e-07 86 282.46)" stroke="black" stroke-width="3.4"/>
<line y1="-1.7" x2="28.0224" y2="-1.7" transform="matrix(1.31134e-07 -1 -1 -1.31134e-07 154.625 416.854)" stroke="black" stroke-width="3.4"/>
<line y1="-1.7" x2="19.7011" y2="-1.7" transform="matrix(-0.926064 0.377365 0.377365 0.926064 109.391 245.288)" stroke="black" stroke-width="3.4"/>
<line x1="103.27" y1="293.535" x2="90.4172" y2="287.427" stroke="black" stroke-width="3.4"/>
<line x1="196.356" y1="341.937" x2="196.356" y2="366.528" stroke="black" stroke-width="3.4"/>
<line y1="-1.7" x2="22.2593" y2="-1.7" transform="matrix(0.745076 0.666979 0.666979 -0.745076 195.449 367.127)" stroke="black" stroke-width="3.4"/>
<line y1="-1.7" x2="98.7185" y2="-1.7" transform="matrix(1 0 0 -1 214.402 382.133)" stroke="black" stroke-width="3.4"/>
<line x1="182.63" y1="293.326" x2="182.63" y2="326.496" stroke="black" stroke-width="3.4"/>
<line y1="-1.7" x2="22.2593" y2="-1.7" transform="matrix(0.745076 0.666979 0.666979 -0.745076 181.719 327.095)" stroke="black" stroke-width="3.4"/>
<line y1="-1.7" x2="98.7185" y2="-1.7" transform="matrix(1 0 0 -1 200.672 342.101)" stroke="black" stroke-width="3.4"/>
<path d="M274.98 335.325L252.957 312.97L272.376 268.735" stroke="black" stroke-width="3.4"/>
<line x1="326.845" y1="244.58" x2="277.633" y2="264.077" stroke="black" stroke-width="3.4"/>
<line x1="353.61" y1="280.641" x2="310.718" y2="294.99" stroke="black" stroke-width="3.4"/>
<line x1="312.196" y1="294.221" x2="301.902" y2="310.86" stroke="black" stroke-width="3.4"/>
<line y1="-1.7" x2="35.0927" y2="-1.7" transform="matrix(0.718002 -0.696041 -0.696041 -0.718002 275.945 334.379)" stroke="black" stroke-width="3.4"/>
<path d="M423.926 354.295C408.172 358.309 370.23 357.055 344.494 319.932" stroke="black" stroke-width="3.4"/>
<path d="M293.593 351.658L313.609 362.394L313.609 385.4" stroke="black" stroke-width="3.4"/>
<path d="M293.887 317.368L299.887 326.277L299.887 345.368" stroke="black" stroke-width="3.4"/>
<path d="M2 88.8818V294.496V500.111" stroke="black" stroke-width="3.48"/>
<path d="M487 556L266.5 555.526L46 555.051" stroke="black" stroke-width="3.48"/>
<path d="M531 88.8818V294.496V500.111" stroke="black" stroke-width="3.48"/>
<path d="M487 27L266.5 27.5L46 28" stroke="black" stroke-width="3.48"/>
</svg>
