<svg width="533" height="559" viewBox="0 0 533 559" fill="none" xmlns="http://www.w3.org/2000/svg">
<path d="M78.7114 171.428H65.1405V118.859C47.2842 119.145 30.5707 119.43 24.4281 119.43L23.571 107.859C37.8561 107.859 112.71 106.002 121.995 105.574V117.145C117.71 117.43 98.8533 118.002 78.7114 118.43V171.428ZM125.424 177.713V50.1477H138.994V177.713H125.424Z" fill="#D1D1D1"/>
<line x1="397.122" y1="131" x2="397.122" y2="407.211" stroke="black" stroke-width="3.4"/>
<line y1="-1.7" x2="136.959" y2="-1.7" transform="matrix(-1.31134e-07 1 1 1.31134e-07 219.496 322.399)" stroke="black" stroke-width="3.4"/>
<line x1="264.747" y1="357.355" x2="264.747" y2="466.808" stroke="black" stroke-width="3.4"/>
<line x1="357.583" y1="302.916" x2="357.583" y2="415.807" stroke="black" stroke-width="3.4"/>
<line x1="196" y1="132.738" x2="390.838" y2="132.738" stroke="black" stroke-width="3.4"/>
<line x1="194.3" y1="269.679" x2="194.3" y2="134.438" stroke="black" stroke-width="3.4"/>
<line y1="-1.7" x2="27.5065" y2="-1.7" transform="matrix(-1 -2.55264e-07 -2.73136e-07 1 259.039 484)" stroke="black" stroke-width="3.4"/>
<line x1="228.331" y1="481.395" x2="218.016" y2="463.057" stroke="black" stroke-width="3.4"/>
<line y1="-1.7" x2="28.0795" y2="-1.7" transform="matrix(-1 -2.62268e-07 -2.62268e-07 1 390.836 419.245)" stroke="black" stroke-width="3.4"/>
<line y1="-1.7" x2="22.158" y2="-1.7" transform="matrix(1 8.74228e-08 8.74228e-08 -1 268.809 359.729)" stroke="black" stroke-width="3.4"/>
<line y1="-1.7" x2="22.3046" y2="-1.7" transform="matrix(0.66698 -0.745076 -0.745076 -0.66698 291.758 358.938)" stroke="black" stroke-width="3.4"/>
<line y1="-1.7" x2="98.9197" y2="-1.7" transform="matrix(1.31134e-07 -1 -1 -1.31134e-07 306.793 339.945)" stroke="black" stroke-width="3.4"/>
<line y1="-1.7" x2="22.158" y2="-1.7" transform="matrix(1 8.74228e-08 8.74228e-08 -1 306.793 353.399)" stroke="black" stroke-width="3.4"/>
<line y1="-1.7" x2="22.3046" y2="-1.7" transform="matrix(0.66698 -0.745076 -0.745076 -0.66698 329.742 352.607)" stroke="black" stroke-width="3.4"/>
<line y1="-1.7" x2="98.9197" y2="-1.7" transform="matrix(1.31134e-07 -1 -1 -1.31134e-07 344.777 333.615)" stroke="black" stroke-width="3.4"/>
<path d="M265.642 344.576L238.622 349.692L215.906 313.965" stroke="black" stroke-width="3.4"/>
<path d="M254.085 245.046L234.614 252.176L244.16 283.084" stroke="black" stroke-width="3.4"/>
<line x1="199.164" y1="275.212" x2="212.322" y2="307.985" stroke="black" stroke-width="3.4"/>
<line x1="247.694" y1="290.844" x2="262.293" y2="313.249" stroke="black" stroke-width="3.4"/>
<line y1="-1.7" x2="30.7535" y2="-1.7" transform="matrix(-0.178112 -0.98401 -0.98401 0.178112 265.422 343.414)" stroke="black" stroke-width="3.4"/>
<path d="M290.604 162.224C294.626 178.01 293.37 216.03 256.172 241.818" stroke="black" stroke-width="3.4"/>
<path d="M312.906 256.498L324.029 234.149L347.862 234.149" stroke="black" stroke-width="3.4"/>
<path d="M273.363 253.633L284.417 234.723L308.893 234.723" stroke="black" stroke-width="3.4"/>
<line x1="272.808" y1="329.849" x2="272.808" y2="253.06" stroke="black" stroke-width="3.4"/>
<path d="M2 89.8818V295.496V501.111" stroke="black" stroke-width="3.48"/>
<path d="M487 557L266.5 556.526L46 556.051" stroke="black" stroke-width="3.48"/>
<path d="M531 89.8818V295.496V501.111" stroke="black" stroke-width="3.48"/>
<path d="M487 28L266.5 28.5L46 29" stroke="black" stroke-width="3.48"/>
</svg>
