<svg width="533" height="558" viewBox="0 0 533 558" fill="none" xmlns="http://www.w3.org/2000/svg">
<path d="M89.425 177.713H75.8542V50.1477H89.425V85.0033H111.138V97.1456H89.425V126.43H111.138V138.572H89.425V177.713Z" fill="#D1D1D1"/>
<rect x="1.74" y="26.74" width="529.52" height="529.52" stroke="black" stroke-width="3.48"/>
<path d="M232.958 259.537L211.233 255.443L192.997 284.18" stroke="black" stroke-width="3.4"/>
<line x1="396.248" y1="341.222" x2="392.476" y2="275.211" stroke="black" stroke-width="3.4"/>
<line y1="-1.7" x2="101.217" y2="-1.7" transform="matrix(-4.50689e-08 -1 -1 4.50689e-08 394.008 447.835)" stroke="black" stroke-width="3.4"/>
<line x1="235.117" y1="443.157" x2="394.172" y2="443.157" stroke="black" stroke-width="3.4"/>
<line x1="238.075" y1="139.32" x2="238.075" y2="308.434" stroke="black" stroke-width="3.4"/>
<line x1="287.743" y1="141.835" x2="287.743" y2="275.114" stroke="black" stroke-width="3.4"/>
<line x1="335.52" y1="141.835" x2="335.52" y2="275.114" stroke="black" stroke-width="3.4"/>
<line x1="356.895" y1="241.165" x2="356.895" y2="305.29" stroke="black" stroke-width="3.4"/>
<line x1="196.476" y1="336.13" x2="237.968" y2="447.406" stroke="black" stroke-width="3.4"/>
<line x1="193.183" y1="330.159" x2="193.183" y2="286.912" stroke="black" stroke-width="3.4"/>
<line x1="361.316" y1="257.421" x2="378.919" y2="257.421" stroke="black" stroke-width="3.4"/>
<line x1="333.82" y1="224.377" x2="343.879" y2="224.377" stroke="black" stroke-width="3.4"/>
<line x1="381.528" y1="258.091" x2="391.587" y2="271.293" stroke="black" stroke-width="3.4"/>
<line x1="346.489" y1="225.047" x2="356.548" y2="238.249" stroke="black" stroke-width="3.4"/>
<line y1="-1.7" x2="25.8385" y2="-1.7" transform="matrix(-0.343974 -0.938979 -0.938979 0.343974 285.984 137.617)" stroke="black" stroke-width="3.4"/>
<line x1="337.334" y1="134.208" x2="332.159" y2="110.129" stroke="black" stroke-width="3.4"/>
<line y1="-1.7" x2="28.1141" y2="-1.7" transform="matrix(0.195303 -0.980743 -0.980743 -0.195303 236.375 139.595)" stroke="black" stroke-width="3.4"/>
<line y1="-1.7" x2="28.1141" y2="-1.7" transform="matrix(0.195303 -0.980743 -0.980743 -0.195303 289.184 139.595)" stroke="black" stroke-width="3.4"/>
<line x1="252.911" y1="145.671" x2="251.653" y2="112.351" stroke="black" stroke-width="3.4"/>
<line x1="302.575" y1="146.928" x2="301.317" y2="113.608" stroke="black" stroke-width="3.4"/>
<line x1="279.942" y1="150.071" x2="278.684" y2="116.752" stroke="black" stroke-width="3.4"/>
<line x1="329.606" y1="143.156" x2="328.349" y2="109.836" stroke="black" stroke-width="3.4"/>
<line x1="277.242" y1="151.707" x2="254.61" y2="151.707" stroke="black" stroke-width="3.4"/>
<line x1="331.305" y1="144.792" x2="308.672" y2="144.792" stroke="black" stroke-width="3.4"/>
<line x1="275.984" y1="111.472" x2="253.352" y2="111.472" stroke="black" stroke-width="3.4"/>
<line x1="323.133" y1="107.7" x2="300.5" y2="107.7" stroke="black" stroke-width="3.4"/>
</svg>
