<svg width="533" height="555" viewBox="0 0 533 555" fill="none" xmlns="http://www.w3.org/2000/svg">
<path d="M72.2827 168.428H59.1404V53.2904H72.2827V83.4319H90.5676V50.1477H103.996V177.713H90.5676V131.287H72.2827V168.428ZM72.2827 119.145H90.5676V95.5742H72.2827V119.145Z" fill="#D1D1D1"/>
<rect x="1.74" y="23.74" width="529.52" height="529.52" stroke="black" stroke-width="3.48"/>
<path d="M213.771 249.798L192.15 245.724L174.002 274.323" stroke="black" stroke-width="3.4"/>
<line x1="373.303" y1="251.907" x2="369.549" y2="186.214" stroke="black" stroke-width="3.4"/>
<line x1="336.847" y1="218.98" x2="337.473" y2="170.179" stroke="black" stroke-width="3.4"/>
<line x1="372.507" y1="437.354" x2="372.507" y2="262.172" stroke="black" stroke-width="3.4"/>
<line x1="215.918" y1="432.526" x2="374.208" y2="432.526" stroke="black" stroke-width="3.4"/>
<line x1="218.872" y1="130.16" x2="218.872" y2="298.46" stroke="black" stroke-width="3.4"/>
<line x1="268.294" y1="132.662" x2="268.294" y2="265.3" stroke="black" stroke-width="3.4"/>
<line x1="315.845" y1="132.662" x2="315.845" y2="265.3" stroke="black" stroke-width="3.4"/>
<line x1="337.118" y1="231.515" x2="337.118" y2="295.331" stroke="black" stroke-width="3.4"/>
<line x1="177.468" y1="326.02" x2="218.761" y2="436.76" stroke="black" stroke-width="3.4"/>
<line x1="174.175" y1="320.08" x2="174.175" y2="277.041" stroke="black" stroke-width="3.4"/>
<line x1="338.547" y1="168.501" x2="356.065" y2="168.501" stroke="black" stroke-width="3.4"/>
<line x1="314.145" y1="214.799" x2="324.155" y2="214.799" stroke="black" stroke-width="3.4"/>
<line x1="358.669" y1="169.171" x2="368.679" y2="182.31" stroke="black" stroke-width="3.4"/>
<line x1="326.758" y1="215.469" x2="336.769" y2="228.608" stroke="black" stroke-width="3.4"/>
<line y1="-1.7" x2="25.7142" y2="-1.7" transform="matrix(-0.343974 -0.938979 -0.938979 0.343974 266.539 128.465)" stroke="black" stroke-width="3.4"/>
<line x1="317.635" y1="125.074" x2="312.485" y2="101.111" stroke="black" stroke-width="3.4"/>
<line y1="-1.7" x2="27.9788" y2="-1.7" transform="matrix(0.195303 -0.980743 -0.980743 -0.195303 217.172 130.433)" stroke="black" stroke-width="3.4"/>
<line y1="-1.7" x2="27.9788" y2="-1.7" transform="matrix(0.195303 -0.980743 -0.980743 -0.195303 269.727 130.433)" stroke="black" stroke-width="3.4"/>
<line x1="233.614" y1="136.48" x2="232.362" y2="103.321" stroke="black" stroke-width="3.4"/>
<line x1="283.043" y1="137.731" x2="281.792" y2="104.572" stroke="black" stroke-width="3.4"/>
<line x1="260.52" y1="140.86" x2="259.269" y2="107.7" stroke="black" stroke-width="3.4"/>
<line x1="309.942" y1="133.978" x2="308.691" y2="100.818" stroke="black" stroke-width="3.4"/>
<line x1="257.836" y1="142.496" x2="235.313" y2="142.496" stroke="black" stroke-width="3.4"/>
<line x1="311.641" y1="135.613" x2="289.117" y2="135.613" stroke="black" stroke-width="3.4"/>
<line x1="256.586" y1="102.454" x2="234.063" y2="102.454" stroke="black" stroke-width="3.4"/>
<line x1="303.508" y1="98.7" x2="280.984" y2="98.7" stroke="black" stroke-width="3.4"/>
</svg>
