<svg width="533" height="558" viewBox="0 0 533 558" fill="none" xmlns="http://www.w3.org/2000/svg">
<path d="M109.996 177.713H96.5676V50.1477H109.996V177.713ZM45.1413 132.287V120.145H69.1402V95.0028H45.1413V82.8605H69.1402V53.4333H82.2825V168.142H69.1402V132.287H45.1413Z" fill="#D1D1D1"/>
<path d="M2 88.8818V294.496V500.111" stroke="black" stroke-width="3.48"/>
<path d="M487 556L266.5 555.526L46 555.051" stroke="black" stroke-width="3.48"/>
<path d="M531 88.8818V294.496V500.111" stroke="black" stroke-width="3.48"/>
<path d="M487 27L266.5 27.5L46 28" stroke="black" stroke-width="3.48"/>
<path d="M466.28 435.46L217.09 390.96" stroke="black" stroke-width="3.4"/>
<path d="M269.67 268.46L135.98 238.22" stroke="black" stroke-width="3.4"/>
<path d="M235.331 302.57L144.691 274.65" stroke="black" stroke-width="3.4"/>
<path d="M299.188 314.54H250.148" stroke="black" stroke-width="3.4"/>
<path d="M310.591 352.18L208.531 351.62" stroke="black" stroke-width="3.4"/>
<path d="M464.559 256.99V429.19" stroke="black" stroke-width="3.4"/>
<path d="M171.199 192L462.859 255.29" stroke="black" stroke-width="3.4"/>
<path d="M146.102 231.91V204.54" stroke="black" stroke-width="3.4"/>
<path d="M127 270.67V243.3" stroke="black" stroke-width="3.4"/>
<path d="M206.82 384.7V356.76" stroke="black" stroke-width="3.4"/>
<path d="M167.081 193.27L148.891 200.68" stroke="black" stroke-width="3.4"/>
<path d="M167.082 240.74L146.102 230.77" stroke="black" stroke-width="3.4"/>
<path d="M236.461 302.01V335.08" stroke="black" stroke-width="3.4"/>
<path d="M271.238 250.12V283.19" stroke="black" stroke-width="3.4"/>
<path d="M234.41 336.95L250.95 351.75" stroke="black" stroke-width="3.4"/>
<path d="M254.441 352.34H352.871" stroke="black" stroke-width="3.4"/>
<path d="M317.698 331.48L295.738 309.19L315.098 265.08" stroke="black" stroke-width="3.4"/>
<path d="M369.41 243.15L320.34 262.59" stroke="black" stroke-width="3.4"/>
<path d="M387.331 317.38L359.941 287.76" stroke="black" stroke-width="3.4"/>
<path d="M359.942 289.99L349.672 306.58" stroke="black" stroke-width="3.4"/>
<path d="M319.84 333.9L344.96 309.55" stroke="black" stroke-width="3.4"/>
<path d="M436.76 382.56C420.89 379.25 387.46 361.5 380.68 316.97" stroke="black" stroke-width="3.4"/>
<path d="M333.398 320.26L353.358 330.96V353.9" stroke="black" stroke-width="3.4"/>
</svg>
