<svg width="533" height="558" viewBox="0 0 533 558" fill="none" xmlns="http://www.w3.org/2000/svg">
<path d="M109.996 177.713H96.5676V50.1477H109.996V177.713ZM45.1413 132.287V120.145H69.1402V95.0028H45.1413V82.8605H69.1402V53.4333H82.2825V168.142H69.1402V132.287H45.1413Z" fill="#D1D1D1"/>
<rect x="1.74" y="26.74" width="529.52" height="529.52" stroke="black" stroke-width="3.48"/>
<line x1="465.625" y1="422.464" x2="190.785" y2="422.464" stroke="black" stroke-width="3.4"/>
<line x1="253.508" y1="293.597" x2="101.833" y2="293.597" stroke="black" stroke-width="3.4"/>
<line x1="219.297" y1="333.512" x2="110.387" y2="333.512" stroke="black" stroke-width="3.4"/>
<line x1="283.156" y1="345.486" x2="234.118" y2="345.486" stroke="black" stroke-width="3.4"/>
<line x1="294.562" y1="383.12" x2="182.232" y2="383.12" stroke="black" stroke-width="3.4"/>
<line x1="463.903" y1="244" x2="463.903" y2="416.202" stroke="black" stroke-width="3.4"/>
<line x1="137.188" y1="242.3" x2="462.205" y2="242.3" stroke="black" stroke-width="3.4"/>
<line y1="-1.7" x2="27.3699" y2="-1.7" transform="matrix(1.2413e-07 -1 -1 -1.42002e-07 110.387 282.204)" stroke="black" stroke-width="3.4"/>
<line y1="-1.7" x2="27.3699" y2="-1.7" transform="matrix(1.2413e-07 -1 -1 -1.42002e-07 91 329.531)" stroke="black" stroke-width="3.4"/>
<line y1="-1.7" x2="27.9401" y2="-1.7" transform="matrix(1.31134e-07 -1 -1 -1.31134e-07 178.812 416.203)" stroke="black" stroke-width="3.4"/>
<line y1="-1.7" x2="19.6433" y2="-1.7" transform="matrix(-0.926064 0.377365 0.377365 0.926064 133.711 245.141)" stroke="black" stroke-width="3.4"/>
<line x1="130.665" y1="289.588" x2="115.269" y2="287.307" stroke="black" stroke-width="3.4"/>
<line x1="220.43" y1="332.952" x2="220.43" y2="366.024" stroke="black" stroke-width="3.4"/>
<line x1="255.212" y1="281.063" x2="255.212" y2="314.135" stroke="black" stroke-width="3.4"/>
<line y1="-1.7" x2="22.1939" y2="-1.7" transform="matrix(0.745076 0.666979 0.666979 -0.745076 219.516 366.622)" stroke="black" stroke-width="3.4"/>
<line y1="-1.7" x2="98.4285" y2="-1.7" transform="matrix(1 0 0 -1 238.418 381.583)" stroke="black" stroke-width="3.4"/>
<path d="M301.668 364.565L279.709 342.275L299.071 298.17" stroke="black" stroke-width="3.4"/>
<line x1="353.38" y1="274.091" x2="304.313" y2="293.53" stroke="black" stroke-width="3.4"/>
<line x1="380.063" y1="310.046" x2="337.297" y2="324.353" stroke="black" stroke-width="3.4"/>
<line x1="338.774" y1="323.583" x2="328.511" y2="340.173" stroke="black" stroke-width="3.4"/>
<line y1="-1.7" x2="34.9896" y2="-1.7" transform="matrix(0.718002 -0.696041 -0.696041 -0.718002 302.625 363.621)" stroke="black" stroke-width="3.4"/>
<path d="M447.317 353.828C431.609 357.83 393.778 356.58 368.118 319.566" stroke="black" stroke-width="3.4"/>
<path d="M317.371 351.199L337.328 361.903L337.328 384.841" stroke="black" stroke-width="3.4"/>
</svg>
