<svg width="533" height="558" viewBox="0 0 533 558" fill="none" xmlns="http://www.w3.org/2000/svg">
<path d="M50.9982 84.1461H81.1397V50.1477H94.7105V177.713H81.1397V136.287H50.9982V124.144H81.1397V96.2885H50.9982V84.1461Z" fill="#D1D1D1"/>
<rect x="1.74" y="26.74" width="529.52" height="529.52" stroke="black" stroke-width="3.48"/>
<path d="M301.643 374.784L323.973 385.753L323.973 409.258" stroke="black" stroke-width="3.4"/>
<path d="M304.384 335.608L323.383 346.577L323.383 370.866" stroke="black" stroke-width="3.4"/>
<line x1="325.539" y1="413.7" x2="243.271" y2="413.7" stroke="black" stroke-width="3.4"/>
<line x1="461.867" y1="413.7" x2="335.723" y2="413.7" stroke="black" stroke-width="3.4"/>
<line x1="459.649" y1="229.443" x2="459.649" y2="412" stroke="black" stroke-width="3.4"/>
<line x1="105.326" y1="293.366" x2="240.863" y2="288.858" stroke="black" stroke-width="3.4"/>
<line x1="128.094" y1="227.743" x2="465.001" y2="227.743" stroke="black" stroke-width="3.4"/>
<line y1="-1.7" x2="115.271" y2="-1.7" transform="matrix(0.999168 0.0407824 0.0407824 -0.999168 128.102 274.887)" stroke="black" stroke-width="3.4"/>
<line x1="117.074" y1="337.435" x2="194.641" y2="335.084" stroke="black" stroke-width="3.4"/>
<line y1="-1.7" x2="22.7217" y2="-1.7" transform="matrix(0.000190549 1 1 -0.000190549 91.2656 245.113)" stroke="black" stroke-width="3.4"/>
<line y1="-1.7" x2="18.5904" y2="-1.7" transform="matrix(0.0535368 0.998566 0.998566 -0.0535368 85 310.277)" stroke="black" stroke-width="3.4"/>
<line y1="-1.7" x2="21.9381" y2="-1.7" transform="matrix(4.37114e-08 1 1 -4.37114e-08 226.68 371.258)" stroke="black" stroke-width="3.4"/>
<line y1="-1.7" x2="20.6851" y2="-1.7" transform="matrix(0.795432 0.606043 0.606043 -0.795432 226.68 394.763)" stroke="black" stroke-width="3.4"/>
<line y1="-1.7" x2="21.9381" y2="-1.7" transform="matrix(4.37114e-08 1 1 -4.37114e-08 194.555 332.082)" stroke="black" stroke-width="3.4"/>
<line y1="-1.7" x2="22.0833" y2="-1.7" transform="matrix(0.745076 0.666979 0.666979 -0.745076 195.34 354.804)" stroke="black" stroke-width="3.4"/>
<line x1="214.281" y1="371.908" x2="317.704" y2="371.908" stroke="black" stroke-width="3.4"/>
<line x1="229.164" y1="335.084" x2="305.164" y2="335.083" stroke="black" stroke-width="3.4"/>
<line y1="-1.7" x2="26.9913" y2="-1.7" transform="matrix(-0.926064 0.377365 0.377365 0.926064 120.262 227.876)" stroke="black" stroke-width="3.4"/>
<line y1="-1.7" x2="22.0838" y2="-1.7" transform="matrix(-0.904615 0.42623 0.42623 0.904615 107.938 294.929)" stroke="black" stroke-width="3.4"/>
<line y1="-1.7" x2="29.3684" y2="-1.7" transform="matrix(-0.987105 -0.160071 -0.160071 0.987105 124.18 279.588)" stroke="black" stroke-width="3.4"/>
<line y1="-1.7" x2="24.0287" y2="-1.7" transform="matrix(-0.994239 -0.107185 -0.107185 0.994239 113.398 337.006)" stroke="black" stroke-width="3.4"/>
<path d="M262.139 315.617L256.606 288.957L291.58 265.852" stroke="black" stroke-width="3.4"/>
<path d="M358.135 303.356L350.739 284.205L320.308 294.19" stroke="black" stroke-width="3.4"/>
<line x1="350.994" y1="234.082" x2="297.575" y2="262.153" stroke="black" stroke-width="3.4"/>
<line x1="315.027" y1="296.93" x2="293.1" y2="311.771" stroke="black" stroke-width="3.4"/>
<line y1="-1.7" x2="30.4484" y2="-1.7" transform="matrix(0.980742 -0.195307 -0.195307 -0.980742 263.289 315.379)" stroke="black" stroke-width="3.4"/>
<path d="M440.968 344.88C425.41 349.135 387.752 348.55 361.579 312.173" stroke="black" stroke-width="3.4"/>
</svg>
