<svg width="533" height="558" viewBox="0 0 533 558" fill="none" xmlns="http://www.w3.org/2000/svg">
<path d="M2 88.8821V294.496V500.111" stroke="black" stroke-width="3.48"/>
<path d="M487 556L266.5 555.526L46 555.051" stroke="black" stroke-width="3.48"/>
<path d="M531 88.8821V294.496V500.111" stroke="black" stroke-width="3.48"/>
<path d="M487 27L266.5 27.5L46 28" stroke="black" stroke-width="3.48"/>
<path d="M50.9982 84.1461H81.1397V50.1477H94.7105V177.713H81.1397V136.287H50.9982V124.144H81.1397V96.2885H50.9982V84.1461Z" fill="#D1D1D1"/>
<path d="M332.621 381.7L353.841 394.69L351.671 418.09" stroke="black" stroke-width="3.4"/>
<path d="M338.98 342.94L356.88 355.62L354.63 379.8" stroke="black" stroke-width="3.4"/>
<path d="M352.818 422.66L270.898 415.05" stroke="black" stroke-width="3.4"/>
<path d="M455.739 432.24L352.449 420.76" stroke="black" stroke-width="3.4"/>
<path d="M458.871 247.03V429.59" stroke="black" stroke-width="3.4"/>
<path d="M149.43 278L284.95 282.82" stroke="black" stroke-width="3.4"/>
<path d="M165.52 220.45L458.87 246.28" stroke="black" stroke-width="3.4"/>
<path d="M165.449 269.29L274.109 282.16" stroke="black" stroke-width="3.4"/>
<path d="M158.109 322.77L219.439 327.52" stroke="black" stroke-width="3.4"/>
<path d="M126.988 237.82V260.54" stroke="black" stroke-width="3.4"/>
<path d="M126.28 293.44L126 312.03" stroke="black" stroke-width="3.4"/>
<path d="M256.62 371.1L254.59 392.94" stroke="black" stroke-width="3.4"/>
<path d="M254.98 395.91L270.21 409.92" stroke="black" stroke-width="3.4"/>
<path d="M226.98 331.53L227.83 353.45" stroke="black" stroke-width="3.4"/>
<path d="M227.379 353.13L242.399 369.32" stroke="black" stroke-width="3.4"/>
<path d="M245.898 370.76L348.878 380.32" stroke="black" stroke-width="3.4"/>
<path d="M264.129 335.47L339.799 342.49" stroke="black" stroke-width="3.4"/>
<path d="M157.041 219L132.051 229.19" stroke="black" stroke-width="3.4"/>
<path d="M151.31 278.15L130.73 286.17" stroke="black" stroke-width="3.4"/>
<path d="M161.869 270.61L132.879 265.91" stroke="black" stroke-width="3.4"/>
<path d="M154.771 320.42L131.121 316.2" stroke="black" stroke-width="3.4"/>
<path d="M272.561 319.86L267.031 293.2L302.001 270.09" stroke="black" stroke-width="3.4"/>
<path d="M368.56 307.6L361.16 288.45L330.73 298.44" stroke="black" stroke-width="3.4"/>
<path d="M361.42 238.32L308 266.39" stroke="black" stroke-width="3.4"/>
<path d="M325.451 301.17L303.531 316.01" stroke="black" stroke-width="3.4"/>
<path d="M274.051 321.29L303.911 315.34" stroke="black" stroke-width="3.4"/>
<path d="M407.84 374.95C392.28 379.21 372 333.17 372 316.41" stroke="black" stroke-width="3.4"/>
</svg>
