<svg width="533" height="558" viewBox="0 0 533 558" fill="none" xmlns="http://www.w3.org/2000/svg">
<path d="M25.4282 139.287H59.141V98.4312H72.7118V139.287H106.282V98.4312H119.853V139.287H153.422V151.429H25.4282V139.287Z" fill="#D1D1D1"/>
<path d="M334.776 316.434L319.38 289.402L271.948 296.016" stroke="black" stroke-width="3.4"/>
<path d="M332.973 317.092L341.127 323.836L358.601 323.836" stroke="black" stroke-width="3.4"/>
<line y1="-1.7" x2="78.2326" y2="-1.7" transform="matrix(-4.37114e-08 -1 -1 4.37114e-08 361 325.182)" stroke="black" stroke-width="3.4"/>
<line y1="-1.7" x2="119.372" y2="-1.7" transform="matrix(-4.50689e-08 -1 -1 4.50689e-08 361 453.996)" stroke="black" stroke-width="3.4"/>
<line x1="187.297" y1="448.927" x2="359.274" y2="448.927" stroke="black" stroke-width="3.4"/>
<path d="M243.227 378.437L235.1 356.434L268.727 342.006" stroke="black" stroke-width="3.4"/>
<line y1="-1.7" x2="308.884" y2="-1.7" transform="matrix(4.37114e-08 1 1 -4.37114e-08 187 128.252)" stroke="black" stroke-width="3.4"/>
<line x1="248.831" y1="131.64" x2="243.325" y2="243.664" stroke="black" stroke-width="3.4"/>
<line x1="233.074" y1="138.386" x2="237.518" y2="247.269" stroke="black" stroke-width="3.4"/>
<line x1="288.255" y1="143.303" x2="287.841" y2="224.031" stroke="black" stroke-width="3.4"/>
<line y1="-1.7" x2="68.9457" y2="-1.7" transform="matrix(0.971682 -0.23629 -0.23629 -0.971682 196.562 311.773)" stroke="black" stroke-width="3.4"/>
<line y1="-1.7" x2="30.2504" y2="-1.7" transform="matrix(0.991901 -0.127013 -0.127013 -0.991901 275.082 338.439)" stroke="black" stroke-width="3.4"/>
<line x1="322.559" y1="229.738" x2="343.466" y2="229.738" stroke="black" stroke-width="3.4"/>
<line x1="346.055" y1="230.62" x2="357.907" y2="246.174" stroke="black" stroke-width="3.4"/>
<line y1="-1.7" x2="15.5116" y2="-1.7" transform="matrix(1 0 0 -1 285.617 223.345)" stroke="black" stroke-width="3.4"/>
<line x1="196.738" y1="100.927" x2="225.738" y2="100.927" stroke="black" stroke-width="3.4"/>
<line x1="256.953" y1="104.589" x2="283.235" y2="105.608" stroke="black" stroke-width="3.4"/>
<line y1="-1.7" x2="18.3378" y2="-1.7" transform="matrix(0.759333 0.650702 -0.824346 0.566087 306.781 223.791)" stroke="black" stroke-width="3.4"/>
<line y1="-1.7" x2="58" y2="-1.7" transform="matrix(5.69814e-08 1 1 -3.35318e-08 324.73 237.508)" stroke="black" stroke-width="3.4"/>
<line y1="-1.7" x2="68.7907" y2="-1.7" transform="matrix(5.69814e-08 1 1 -3.35318e-08 285.617 223.345)" stroke="black" stroke-width="3.4"/>
<line x1="334.463" y1="318.565" x2="304.374" y2="336.025" stroke="black" stroke-width="3.4"/>
<line x1="231.877" y1="130.305" x2="227.432" y2="102.899" stroke="black" stroke-width="3.4"/>
<line x1="185.347" y1="124.603" x2="191.348" y2="99.6032" stroke="black" stroke-width="3.4"/>
<line y1="-1.7" x2="27.695" y2="-1.7" transform="matrix(-0.105635 -0.994405 0.99023 -0.139443 288.84 134.954)" stroke="black" stroke-width="3.4"/>
<line x1="248.342" y1="127.623" x2="253.342" y2="105.623" stroke="black" stroke-width="3.4"/>
<path d="M322.708 436.063C319.021 418.008 298.999 379.919 248.414 372.002" stroke="black" stroke-width="3.4"/>
<path d="M2 88.8821V294.496V500.111" stroke="black" stroke-width="3.48"/>
<path d="M487 556L266.5 555.526L46 555.051" stroke="black" stroke-width="3.48"/>
<path d="M531 88.8821V294.496V500.111" stroke="black" stroke-width="3.48"/>
<path d="M487 27L266.5 27.5L46 28" stroke="black" stroke-width="3.48"/>
</svg>
