<svg width="533" height="558" viewBox="0 0 533 558" fill="none" xmlns="http://www.w3.org/2000/svg">
<path d="M23.4282 104.431H151.422V116.43H118.567V164.857H104.996V116.43H69.9976V164.857H56.4267V116.43H23.4282V104.431Z" fill="#D1D1D1"/>
<line x1="196.625" y1="472.5" x2="204.625" y2="498.5" stroke="black" stroke-width="3.4"/>
<line x1="267.625" y1="470.5" x2="275.625" y2="496.5" stroke="black" stroke-width="3.4"/>
<path d="M357.13 269.207L340.655 298.133L289.899 291.056" stroke="black" stroke-width="3.4"/>
<path d="M355.199 268.503L363.925 261.286L382.623 261.286" stroke="black" stroke-width="3.4"/>
<line x1="386.895" y1="259.843" x2="386.895" y2="343.559" stroke="black" stroke-width="3.4"/>
<line x1="386.895" y1="122" x2="386.895" y2="249.739" stroke="black" stroke-width="3.4"/>
<line y1="-1.7" x2="184.031" y2="-1.7" transform="matrix(1 -8.74228e-08 -8.74228e-08 -1 199.316 125.609)" stroke="black" stroke-width="3.4"/>
<path d="M259.172 202.855L250.475 226.4L286.46 241.839" stroke="black" stroke-width="3.4"/>
<line x1="197.3" y1="470.576" x2="197.3" y2="140.042" stroke="black" stroke-width="3.4"/>
<line y1="-1.7" x2="120.02" y2="-1.7" transform="matrix(-0.0490912 -0.998794 -0.998794 0.0490912 263.348 467.04)" stroke="black" stroke-width="3.4"/>
<line y1="-1.7" x2="116.612" y2="-1.7" transform="matrix(0.0407824 -0.999168 -0.999168 -0.0407824 246.484 459.66)" stroke="black" stroke-width="3.4"/>
<line y1="-1.7" x2="86.3874" y2="-1.7" transform="matrix(-0.00512341 -0.999987 -0.999987 0.00512341 305.527 454.485)" stroke="black" stroke-width="3.4"/>
<line x1="209.636" y1="272.54" x2="281.325" y2="289.973" stroke="black" stroke-width="3.4"/>
<line x1="293.462" y1="243.971" x2="325.57" y2="248.082" stroke="black" stroke-width="3.4"/>
<line y1="-1.7" x2="22.3723" y2="-1.7" transform="matrix(1 0 0 -1 344.059 360.157)" stroke="black" stroke-width="3.4"/>
<line y1="-1.7" x2="20.9257" y2="-1.7" transform="matrix(0.606043 -0.795432 -0.795432 -0.606043 367.762 359.932)" stroke="black" stroke-width="3.4"/>
<line x1="304.527" y1="367.123" x2="321.126" y2="367.123" stroke="black" stroke-width="3.4"/>
<line y1="-1.7" x2="31.0326" y2="-1.7" transform="matrix(1 0 0 -1 209.418 498)" stroke="black" stroke-width="3.4"/>
<line y1="-1.7" x2="28.1459" y2="-1.7" transform="matrix(0.999249 -0.0387557 -0.0387557 -0.999249 273.785 494.081)" stroke="black" stroke-width="3.4"/>
<line y1="-1.7" x2="19.623" y2="-1.7" transform="matrix(0.759333 -0.650702 -0.824346 -0.566087 327.18 368.338)" stroke="black" stroke-width="3.4"/>
<line x1="344.683" y1="353.667" x2="344.683" y2="291.602" stroke="black" stroke-width="3.4"/>
<line x1="302.827" y1="368.823" x2="302.827" y2="295.211" stroke="black" stroke-width="3.4"/>
<line y1="-1.7" x2="37.2261" y2="-1.7" transform="matrix(-0.864925 -0.501901 -0.501901 0.864925 355.887 268.502)" stroke="black" stroke-width="3.4"/>
<line y1="-1.7" x2="29.71" y2="-1.7" transform="matrix(-0.160071 0.987105 0.987105 0.160071 248.816 468.67)" stroke="black" stroke-width="3.4"/>
<line y1="-1.7" x2="29.6362" y2="-1.7" transform="matrix(-0.105635 0.994405 0.99023 0.139443 307.973 463.409)" stroke="black" stroke-width="3.4"/>
<path d="M344.218 141.196C340.272 160.516 318.847 201.275 264.716 209.747" stroke="black" stroke-width="3.4"/>
<path d="M2 87.8818V293.496V499.111" stroke="black" stroke-width="3.48"/>
<path d="M487 555L266.5 554.526L46 554.051" stroke="black" stroke-width="3.48"/>
<path d="M531 87.8818V293.496V499.111" stroke="black" stroke-width="3.48"/>
<path d="M487 26L266.5 26.5L46 27" stroke="black" stroke-width="3.48"/>
</svg>
