<?xml version="1.0" encoding="UTF-8"?>
<svg id="_레이어_1" data-name="레이어 1" xmlns="http://www.w3.org/2000/svg" version="1.1" viewBox="0 0 5053.2 2580.4">
  <defs>
    <style>
      .cls-1 {
        fill: #f5f5f5;
      }

      .cls-1, .cls-2 {
        stroke-width: 0px;
      }

      .cls-3 {
        fill: #000;
        font-family: Bonebone-Medium, Bonebone;
        font-size: 300px;
        font-weight: 500;
      }

      .cls-4, .cls-5, .cls-6, .cls-7, .cls-8, .cls-9, .cls-10, .cls-11, .cls-12, .cls-13, .cls-14, .cls-15, .cls-16, .cls-17, .cls-18, .cls-19, .cls-20 {
        stroke: #000;
      }

      .cls-4, .cls-5, .cls-6, .cls-7, .cls-8, .cls-9, .cls-10, .cls-11, .cls-12, .cls-13, .cls-14, .cls-15, .cls-17, .cls-18, .cls-19, .cls-20 {
        fill: none;
      }

      .cls-4, .cls-5, .cls-16, .cls-20 {
        stroke-width: 8.5px;
      }

      .cls-5 {
        stroke-miterlimit: 4;
      }

      .cls-6 {
        stroke-width: 9.8px;
      }

      .cls-6, .cls-11 {
        stroke-miterlimit: 4;
      }

      .cls-2, .cls-16 {
        fill: #a1a1a1;
      }

      .cls-7 {
        stroke-miterlimit: 4;
      }

      .cls-7, .cls-8, .cls-9, .cls-10, .cls-11, .cls-12, .cls-13, .cls-14, .cls-15, .cls-18 {
        stroke-width: 10px;
      }

      .cls-8 {
        stroke-miterlimit: 4;
      }

      .cls-9 {
        stroke-miterlimit: 4;
      }

      .cls-10 {
        stroke-miterlimit: 4;
      }

      .cls-12 {
        stroke-miterlimit: 4;
      }

      .cls-13 {
        stroke-miterlimit: 4;
      }

      .cls-14 {
        stroke-miterlimit: 4;
      }

      .cls-15 {
        stroke-miterlimit: 4;
      }

      .cls-16, .cls-20 {
        stroke-miterlimit: 10;
      }

      .cls-17 {
        stroke-width: 8.2px;
      }

      .cls-19 {
        stroke-width: 9.8px;
      }
    </style>
  </defs>
  <polyline class="cls-2" points="1318.7 -138.6 1325.5 -578.9 266.6 -578.9 266.6 -455.9 510.5 -520.2 670.2 -455.9 926.8 -405.3 951.6 -366 1066.2 -357.8 1118.7 -260.5 1109.9 -464 1157 -538.3 1279.8 -538.3 1307.9 -410 1290.4 -518"/>
  <polygon class="cls-2" points="1070.4 -550.8 779.4 -399.3 803 -125.1 1155.7 -96.4 1276.4 -155.8 1208.6 -283.1 1265.9 -439.5 1148.3 -441.5 1070.4 -550.8"/>
  <rect class="cls-1" x="2105.7" y="-478.6" width="1556" height="584"/>
  <text class="cls-3" transform="translate(-199.2 -221.4)"><tspan x="0" y="0">이름손</tspan></text>
  <g>
    <g>
      <line class="cls-18" x1="1844.6" y1="1811.2" x2="2051.9" y2="1811.2"/>
      <line class="cls-18" x1="1481.7" y1="1811.2" x2="1852.2" y2="1811.2"/>
      <line class="cls-18" x1="1966.8" y1="1142.6" x2="1866.6" y2="598.8"/>
      <line class="cls-18" x1="1637.2" y1="915" x2="1853.6" y2="608.5"/>
      <line class="cls-19" x1="1480.9" y1="854.1" x2="1681.3" y2="521.5"/>
      <line class="cls-18" x1="1681.8" y1="514.9" x2="1681.3" y2="382.8"/>
      <line class="cls-8" x1="2091.6" y1="964" x2="2054.4" y2="653.3"/>
      <line class="cls-14" x1="1480.9" y1="980.5" x2="1533.8" y2="1010.5"/>
      <line class="cls-15" x1="1985.1" y1="1142.5" x2="2075.1" y2="1128.6"/>
      <line class="cls-18" x1="1622.1" y1="930.6" x2="1532.6" y2="999"/>
      <line class="cls-7" x1="2096.3" y1="995.5" x2="2097.2" y2="1102.8"/>
      <path class="cls-18" d="M2238.3,379.2l-62.1,99.7-178-31.9"/>
      <line class="cls-18" x1="2358.8" y1="374.6" x2="2358.8" y2="540.1"/>
      <line class="cls-18" x1="1767.6" y1="381" x2="1965.6" y2="430.5"/>
      <line class="cls-18" x1="2222.5" y1="601.9" x2="2301.4" y2="601.9"/>
      <line class="cls-9" x1="2314" y1="599.8" x2="2358.8" y2="541"/>
      <line class="cls-18" x1="2074.8" y1="653.2" x2="2160.8" y2="653.2"/>
      <line class="cls-18" x1="2172.8" y1="646.9" x2="2225.4" y2="601.9"/>
      <line class="cls-18" x1="2222.5" y1="584.5" x2="2222.5" y2="405.8"/>
      <line class="cls-18" x1="2074.8" y1="638" x2="2074.8" y2="462"/>
      <path class="cls-18" d="M1835.2,965.2h-92.3l-52.6,130.7"/>
      <path class="cls-18" d="M1904.7,1714.1l-56.5,27.7v59.4"/>
      <path class="cls-18" d="M1897.6,1615.2l-47.1,27.8v61.7"/>
      <path class="cls-18" d="M1851.7,1604.6v-59.4l95.4-46.5"/>
      <line class="cls-11" x1="1481.7" y1="1509.8" x2="1481.7" y2="1816.2"/>
      <line class="cls-6" x1="1481.7" y1="849.2" x2="1481.7" y2="980.5"/>
      <line class="cls-11" x1="2358.8" y1="380.5" x2="1676.3" y2="380.5"/>
      <line class="cls-18" x1="1481.7" y1="1513.7" x2="1569.6" y2="1296.9"/>
      <path class="cls-18" d="M1889.4,1344.3l-121.3-13.8,21.5-131"/>
      <line class="cls-13" x1="2369.4" y1="1341.1" x2="1899.7" y2="1345.1"/>
      <line class="cls-18" x1="2331.8" y1="1465.8" x2="2041.7" y2="1477.7"/>
      <line class="cls-12" x1="1574.7" y1="1286.4" x2="1679.5" y2="1118.7"/>
      <line class="cls-18" x1="2437.5" y1="1373.3" x2="2437.5" y2="1453.8"/>
      <line class="cls-10" x1="1790" y1="1191.3" x2="1840.6" y2="1084.7"/>
      <line class="cls-18" x1="2096" y1="1704.7" x2="2096" y2="1760"/>
      <line class="cls-18" x1="2177.3" y1="1606.9" x2="2177.3" y2="1662.3"/>
      <line class="cls-18" x1="2174.4" y1="1665.9" x2="2133" y2="1703"/>
      <line class="cls-18" x1="2093.3" y1="1774.1" x2="2051.8" y2="1811.2"/>
      <line class="cls-18" x1="2124.9" y1="1707.6" x2="1864.6" y2="1707.6"/>
      <line class="cls-18" x1="2163.2" y1="1509.8" x2="2163.2" y2="1565.1"/>
      <line class="cls-18" x1="2160.2" y1="1569.2" x2="2118.8" y2="1606.3"/>
      <line class="cls-18" x1="2110.9" y1="1607.5" x2="1864.2" y2="1607.5"/>
      <line class="cls-18" x1="1845.1" y1="969.1" x2="1845.9" y2="1071.7"/>
      <line class="cls-18" x1="2152" y1="1495.6" x2="1958.8" y2="1495.6"/>
      <line class="cls-18" x1="2372" y1="1341.3" x2="2435" y2="1367"/>
      <line class="cls-18" x1="2343.5" y1="1465.5" x2="2437.5" y2="1453.8"/>
      <line class="cls-18" x1="1850.5" y1="1555.2" x2="1936" y2="1555.2"/>
      <line class="cls-18" x1="1937.2" y1="1562.8" x2="1937.2" y2="1607.5"/>
      <line class="cls-18" x1="1937.2" y1="1662.9" x2="1937.2" y2="1707.6"/>
      <line class="cls-18" x1="1850.5" y1="1657.5" x2="1936" y2="1657.5"/>
      <line class="cls-18" x1="1937.2" y1="1765.4" x2="1937.2" y2="1810.1"/>
      <line class="cls-18" x1="1850.5" y1="1760" x2="1936" y2="1760"/>
    </g>
    <g>
      <line class="cls-4" x1="1303.1" y1="373.9" x2="1349.5" y2="734.2"/>
      <line class="cls-17" x1="1154.5" y1="1172.1" x2="1154.5" y2="1358.3"/>
      <line class="cls-4" x1="1154.4" y1="456.1" x2="1154.4" y2="691.1"/>
      <line class="cls-4" x1="1194.5" y1="998.1" x2="1194.5" y2="1157.1"/>
      <line class="cls-4" x1="1189.2" y1="373.8" x2="1304.2" y2="373.8"/>
      <line class="cls-4" x1="1183.1" y1="373.8" x2="1154.1" y2="453.2"/>
      <line class="cls-4" x1="310.5" y1="818.3" x2="584" y2="682.9"/>
      <line class="cls-4" x1="1011.2" y1="996.3" x2="1192.2" y2="996.3"/>
      <line class="cls-4" x1="794.6" y1="1326.2" x2="1010.5" y2="1229.5"/>
      <line class="cls-4" x1="1024.2" y1="1224.1" x2="1185.4" y2="1153"/>
      <line class="cls-16" x1="303.1" y1="1080.7" x2="662" y2="1100.8"/>
      <line class="cls-4" x1="310.5" y1="1353.5" x2="506.4" y2="1372.6"/>
      <line class="cls-4" x1="885.8" y1="902.4" x2="844.8" y2="1014.5"/>
      <line class="cls-4" x1="793.4" y1="763" x2="683.6" y2="762.1"/>
      <line class="cls-4" x1="595.5" y1="683.5" x2="669.3" y2="762.8"/>
      <line class="cls-4" x1="735.4" y1="924.8" x2="790.1" y2="1045.1"/>
      <line class="cls-4" x1="1022.6" y1="828.4" x2="973.4" y2="1000.6"/>
      <line class="cls-4" x1="909.4" y1="526.8" x2="535" y2="373.8"/>
      <line class="cls-4" x1="913.1" y1="555.9" x2="1027.9" y2="818.3"/>
      <line class="cls-4" x1="682.3" y1="1101.2" x2="846.3" y2="1013.7"/>
      <line class="cls-4" x1="858.3" y1="1013.4" x2="1003.1" y2="997"/>
      <line class="cls-4" x1="694.6" y1="438.4" x2="965.8" y2="496.8"/>
      <line class="cls-4" x1="1001.2" y1="554.2" x2="1088.7" y2="570.6"/>
      <line class="cls-4" x1="794.6" y1="1326.2" x2="506.4" y2="1372.6"/>
      <line class="cls-4" x1="1099.6" y1="828.3" x2="1077.7" y2="997.7"/>
      <line class="cls-4" x1="1184.3" y1="773.4" x2="1154" y2="987"/>
      <line class="cls-4" x1="976" y1="506.7" x2="1101.7" y2="796.4"/>
      <line class="cls-4" x1="796" y1="761.3" x2="738.2" y2="902.5"/>
      <line class="cls-4" x1="1017.1" y1="1216.3" x2="998" y2="1131.6"/>
      <line class="cls-5" x1="1181.5" y1="1065.4" x2="999.9" y2="1120"/>
      <line class="cls-4" x1="1005.9" y1="879.5" x2="896.6" y2="892.1"/>
      <line class="cls-4" x1="1189.5" y1="760.6" x2="1096.8" y2="582.6"/>
      <line class="cls-20" x1="535" y1="373.8" x2="309.5" y2="438.4"/>
      <line class="cls-4" x1="309.5" y1="438.4" x2="309.5" y2="1353.5"/>
      <line class="cls-4" x1="1349.5" y1="734.2" x2="1349.5" y2="1353.5"/>
      <line class="cls-4" x1="1354.6" y1="1354.3" x2="1154.5" y2="1354.3"/>
    </g>
  </g>
</svg>